<svg width="50" height="35" viewBox="0 0 50 35" fill="none" xmlns="http://www.w3.org/2000/svg">
<path d="M4.34082 0.542969H45.5752C47.6727 0.543012 49.373 2.24331 49.373 4.34082V30.3838C49.3728 32.4811 47.6726 34.1816 45.5752 34.1816H4.34082C2.24341 34.1816 0.543176 32.4812 0.542969 30.3838V4.34082C0.542969 2.24328 2.24328 0.542969 4.34082 0.542969Z" fill="#1F72CD"/>
<path d="M4.34082 0.542969H45.5752C47.6727 0.543012 49.373 2.24331 49.373 4.34082V30.3838C49.3728 32.4811 47.6726 34.1816 45.5752 34.1816H4.34082C2.24341 34.1816 0.543176 32.4812 0.542969 30.3838V4.34082C0.542969 2.24328 2.24328 0.542969 4.34082 0.542969Z" stroke="#E5E7EB" stroke-width="1.08512"/>
<path fill-rule="evenodd" clip-rule="evenodd" d="M8.81932 12.2979L4.2168 22.7826H9.72666L10.4097 21.1109H11.9711L12.6541 22.7826H18.7189V21.5067L19.2593 22.7826H22.3965L22.937 21.4798V22.7826H35.5501L37.0838 21.1543L38.5199 22.7826L44.9983 22.7961L40.3812 17.5695L44.9983 12.2979H38.6204L37.1274 13.8961L35.7365 12.2979H22.0151L20.8368 15.0041L19.6309 12.2979H14.1325V13.5303L13.5209 12.2979H8.81932ZM9.88542 13.7867H12.5712L15.624 20.8965V13.7867H18.5662L20.9242 18.8844L23.0973 13.7867H26.0248V21.3102H24.2435L24.2289 15.4148L21.632 21.3102H20.0385L17.4271 15.4148V21.3102H13.7625L13.0678 19.6236H9.3145L8.62121 21.3088H6.65781L9.88542 13.7867ZM34.8975 13.7867H27.6545V21.3058H34.7854L37.0838 18.8139L39.2991 21.3058H41.6149L38.249 17.568L41.6149 13.7867H39.3996L37.1129 16.25L34.8975 13.7867ZM11.192 15.0596L9.95544 18.0643H12.4271L11.192 15.0596ZM29.4431 16.7179V15.3444V15.3431H33.9626L35.9346 17.5396L33.8752 19.748H29.4431V18.2487H33.3945V16.7179H29.4431Z" fill="white"/>
</svg>
