<svg width="50" height="35" viewBox="0 0 50 35" fill="none" xmlns="http://www.w3.org/2000/svg">
<path d="M4.34082 0.542969H45.5752C47.6727 0.543012 49.373 2.24331 49.373 4.34082V30.3838C49.3728 32.4811 47.6726 34.1816 45.5752 34.1816H4.34082C2.24341 34.1816 0.543176 32.4812 0.542969 30.3838V4.34082C0.542969 2.24328 2.24328 0.542969 4.34082 0.542969Z" fill="white"/>
<path d="M4.34082 0.542969H45.5752C47.6727 0.543012 49.373 2.24331 49.373 4.34082V30.3838C49.3728 32.4811 47.6726 34.1816 45.5752 34.1816H4.34082C2.24341 34.1816 0.543176 32.4812 0.542969 30.3838V4.34082C0.542969 2.24328 2.24328 0.542969 4.34082 0.542969Z" stroke="#E5E7EB" stroke-width="1.08512"/>
<path fill-rule="evenodd" clip-rule="evenodd" d="M13.7772 12.0712C13.3575 12.5804 12.686 12.982 12.0145 12.9246C11.9306 12.2362 12.2593 11.5047 12.6441 11.053C13.0637 10.5295 13.7982 10.1566 14.3927 10.1279C14.4627 10.845 14.1899 11.5478 13.7772 12.0712ZM14.3859 13.0608C13.7943 13.0259 13.2545 13.2432 12.8185 13.4187C12.5379 13.5317 12.3004 13.6273 12.1196 13.6273C11.9167 13.6273 11.6693 13.5266 11.3916 13.4134C11.0276 13.2652 10.6114 13.0957 10.1751 13.1038C9.17481 13.1182 8.24451 13.699 7.73389 14.6241C6.68468 16.4742 7.4611 19.2135 8.47534 20.7194C8.97196 21.4651 9.56651 22.2826 10.3499 22.2539C10.6946 22.2406 10.9425 22.1327 11.1991 22.0211C11.4945 21.8926 11.8013 21.7591 12.2805 21.7591C12.743 21.7591 13.0364 21.8892 13.3181 22.014C13.586 22.1326 13.8432 22.2466 14.225 22.2396C15.0364 22.2253 15.547 21.4938 16.0436 20.748C16.5796 19.9476 16.8151 19.1665 16.8508 19.0479L16.855 19.0342C16.8542 19.0333 16.8475 19.0302 16.8359 19.0247C16.6567 18.9406 15.2874 18.298 15.2742 16.5746C15.261 15.128 16.3604 14.3951 16.5334 14.2798C16.5439 14.2727 16.551 14.268 16.5543 14.2655C15.8548 13.2042 14.7636 13.0895 14.3859 13.0608ZM20.0027 22.1607V10.9813H24.0947C26.2071 10.9813 27.683 12.4728 27.683 14.6528C27.683 16.8327 26.1791 18.3386 24.0387 18.3386H21.6955V22.1607H20.0027ZM21.6954 12.4441H23.6469C25.1158 12.4441 25.9552 13.2473 25.9552 14.66C25.9552 16.0726 25.1158 16.8829 23.6399 16.8829H21.6954V12.4441ZM33.2718 20.8198C32.8241 21.6946 31.8379 22.2468 30.7747 22.2468C29.2009 22.2468 28.1027 21.2859 28.1027 19.8374C28.1027 18.4032 29.1659 17.5785 31.1314 17.4566L33.2438 17.3276V16.7109C33.2438 15.8002 32.6633 15.3054 31.628 15.3054C30.7747 15.3054 30.1522 15.7571 30.0262 16.4455H28.5014C28.5504 14.997 29.8794 13.9429 31.677 13.9429C33.6145 13.9429 34.8736 14.9827 34.8736 16.5961V22.1608H33.3068V20.8198H33.2718ZM31.2293 20.9201C30.327 20.9201 29.7534 20.4755 29.7534 19.7943C29.7534 19.0916 30.306 18.6828 31.3622 18.6183L33.2438 18.4964V19.1274C33.2438 20.1744 32.3764 20.9201 31.2293 20.9201ZM40.0705 22.5982C39.392 24.5558 38.6156 25.2012 36.9648 25.2012C36.8389 25.2012 36.4192 25.1869 36.3213 25.1582V23.8172C36.4262 23.8316 36.685 23.8459 36.8179 23.8459C37.5664 23.8459 37.986 23.5232 38.2448 22.6842L38.3987 22.1894L35.5309 14.0505H37.3006L39.2941 20.6549H39.329L41.3225 14.0505H43.0432L40.0705 22.5982Z" fill="black"/>
</svg>
