<svg width="191" height="235" viewBox="0 0 191 235" fill="none" xmlns="http://www.w3.org/2000/svg">
<circle opacity="0.1" cx="41.5179" cy="41.5179" r="41.5179" transform="matrix(-1 0 0 1 83.0361 0)" fill="#117ED8"/>
<path opacity="0.1" d="M0.000320435 162.509V234.681C32.7619 237.118 59.7148 211.858 74.5548 191.438C80.674 183.018 83.0361 172.62 83.0361 162.211V98.8039C47.3252 93.9342 21.2131 116.552 7.60233 135.389C1.96111 143.196 0.000320435 152.877 0.000320435 162.509Z" fill="#117ED8"/>
<circle opacity="0.1" cx="41.5179" cy="41.5179" r="41.5179" transform="matrix(-1 0 0 1 190.072 0.131348)" fill="#117ED8"/>
<path opacity="0.1" d="M107.036 162.378V234.549C139.798 236.986 166.751 211.727 181.591 191.307C187.71 182.887 190.072 172.488 190.072 162.08V98.6725C154.361 93.8029 128.249 116.421 114.638 135.257C108.997 143.064 107.036 152.746 107.036 162.378Z" fill="#117ED8"/>
</svg>
