<svg width="40" height="50" viewBox="0 0 40 50" fill="none" xmlns="http://www.w3.org/2000/svg">
<path d="M1.88077 33.5352H37.4218C38.1341 33.5352 38.7902 33.7914 39.3025 34.2226V2.1682C39.3025 0.974753 38.3278 0 37.1343 0H2.1682C0.974753 0 0 0.974753 0 2.1682V34.2163C0.51237 33.7977 1.16221 33.5352 1.88077 33.5352Z" fill="#045C4D"/>
<path d="M5.67369 9.52307C3.58048 9.52307 2.83691 8.18591 2.83691 7.0362C2.83691 5.56783 4.06785 4.54308 5.83615 4.54308H6.11733V4.1057H7.05459V8.58581H13.3967V4.54308H14.334V8.58581H20.245V4.54308H21.1635V9.52307H5.67369ZM5.54873 5.48035C4.69269 5.48035 3.77418 6.07395 3.77418 7.0362C3.77418 8.10468 4.6677 8.58581 5.54873 8.58581H6.11733V5.48035H5.54873ZM7.17956 2.88101C7.17956 2.56234 6.91088 2.30615 6.57347 2.30615C6.23605 2.30615 5.97362 2.55609 5.97362 2.88101C5.97362 3.21217 6.2298 3.46211 6.57347 3.46211C6.91713 3.46211 7.17956 3.21217 7.17956 2.88101ZM5.48624 2.88101C5.48624 2.56234 5.22381 2.30615 4.8864 2.30615C4.54898 2.30615 4.28655 2.55609 4.28655 2.88101C4.28655 3.21217 4.54273 3.46211 4.8864 3.46211C5.23006 3.46211 5.48624 3.21217 5.48624 2.88101ZM14.484 10.754C14.484 10.4291 14.2153 10.1729 13.8654 10.1729C13.5155 10.1729 13.2468 10.4291 13.2468 10.754C13.2468 11.0914 13.5092 11.3476 13.8654 11.3476C14.2215 11.3476 14.484 11.0914 14.484 10.754ZM19.7514 10.7728C19.7514 10.4478 19.4889 10.1917 19.1515 10.1917C18.8141 10.1917 18.5517 10.4478 18.5517 10.7728C18.5517 11.0977 18.8079 11.3476 19.1515 11.3476C19.4952 11.3476 19.7514 11.0977 19.7514 10.7728ZM21.4447 10.7728C21.4447 10.4478 21.176 10.1917 20.8386 10.1917C20.5012 10.1917 20.2388 10.4478 20.2388 10.7728C20.2388 11.0977 20.4949 11.3476 20.8386 11.3476C21.1885 11.3476 21.4447 11.1039 21.4447 10.7728ZM22.9818 11.4413C22.7819 11.4413 22.5882 11.4163 22.382 11.3601L22.2695 11.3289L22.5132 10.4291L22.6256 10.4603C22.7881 10.5041 22.8443 10.5103 22.9506 10.5103C23.3567 10.5103 23.4942 10.3729 23.4942 9.55431V4.54933H24.4314V8.59206H30.0425V4.54933H30.9798V5.09919H34.0415C34.7538 5.09919 35.2287 5.28665 35.6161 5.73653C35.9098 6.0677 36.0722 6.59257 36.0722 7.20491V9.53557H24.3252V9.58556C24.3627 10.2979 24.2315 10.8102 23.9378 11.1164C23.6254 11.4413 23.188 11.4413 22.9818 11.4413ZM30.986 8.58581H35.1412V7.19241C35.1412 6.81751 35.0662 6.56132 34.9038 6.36137C34.7226 6.14268 34.4352 6.03021 34.0478 6.03021H30.986V8.58581ZM33.6229 3.67455C33.6229 3.34339 33.3542 3.0872 33.0043 3.0872C32.6606 3.0872 32.3857 3.34964 32.3857 3.67455C32.3857 4.01197 32.6481 4.26815 33.0043 4.26815C33.3604 4.26815 33.6229 4.01197 33.6229 3.67455Z" fill="white"/>
<path d="M6.54866 13.9404C6.205 13.9404 5.94882 13.6905 5.94882 13.3593C5.94882 13.0406 6.21125 12.7844 6.54866 12.7844C6.89233 12.7844 7.15476 13.0344 7.15476 13.3593C7.16101 13.6905 6.89857 13.9404 6.54866 13.9404ZM5.46769 13.3531C5.46769 13.0344 5.20525 12.7782 4.86784 12.7782C4.53042 12.7782 4.26799 13.0281 4.26799 13.3531C4.26799 13.6842 4.52418 13.9342 4.86784 13.9342C5.2115 13.9342 5.46769 13.6905 5.46769 13.3531ZM20.0452 21.2448C20.0452 20.9199 19.7828 20.6637 19.4454 20.6637C19.108 20.6637 18.8455 20.9199 18.8455 21.2448C18.8455 21.5697 19.1017 21.8197 19.4454 21.8197C19.7891 21.8197 20.0452 21.576 20.0452 21.2448ZM21.7386 21.2448C21.7386 20.9199 21.4699 20.6637 21.1325 20.6637C20.7951 20.6637 20.5326 20.9199 20.5326 21.2448C20.5326 21.5697 20.7888 21.8197 21.1325 21.8197C21.4824 21.8197 21.7386 21.576 21.7386 21.2448ZM26.9685 13.6967C26.9685 13.378 26.7061 13.1219 26.3686 13.1219C26.0312 13.1219 25.7688 13.3718 25.7688 13.6967C25.7688 14.0279 26.025 14.2778 26.3686 14.2778C26.7123 14.2778 26.9685 14.0279 26.9685 13.6967ZM28.6618 13.6967C28.6618 13.378 28.3931 13.1219 28.0557 13.1219C27.7183 13.1219 27.4559 13.3718 27.4559 13.6967C27.4559 14.0279 27.712 14.2778 28.0557 14.2778C28.3994 14.2778 28.6618 14.0279 28.6618 13.6967ZM15.2027 20.0076L15.2152 19.9951H33.3794V12.6782H32.4421V19.0579H28.8992V15.0151H27.5996C25.8188 15.0151 24.6691 15.9899 24.6691 17.502C24.6691 18.0706 24.8503 18.5705 25.2064 18.9829L25.2752 19.0641H20.82V15.0151H19.8828V19.0579H15.7963L15.8151 18.9954C15.9088 18.7267 15.9525 18.4455 15.9525 18.1456C15.9525 16.6272 14.8028 15.4775 13.2845 15.4775C11.8223 15.4775 10.6789 16.6522 10.6789 18.1456C10.6789 18.433 10.7226 18.7142 10.8163 18.9954L10.8351 19.0579H7.03604V14.5777H6.09878V15.0151H5.8176C4.0493 15.0151 2.81836 16.0399 2.81836 17.5082C2.81836 18.7079 3.60566 19.9951 5.8176 19.9951H11.4162L11.4287 20.0076C11.9223 20.5075 12.5846 20.7887 13.2907 20.7887C14.0155 20.7887 14.7153 20.5075 15.2027 20.0076ZM15.0215 18.1393C15.0215 19.1141 14.278 19.8452 13.2907 19.8452C12.3534 19.8452 11.6224 19.0953 11.6224 18.1393C11.6224 17.1708 12.3534 16.4148 13.2907 16.4148C14.2905 16.4148 15.0215 17.1396 15.0215 18.1393ZM27.9682 15.9524V19.0579H26.5936L26.5811 19.0516C25.9687 18.6892 25.6126 18.1268 25.6126 17.502C25.6126 16.496 26.4936 15.9524 27.3184 15.9524H27.9682ZM6.09878 15.9524V19.0579H5.53017C4.64915 19.0579 3.75562 18.5767 3.75562 17.5082C3.75562 16.546 4.67414 15.9524 5.53017 15.9524H6.09878ZM36.0787 12.6782H35.1414V19.9951H36.0787V12.6782Z" fill="white"/>
<path d="M6.57308 24.4126C6.22942 24.4126 5.97323 24.1626 5.97323 23.8315C5.97323 23.5128 6.23566 23.2566 6.57308 23.2566C6.91674 23.2566 7.17917 23.5065 7.17917 23.8315C7.17917 24.1626 6.91674 24.4126 6.57308 24.4126ZM5.48585 23.8315C5.48585 23.5128 5.22342 23.2566 4.88601 23.2566C4.54859 23.2566 4.28616 23.5065 4.28616 23.8315C4.28616 24.1626 4.54234 24.4126 4.88601 24.4126C5.22967 24.4126 5.48585 24.1626 5.48585 23.8315ZM12.7903 30.4673V25.4873H11.4906C9.70978 25.4873 8.56007 26.4621 8.56007 27.9742C8.56007 28.5428 8.74128 29.0426 9.09744 29.4488L9.16617 29.53H7.06045V25.0499H6.12319V25.4873H5.84201C4.07371 25.4873 2.84277 26.512 2.84277 27.9804C2.84277 29.1801 3.63007 30.4673 5.84201 30.4673H12.7903ZM11.853 26.4246V29.53H10.4783L10.4658 29.5238C9.8535 29.1614 9.49734 28.599 9.49734 27.9742C9.49734 27.2244 10.0972 26.4246 11.2032 26.4246H11.853ZM6.11694 26.4246V29.53H5.54834C4.66731 29.53 3.77379 29.0489 3.77379 27.9804C3.77379 27.0182 4.6923 26.4246 5.54834 26.4246H6.11694ZM11.6968 24.1626C11.6968 23.8315 11.4281 23.569 11.0782 23.569C10.7345 23.569 10.4596 23.8315 10.4596 24.1626C10.4596 24.5 10.722 24.7562 11.0782 24.7562C11.4281 24.75 11.6968 24.5 11.6968 24.1626ZM20.8757 24.625C20.8757 24.2938 20.607 24.0314 20.2571 24.0314C19.9134 24.0314 19.6385 24.2938 19.6385 24.625C19.6385 24.9624 19.9009 25.2186 20.2571 25.2186C20.6133 25.2124 20.8757 24.9624 20.8757 24.625ZM29.561 30.4798L29.5735 30.4673H33.3788V23.1504H32.4415V29.53H30.1608L30.1796 29.4675C30.2733 29.1989 30.3171 28.9177 30.3171 28.6178C30.3171 27.0994 29.1673 25.9497 27.649 25.9497C26.1869 25.9497 25.0434 27.1244 25.0434 28.6178C25.0434 28.9052 25.0871 29.1864 25.1809 29.4675L25.1996 29.53H23.3313V28.1366C23.3313 27.5243 23.1689 27.0057 22.8752 26.6682C22.4878 26.2246 22.0192 26.0309 21.3006 26.0309H18.3388V25.481H17.4016V29.5238H15.1459V23.1504H14.2086V30.4673H25.7745L25.787 30.4798C26.2806 30.9859 26.9429 31.2608 27.649 31.2608C28.38 31.2608 29.0736 30.9797 29.561 30.4798ZM29.3798 28.6115C29.3798 29.5863 28.6362 30.3173 27.649 30.3173C26.7117 30.3173 25.9807 29.5675 25.9807 28.6115C25.9807 27.643 26.7117 26.8869 27.649 26.8869C28.655 26.8869 29.3798 27.6118 29.3798 28.6115ZM18.3326 26.9744H21.2943C21.688 26.9744 21.9754 27.0869 22.1504 27.3056C22.3128 27.5055 22.3878 27.7617 22.3878 28.1366V29.53H18.3326V26.9744ZM36.0781 23.1504H35.1408V30.4673H36.0781V23.1504Z" fill="white"/>
<path d="M37.603 49.9997H1.69957C0.762307 49.9997 0 49.2374 0 48.3001V36.5218C0 35.5846 0.762307 34.8223 1.69957 34.8223H37.603C38.5402 34.8223 39.3025 35.5846 39.3025 36.5218V48.3001C39.2963 49.2374 38.5402 49.9997 37.603 49.9997Z" fill="#C5992C"/>
<path d="M8.60382 45.2511L6.21693 37.1719H2.87402C3.98624 40.521 6.36064 47.6942 6.39188 47.6942H10.6033L14.0587 37.1719H10.7533L8.60382 45.2511Z" fill="white"/>
<path d="M36.4154 37.1719H25.3369L26.168 39.5838H29.7108V47.6942H32.8913V39.5838H36.4216L36.4154 37.1719Z" fill="white"/>
<path d="M24.9313 40.29L25.2687 41.0336C25.2687 41.0336 22.8693 43.0456 20.3262 47.7007C20.3262 47.7007 19.2202 45.7512 18.8203 45.1763L19.214 43.6454L20.3074 44.8826C20.3074 44.8764 23.188 41.4335 24.9313 40.29Z" fill="#045C4D"/>
<path d="M20.9819 43.4203C21.6318 42.6955 22.5065 41.7645 23.3501 40.9959C22.6502 38.9214 22.0504 37.1719 22.0379 37.1719H17.8265L14.3711 47.6942H17.6828L19.826 39.2089C19.826 39.2151 20.4008 41.3146 20.9819 43.4203Z" fill="white"/>
<path d="M21.7383 46.1577C21.9945 47.07 22.1694 47.6948 22.1757 47.6948H25.606C25.606 47.6948 24.8437 45.4204 24.019 42.9897C23.3816 43.7583 22.5881 44.808 21.7383 46.1577Z" fill="white"/>
</svg>
