<svg width="191" height="235" viewBox="0 0 191 235" fill="none" xmlns="http://www.w3.org/2000/svg">
<circle opacity="0.1" cx="148.554" cy="41.5179" r="41.5179" fill="#117ED8"/>
<path opacity="0.1" d="M190.071 162.509V234.681C157.31 237.118 130.357 211.858 115.517 191.438C109.398 183.018 107.036 172.62 107.036 162.211V98.8039C142.747 93.9342 168.859 116.552 182.469 135.389C188.111 143.196 190.071 152.877 190.071 162.509Z" fill="#117ED8"/>
<circle opacity="0.1" cx="41.5184" cy="41.6493" r="41.5179" fill="#117ED8"/>
<path opacity="0.1" d="M83.0363 162.378V234.549C50.2747 236.986 23.3217 211.727 8.48181 191.307C2.36261 182.887 0.000457764 172.488 0.000457764 162.08V98.6725C35.7114 93.8029 61.8235 116.421 75.4343 135.257C81.0755 143.064 83.0363 152.746 83.0363 162.378Z" fill="#117ED8"/>
</svg>
