<svg width="46" height="45" viewBox="0 0 46 45" fill="none" xmlns="http://www.w3.org/2000/svg">
<path fill-rule="evenodd" clip-rule="evenodd" d="M38.7627 27.0302C38.5333 27.4508 38.0362 27.642 37.5774 27.489C36.698 27.2214 35.8569 26.9537 35.0157 26.7243C34.1745 26.4567 33.2951 26.2273 32.4539 26.0361C30.7334 25.6155 29.0128 25.1949 27.2922 24.889C26.4893 24.7361 25.9158 23.9714 26.0687 23.1302C26.1069 22.9773 26.1452 22.8243 26.2216 22.6714C27.0628 21.142 27.9805 19.7655 28.9363 18.4272C29.8922 17.089 30.9245 15.789 32.0334 14.5655C32.4157 14.1449 33.0657 14.1067 33.4863 14.489C33.8304 14.7949 33.9069 15.3302 33.7157 15.7125C32.951 17.1655 32.1481 18.542 31.3069 19.9567L30.0834 22.0214C30.0451 22.0978 29.9687 22.2125 29.9304 22.289C31.0775 22.5567 32.1863 22.9008 33.2951 23.2831C34.1745 23.589 35.0539 23.9331 35.8951 24.3155C36.7363 24.6978 37.6157 25.1184 38.4186 25.5773C38.8774 25.9214 39.0686 26.5331 38.7627 27.0302Z" fill="#59529F"/>
<path fill-rule="evenodd" clip-rule="evenodd" d="M18.6502 24.737C18.4972 24.8135 18.3443 24.8517 18.1913 24.8899C16.4708 25.1958 14.7502 25.5782 13.0296 26.037C12.1884 26.2664 11.3091 26.4958 10.4679 26.7252C9.62671 26.9546 8.78554 27.2223 7.90614 27.4899C7.37085 27.6429 6.79733 27.337 6.64439 26.8017C6.52968 26.3429 6.72085 25.884 7.1032 25.6164C7.90613 25.1576 8.7473 24.737 9.58847 24.3546C10.4296 23.9723 11.3091 23.6282 12.1885 23.3223C13.2973 22.9399 14.4061 22.5958 15.5531 22.3282C15.5149 22.2517 15.4384 22.137 15.4002 22.0605L14.1767 19.9958C13.3355 18.6193 12.5326 17.2046 11.7679 15.7517C11.5002 15.2546 11.6914 14.6429 12.1885 14.3752C12.609 14.1458 13.1061 14.2605 13.412 14.6046C14.5208 15.8282 15.5531 17.1282 16.509 18.4664C17.4649 19.8046 18.3825 21.1811 19.2237 22.7105C19.6443 23.3987 19.4149 24.3164 18.6502 24.737Z" fill="#532D7B"/>
<path fill-rule="evenodd" clip-rule="evenodd" d="M29.2801 43.8154C28.8213 43.9684 28.3242 43.8154 28.0566 43.3948C27.4831 42.4772 26.9478 41.5213 26.3743 40.5654L24.7684 37.736L23.1625 34.9066C23.0478 34.6772 22.8949 34.486 22.7802 34.2566C22.6655 34.486 22.5125 34.6772 22.3978 34.9066L20.7919 37.736L19.1478 40.5654C18.5743 41.4831 18.039 42.439 17.4655 43.3566C17.1596 43.8154 16.5479 43.9684 16.0508 43.6625C15.6302 43.3948 15.4773 42.8978 15.6302 42.439C16.0126 41.4066 16.4332 40.4125 16.892 39.3801C17.3126 38.386 17.8096 37.3919 18.2684 36.3978C18.7655 35.4037 19.2625 34.4095 19.7978 33.4537C20.3331 32.4978 20.8684 31.5037 21.5184 30.5478V30.5095C21.9772 29.8213 22.8949 29.6301 23.5831 30.089C23.736 30.2037 23.889 30.3566 24.0037 30.5095C24.6537 31.5037 25.189 32.4595 25.7243 33.4537C26.2213 34.4478 26.7566 35.4037 27.2154 36.3978C27.7125 37.3919 28.1713 38.386 28.5919 39.3801C29.0125 40.4125 29.4713 41.4066 29.8919 42.439C30.083 43.0507 29.8154 43.6243 29.2801 43.8154Z" fill="#2A4B8F"/>
<path fill-rule="evenodd" clip-rule="evenodd" d="M21.709 10.0922C21.4796 9.32752 21.3648 8.56281 21.2884 7.75987C21.2119 6.99517 21.2119 6.23046 21.2119 5.42752C21.2501 3.8981 21.3649 2.33045 21.7472 0.801041C21.9001 0.227511 22.4354 -0.116606 23.0089 0.0363348C23.3913 0.151041 23.6972 0.456923 23.7736 0.801041C24.156 2.33045 24.2325 3.8981 24.2707 5.42752C24.2707 6.19222 24.2325 6.95693 24.1942 7.75987C24.1178 8.52458 24.0031 9.28928 23.7736 10.0922C23.6207 10.6658 23.0089 10.9716 22.4354 10.7805C22.0531 10.704 21.8237 10.4363 21.709 10.0922Z" fill="#75348A"/>
<path fill-rule="evenodd" clip-rule="evenodd" d="M42.4331 33.9125C42.1272 34.3713 41.5536 34.6007 41.0566 34.4095C39.9478 34.0272 38.8772 33.6066 37.7684 33.2625C36.6596 32.8801 35.5508 32.5742 34.4419 32.2301C33.3714 31.9242 32.3008 31.6566 31.2302 31.4272C31.9567 32.7272 32.6831 34.0272 33.4478 35.3654C34.1361 36.5507 34.7861 37.7742 35.4361 39.036C36.0478 40.2978 36.6978 41.5213 37.1949 42.8213C37.4625 43.4331 37.1566 44.0831 36.5831 44.3507C36.0478 44.5801 35.4743 44.3507 35.1684 43.9301L30.6949 37.086C29.2038 34.7919 27.7126 32.3831 26.4891 29.8595C26.0685 29.0184 26.4126 27.986 27.2538 27.5272C27.5979 27.3742 27.9802 27.2978 28.3243 27.3742C30.7714 27.7948 33.142 28.4066 35.4743 29.2478C36.6213 29.6684 37.7684 30.1272 38.8772 30.6625C39.986 31.1978 41.0566 31.7331 42.1272 32.3831C42.586 32.6125 42.7772 33.3389 42.4331 33.9125Z" fill="#146CB5"/>
<path fill-rule="evenodd" clip-rule="evenodd" d="M19.0327 29.7834C17.7709 32.3452 16.318 34.754 14.8268 37.0481L10.3916 43.9305C10.0475 44.4658 9.32102 44.6187 8.78573 44.2746C8.28867 43.9687 8.13573 43.357 8.32691 42.8599C8.86219 41.5599 9.47396 40.2981 10.0857 39.0364C10.7357 37.8128 11.3857 36.5893 12.0739 35.3658C12.8004 34.0275 13.5651 32.7275 14.2533 31.4275C13.1827 31.6952 12.1122 31.9628 11.0416 32.2687C9.93278 32.5746 8.82396 32.9187 7.71514 33.3011C6.60633 33.6452 5.49751 34.0658 4.42694 34.4481C3.81518 34.6775 3.16518 34.3334 2.93577 33.7599C2.7446 33.2246 2.97402 32.6511 3.43284 32.3834C4.46518 31.7334 5.57399 31.1981 6.68281 30.6628C7.79162 30.1658 8.93867 29.6687 10.0857 29.2481C12.3798 28.407 14.7886 27.7952 17.2356 27.3364C18.1533 27.1834 19.0709 27.7952 19.2239 28.7511C19.2239 29.0952 19.1856 29.4775 19.0327 29.7834Z" fill="#2B2E69"/>
<path fill-rule="evenodd" clip-rule="evenodd" d="M38.4947 36.0919C39.2594 36.4743 39.9094 36.9331 40.5594 37.4302C41.2094 37.9272 41.7829 38.4625 42.3565 39.0743C43.5035 40.2214 44.5359 41.4831 45.377 42.9361C45.6447 43.4331 45.4535 44.0831 44.9564 44.3508C44.6123 44.5419 44.1917 44.5037 43.8476 44.2743C42.5476 43.3567 41.3623 42.2861 40.2535 41.2155C39.68 40.6802 39.1447 40.1067 38.6094 39.5331C38.0741 38.9214 37.5771 38.3096 37.1565 37.6214C36.8506 37.1243 37.0036 36.4743 37.5006 36.1684C37.8065 35.939 38.1888 35.939 38.4947 36.0919Z" fill="#146CB5"/>
<path fill-rule="evenodd" clip-rule="evenodd" d="M8.3271 37.5454C7.90652 38.2337 7.40947 38.8837 6.87418 39.4572C6.33889 40.0307 5.80359 40.6043 5.23007 41.1778C4.08302 42.2484 2.93597 43.319 1.63599 44.2366C1.17717 44.5807 0.527177 44.466 0.183062 43.969C-0.0463475 43.6248 -0.0463522 43.2043 0.106588 42.8601C0.909522 41.369 1.9801 40.1454 3.08891 38.9601C3.66243 38.3866 4.2742 37.8513 4.88596 37.316C5.53595 36.819 6.18594 36.3601 6.95064 35.9778C7.48593 35.7101 8.09769 35.9396 8.36534 36.4366C8.55651 36.8572 8.51828 37.2396 8.3271 37.5454Z" fill="#2B2E69"/>
<path fill-rule="evenodd" clip-rule="evenodd" d="M31.0773 9.02139C30.0832 11.1243 28.9744 13.189 27.8273 15.1773C26.6803 17.2038 25.495 19.192 24.2333 21.142C23.8891 21.6391 23.3538 21.9449 22.7803 21.9449C22.1686 21.9449 21.6333 21.6008 21.3274 21.142C20.1039 19.1538 18.9186 17.1655 17.7716 15.139C17.198 14.1449 16.6245 13.1126 16.0892 12.0802C15.5539 11.0479 14.9804 10.0155 14.4833 8.98316C14.2157 8.40963 14.4451 7.72139 15.0186 7.41551C15.5157 7.14786 16.1275 7.33904 16.4333 7.75963C17.1598 8.67728 17.8098 9.63316 18.498 10.589C19.1862 11.5449 19.8362 12.5008 20.4862 13.4567C21.2509 14.6038 22.0156 15.789 22.7803 16.9743C23.545 15.789 24.3097 14.6038 25.0744 13.4567C26.3744 11.5067 27.7126 9.63316 29.1656 7.79786C29.5479 7.30081 30.2744 7.1861 30.8097 7.60669C31.1538 7.95081 31.2685 8.56257 31.0773 9.02139Z" fill="#75348A"/>
</svg>
