<svg width="50" height="35" viewBox="0 0 50 35" fill="none" xmlns="http://www.w3.org/2000/svg">
<path d="M4.34082 0.542969H45.5752C47.6727 0.543012 49.373 2.24331 49.373 4.34082V30.3838C49.3728 32.4811 47.6726 34.1816 45.5752 34.1816H4.34082C2.24341 34.1816 0.543176 32.4812 0.542969 30.3838V4.34082C0.542969 2.24328 2.24328 0.542969 4.34082 0.542969Z" fill="white"/>
<path d="M4.34082 0.542969H45.5752C47.6727 0.543012 49.373 2.24331 49.373 4.34082V30.3838C49.3728 32.4811 47.6726 34.1816 45.5752 34.1816H4.34082C2.24341 34.1816 0.543176 32.4812 0.542969 30.3838V4.34082C0.542969 2.24328 2.24328 0.542969 4.34082 0.542969Z" stroke="#E5E7EB" stroke-width="1.08512"/>
<path d="M22.2016 18.644H5.42578V24.2327H22.2016V18.644Z" fill="#84B740"/>
<path d="M22.2016 11.0181H5.42578V16.6117H22.2016V11.0181Z" fill="#259BD6"/>
<path d="M38.9775 23.097L38.9028 23.112C38.6438 23.1618 38.5492 23.1817 38.3599 23.1817C37.9216 23.1817 37.4035 22.9575 37.4035 21.9016C37.4035 21.3587 37.4932 20.6364 38.3101 20.6364H38.3151C38.4545 20.6464 38.6139 20.6613 38.9128 20.751L38.9775 20.7709V23.097ZM39.112 17.8321L38.9775 17.8571V19.8096L38.858 19.7747L38.8231 19.7648C38.6886 19.7249 38.3798 19.6353 38.081 19.6353C36.4472 19.6353 36.1035 20.8705 36.1035 21.9066C36.1035 23.3261 36.9005 24.143 38.2902 24.143C38.8779 24.143 39.3112 24.0832 39.7496 23.9388C40.153 23.8093 40.2975 23.625 40.2975 23.2315V17.6279C39.909 17.6977 39.5055 17.7674 39.112 17.8321Z" fill="#27292D"/>
<path d="M43.8338 23.1319L43.764 23.1518L43.515 23.2166C43.2809 23.2763 43.0717 23.3112 42.9123 23.3112C42.5288 23.3112 42.2996 23.1219 42.2996 22.7982C42.2996 22.589 42.3943 22.2353 43.0219 22.2353H43.8338V23.1319ZM43.261 19.6104C42.7579 19.6104 42.2399 19.7 41.5973 19.8992L41.1789 20.0238L41.3184 20.9701L41.7268 20.8357C42.1552 20.6962 42.6881 20.6065 43.0866 20.6065C43.2659 20.6065 43.8138 20.6065 43.8138 21.1993V21.4583H43.0518C41.6621 21.4583 41.0195 21.9016 41.0195 22.853C41.0195 23.6648 41.6123 24.153 42.6085 24.153C42.9173 24.153 43.3456 24.0932 43.7142 24.0035L43.7341 23.9986L43.7541 24.0035L43.8786 24.0235C44.2671 24.0932 44.6706 24.1629 45.0641 24.2377V21.1295C45.0641 20.1234 44.4564 19.6104 43.261 19.6104Z" fill="#27292D"/>
<path d="M34.156 23.1319L34.0863 23.1518L33.8373 23.2166C33.6031 23.2763 33.3989 23.3112 33.2346 23.3112C32.851 23.3112 32.6219 23.1219 32.6219 22.7982C32.6219 22.589 32.7165 22.2353 33.3392 22.2353H34.151V23.1319H34.156ZM33.5882 19.6104C33.0801 19.6104 32.5671 19.7 31.9246 19.8992L31.5062 20.0238L31.6456 20.9701L32.0541 20.8357C32.4824 20.6962 33.0154 20.6065 33.4139 20.6065C33.5932 20.6065 34.1411 20.6065 34.1411 21.1993V21.4583H33.379C31.9893 21.4583 31.3418 21.9016 31.3418 22.853C31.3418 23.6648 31.9345 24.153 32.9357 24.153C33.2445 24.153 33.6729 24.0932 34.0415 24.0035L34.0614 23.9986L34.0813 24.0035L34.2009 24.0235C34.5944 24.0932 34.9928 24.1629 35.3863 24.2426V21.1345C35.3913 20.1184 34.7836 19.6104 33.5882 19.6104Z" fill="#27292D"/>
<path d="M28.9114 19.6202C28.2788 19.6202 27.7558 19.8294 27.5616 19.9191L27.5117 19.944L27.4669 19.9091C27.1979 19.7149 26.8044 19.6152 26.2565 19.6152C25.7734 19.6152 25.3201 19.685 24.827 19.8294C24.4036 19.9589 24.2393 20.1631 24.2393 20.5467V24.0981H25.5642V20.8156L25.6289 20.7957C25.8979 20.7061 26.0573 20.6911 26.2117 20.6911C26.5952 20.6911 26.7895 20.8953 26.7895 21.2938V24.1031H28.0945V21.239C28.0945 21.0697 28.0596 20.9701 28.0547 20.9501L28.0098 20.8655L28.0995 20.8256C28.2987 20.7359 28.5179 20.6911 28.747 20.6911C29.011 20.6911 29.3248 20.7957 29.3248 21.2938V24.1031H30.6248V21.1643C30.6248 20.1233 30.067 19.6202 28.9114 19.6202Z" fill="#27292D"/>
<path d="M42.8578 14.6641C42.6636 14.6641 42.3398 14.6442 42.0858 14.5944L42.0111 14.5794V12.6618C42.0111 12.5024 41.9812 12.4028 41.9762 12.3878L41.9364 12.3081L42.021 12.2733C42.041 12.2633 42.0609 12.2583 42.0858 12.2484L42.1007 12.2384C42.1306 12.2284 42.1605 12.2185 42.1904 12.2085C42.2053 12.2035 42.2153 12.1986 42.2253 12.1986C42.5191 12.1189 42.7881 12.1288 42.9077 12.1189H42.9126C43.7245 12.1189 43.8192 12.8411 43.8192 13.384C43.8142 14.44 43.2912 14.6641 42.8578 14.6641ZM42.8529 11.0181C42.8429 11.0181 42.828 11.0181 42.818 11.0181C42.0559 11.0181 41.2739 11.2273 40.995 11.6357C40.8455 11.8349 40.7609 12.084 40.7559 12.3779V14.3553C40.7559 14.5247 40.721 14.5894 40.716 14.6043L40.6712 14.689H38.2654V13.3143H38.2604C38.2305 11.8648 37.3738 11.0679 36.1336 11.0679H35.9891H34.9232C34.8734 11.4215 34.8335 11.6706 34.7837 12.0242H35.9891C36.6217 12.0242 36.9554 12.5622 36.9554 13.389V14.7737L36.8708 14.7289C36.8558 14.7239 36.7512 14.689 36.5868 14.689H34.5048C34.465 14.953 34.4151 15.2967 34.3604 15.6404H40.7609C40.98 15.5956 41.2341 15.5557 41.4532 15.5208C41.777 15.6802 42.3797 15.7649 42.7931 15.7649C44.1828 15.7649 45.0843 14.8335 45.0843 13.399C45.0794 11.9794 44.2077 11.048 42.8529 11.0181Z" fill="#27292D"/>
<path d="M31.631 16.2231H31.6908C33.0804 16.2231 33.728 15.7648 33.728 14.6341C33.728 13.8222 33.1352 13.1747 32.139 13.1747H30.8589C30.4754 13.1747 30.2463 12.9556 30.2463 12.587C30.2463 12.3379 30.3409 12.0291 30.9685 12.0291H33.7678C33.8276 11.6655 33.8575 11.4364 33.9123 11.0728H31.0034C29.6486 11.0728 28.9662 11.6406 28.9662 12.587C28.9662 13.5234 29.5589 14.0115 30.5551 14.0115H31.8352C32.2187 14.0115 32.4479 14.3154 32.4479 14.6341C32.4479 14.8433 32.3532 15.2767 31.7306 15.2767H31.5164L27.4171 15.2667H26.67C26.0374 15.2667 25.5941 14.9081 25.5941 14.0763V13.5035C25.5941 12.6368 25.9378 12.0988 26.67 12.0988H27.8853C27.9401 11.7302 27.975 11.4961 28.0248 11.1475H26.5106H26.3661C25.1259 11.1475 24.2691 11.9793 24.2393 13.4287V13.4835V14.0763C24.2691 15.5257 25.1259 16.2181 26.3661 16.2181H26.5106H27.5765L29.798 16.2231H31.1229H31.631Z" fill="#27292D"/>
</svg>
