<svg width="50" height="35" viewBox="0 0 50 35" fill="none" xmlns="http://www.w3.org/2000/svg">
<path d="M4.34082 0.542969H45.5752C47.6727 0.543012 49.373 2.24331 49.373 4.34082V30.3838C49.3728 32.4811 47.6726 34.1816 45.5752 34.1816H4.34082C2.24341 34.1816 0.543176 32.4812 0.542969 30.3838V4.34082C0.542969 2.24328 2.24328 0.542969 4.34082 0.542969Z" fill="white"/>
<path d="M4.34082 0.542969H45.5752C47.6727 0.543012 49.373 2.24331 49.373 4.34082V30.3838C49.3728 32.4811 47.6726 34.1816 45.5752 34.1816H4.34082C2.24341 34.1816 0.543176 32.4812 0.542969 30.3838V4.34082C0.542969 2.24328 2.24328 0.542969 4.34082 0.542969Z" stroke="#E5E7EB" stroke-width="1.08512"/>
<path d="M31.2178 7.27734C36.6358 7.27734 41.0281 11.6172 41.0283 16.9707C41.0283 22.3244 36.636 26.665 31.2178 26.665C28.7888 26.665 26.5678 25.7905 24.8545 24.3457C23.1412 25.7905 20.9202 26.665 18.4912 26.665C13.073 26.665 8.68066 22.3244 8.68066 16.9707C8.68088 11.6172 13.0732 7.27734 18.4912 7.27734C20.92 7.27736 23.1412 8.15113 24.8545 9.5957C26.5677 8.1511 28.789 7.27742 31.2178 7.27734Z" fill="#ED0006"/>
<path fill-rule="evenodd" clip-rule="evenodd" d="M24.8545 24.3492C26.9639 22.5712 28.3015 19.9255 28.3015 16.9711C28.3015 14.0167 26.9639 11.371 24.8545 9.59297C26.5676 8.14902 28.7898 7.27734 31.218 7.27734C36.6361 7.27734 41.0285 11.6174 41.0285 16.9711C41.0285 22.3248 36.6361 26.6648 31.218 26.6648C28.7898 26.6648 26.5676 25.7932 24.8545 24.3492Z" fill="#F9A000"/>
<path d="M24.8535 9.59521C26.9626 11.3732 28.3008 14.0171 28.3008 16.9712C28.3008 19.925 26.9623 22.5682 24.8535 24.3462C22.7452 22.5682 21.4072 19.9247 21.4072 16.9712C21.4072 14.0175 22.7449 11.3732 24.8535 9.59521Z" fill="#FF5E00"/>
</svg>
