<svg width="50" height="35" viewBox="0 0 50 35" fill="none" xmlns="http://www.w3.org/2000/svg">
<path d="M4.34082 0.542969H45.5752C47.6727 0.543012 49.373 2.24331 49.373 4.34082V30.3838C49.3728 32.4811 47.6726 34.1816 45.5752 34.1816H4.34082C2.24341 34.1816 0.543176 32.4812 0.542969 30.3838V4.34082C0.542969 2.24328 2.24328 0.542969 4.34082 0.542969Z" fill="white"/>
<path d="M4.34082 0.542969H45.5752C47.6727 0.543012 49.373 2.24331 49.373 4.34082V30.3838C49.3728 32.4811 47.6726 34.1816 45.5752 34.1816H4.34082C2.24341 34.1816 0.543176 32.4812 0.542969 30.3838V4.34082C0.542969 2.24328 2.24328 0.542969 4.34082 0.542969Z" stroke="#E5E7EB" stroke-width="1.08512"/>
<path fill-rule="evenodd" clip-rule="evenodd" d="M21.1436 26.6918L21.463 24.5952L20.7516 24.578H17.3545L19.7153 9.1062C19.7227 9.05935 19.7465 9.01586 19.7812 8.98492C19.8161 8.95398 19.8606 8.93701 19.9071 8.93701H25.635C27.5368 8.93701 28.8491 9.34594 29.5341 10.1532C29.8554 10.5319 30.0599 10.9277 30.159 11.3632C30.2628 11.8202 30.2645 12.3661 30.1633 13.0321L30.1559 13.0806V13.5073L30.4771 13.6954C30.7476 13.8438 30.9626 14.0135 31.1275 14.2078C31.4022 14.5317 31.5799 14.9433 31.655 15.431C31.7326 15.9328 31.707 16.53 31.5799 17.2061C31.4333 17.9836 31.1964 18.6609 30.8764 19.215C30.5822 19.7256 30.2072 20.1492 29.762 20.4773C29.3369 20.7892 28.832 21.0259 28.261 21.1774C27.7077 21.3263 27.0768 21.4014 26.3849 21.4014H25.9392C25.6205 21.4014 25.3109 21.52 25.0678 21.7327C24.8241 21.9498 24.663 22.2465 24.6135 22.5709L24.5798 22.7597L24.0155 26.4553L23.9901 26.5909C23.9832 26.6338 23.9716 26.6552 23.9545 26.6697C23.9392 26.683 23.9174 26.6918 23.896 26.6918H21.1436Z" fill="#28356A"/>
<path fill-rule="evenodd" clip-rule="evenodd" d="M30.7818 13.1299C30.7649 13.2429 30.7452 13.3583 30.7233 13.4769C29.968 17.4856 27.3836 18.8704 24.083 18.8704H22.4024C21.9987 18.8704 21.6585 19.1733 21.5957 19.5848L20.4916 26.8237C20.4507 27.094 20.6522 27.3375 20.916 27.3375H23.8967C24.2496 27.3375 24.5494 27.0724 24.605 26.7127L24.6343 26.5562L25.1955 22.8752L25.2316 22.6733C25.2865 22.3122 25.587 22.0471 25.9399 22.0471H26.3857C29.2735 22.0471 31.5343 20.8353 32.1951 17.3284C32.471 15.8635 32.3281 14.6402 31.5978 13.78C31.3768 13.5206 31.1026 13.3053 30.7818 13.1299Z" fill="#298FC2"/>
<path fill-rule="evenodd" clip-rule="evenodd" d="M29.9917 12.8041C29.8763 12.7693 29.7572 12.7378 29.6351 12.7094C29.5123 12.6816 29.3865 12.6571 29.2571 12.6355C28.8039 12.5598 28.3074 12.5239 27.7756 12.5239H23.286C23.1754 12.5239 23.0703 12.5497 22.9764 12.5964C22.7693 12.6993 22.6155 12.9019 22.5782 13.15L21.6231 19.4025L21.5957 19.5848C21.6585 19.1732 21.9987 18.8703 22.4024 18.8703H24.0829C27.3835 18.8703 29.9679 17.4848 30.7233 13.4768C30.7459 13.3582 30.7649 13.2428 30.7818 13.1298C30.5907 13.025 30.3838 12.9353 30.1609 12.859C30.1058 12.84 30.049 12.8218 29.9917 12.8041Z" fill="#22284F"/>
<path fill-rule="evenodd" clip-rule="evenodd" d="M22.5779 13.1499C22.6152 12.9019 22.769 12.6993 22.9761 12.5971C23.0707 12.5502 23.1751 12.5244 23.2857 12.5244H27.7753C28.3071 12.5244 28.8037 12.5605 29.2568 12.6361C29.3863 12.6575 29.512 12.6823 29.6348 12.71C29.7569 12.7383 29.876 12.77 29.9914 12.8046C30.0487 12.8223 30.1055 12.8407 30.1611 12.8589C30.384 12.9353 30.5911 13.0256 30.7822 13.1298C31.007 11.6484 30.7803 10.6398 30.0055 9.72645C29.1511 8.72085 27.6092 8.29053 25.6362 8.29053H19.908C19.505 8.29053 19.1612 8.59338 19.0989 9.00566L16.7131 24.6366C16.6661 24.9458 16.8968 25.2248 17.1986 25.2248H20.7349L22.5779 13.1499Z" fill="#28356A"/>
</svg>
