<svg width="50" height="35" viewBox="0 0 50 35" fill="none" xmlns="http://www.w3.org/2000/svg">
<path d="M4.34082 0.542969H45.5752C47.6727 0.543012 49.373 2.24331 49.373 4.34082V30.3838C49.3728 32.4811 47.6726 34.1816 45.5752 34.1816H4.34082C2.24341 34.1816 0.543176 32.4812 0.542969 30.3838V4.34082C0.542969 2.24328 2.24328 0.542969 4.34082 0.542969Z" fill="white"/>
<path d="M4.34082 0.542969H45.5752C47.6727 0.543012 49.373 2.24331 49.373 4.34082V30.3838C49.3728 32.4811 47.6726 34.1816 45.5752 34.1816H4.34082C2.24341 34.1816 0.543176 32.4812 0.542969 30.3838V4.34082C0.542969 2.24328 2.24328 0.542969 4.34082 0.542969Z" stroke="#E5E7EB" stroke-width="1.08512"/>
<path d="M40.6158 14.1221L38.3322 22.8505L38.3232 22.8679H40.1071L42.3991 14.1221H40.6158Z" fill="#292929"/>
<path d="M12.3304 19.0872C12.0951 19.2112 11.7745 19.2837 11.4707 19.2837C10.8295 19.2837 10.4656 19.1809 10.4274 18.6638V18.6295C10.4274 18.6082 10.423 18.5869 10.423 18.5655V17.0602L10.4274 16.8805V15.8159H10.423V15.3628L10.4274 15.1831V14.1561L8.83673 14.3655C9.91424 14.1561 10.5302 13.3049 10.5302 12.4582V11.9365H8.7424V14.3785L8.63965 14.4082V18.9327C8.69973 20.2028 9.53748 20.9597 10.9103 20.9597C11.3977 20.9597 11.9323 20.8486 12.3427 20.6644L12.3511 20.6599V19.0731L12.3304 19.0872Z" fill="#292929"/>
<path d="M12.6121 13.793L7.5957 14.5667V15.8368L12.6121 15.0631V13.793Z" fill="#292929"/>
<path d="M12.6121 15.6528L7.5957 16.4266V17.6411L12.6121 16.8673V15.6528Z" fill="#292929"/>
<path d="M18.236 16.2386C18.1636 14.8276 17.2826 13.9893 15.8452 13.9893C15.0198 13.9893 14.3353 14.3099 13.8738 14.9129C13.4117 15.516 13.168 16.4009 13.168 17.4745C13.168 18.548 13.4117 19.4374 13.8738 20.036C14.3359 20.639 15.0198 20.9597 15.8452 20.9597C17.282 20.9597 18.1675 20.1174 18.236 18.6974V20.8271H20.0238V14.1341L18.236 14.4076M18.3298 17.4745C18.3298 18.7277 17.6712 19.5357 16.6577 19.5357C15.6099 19.5357 14.9855 18.7659 14.9855 17.4745C14.9855 16.1785 15.6099 15.4003 16.6577 15.4003C17.1664 15.4003 17.5942 15.5968 17.8896 15.9736C18.1759 16.3459 18.3298 16.863 18.3298 17.4745Z" fill="#292929"/>
<path d="M25.2372 13.9896C23.7959 13.9896 22.9149 14.8279 22.8464 16.2434V12.1895L21.0586 12.4629V20.828H22.8464V18.6983C22.9149 20.1183 23.7998 20.9606 25.2372 20.9606C26.9223 20.9606 27.9274 19.6562 27.9274 17.4754C27.9274 15.2945 26.9217 13.9896 25.2372 13.9896ZM24.4242 19.536C23.4062 19.536 22.7521 18.7281 22.7521 17.4748C22.7521 16.8633 22.9059 16.3456 23.1923 15.9779C23.4876 15.6017 23.9149 15.4046 24.4242 15.4046C25.4719 15.4046 26.0963 16.1789 26.0963 17.4787C26.0963 18.7662 25.4719 19.536 24.4242 19.536Z" fill="#292929"/>
<path d="M32.789 13.9896C31.3476 13.9896 30.4667 14.8279 30.3982 16.2434V12.1895L28.6104 12.4629V20.828H30.3982V18.6983C30.4667 20.1183 31.3516 20.9606 32.789 20.9606C34.474 20.9606 35.4791 19.6562 35.4791 17.4754C35.4791 15.2945 34.474 13.9896 32.789 13.9896ZM31.9804 19.536C30.9625 19.536 30.3083 18.7281 30.3083 17.4748C30.3083 16.8633 30.4622 16.3456 30.7485 15.9779C31.0439 15.6017 31.4712 15.4046 31.9804 15.4046C33.0282 15.4046 33.6526 16.1789 33.6526 17.4787C33.6526 18.7662 33.0282 19.536 31.9804 19.536Z" fill="#292929"/>
<path d="M35.4834 14.1221H37.3908L38.9433 20.819H37.2325L35.4834 14.1221Z" fill="#292929"/>
</svg>
