<svg width="50" height="35" viewBox="0 0 50 35" fill="none" xmlns="http://www.w3.org/2000/svg">
<path d="M4.34082 0.542969H45.5752C47.6727 0.543012 49.373 2.24331 49.373 4.34082V30.3838C49.3728 32.4811 47.6726 34.1816 45.5752 34.1816H4.34082C2.24341 34.1816 0.543176 32.4812 0.542969 30.3838V4.34082C0.542969 2.24328 2.24328 0.542969 4.34082 0.542969Z" fill="white"/>
<path d="M4.34082 0.542969H45.5752C47.6727 0.543012 49.373 2.24331 49.373 4.34082V30.3838C49.3728 32.4811 47.6726 34.1816 45.5752 34.1816H4.34082C2.24341 34.1816 0.543176 32.4812 0.542969 30.3838V4.34082C0.542969 2.24328 2.24328 0.542969 4.34082 0.542969Z" stroke="#E5E7EB" stroke-width="1.08512"/>
<path fill-rule="evenodd" clip-rule="evenodd" d="M15.5533 22.9441H12.5732L10.3385 14.1678C10.2325 13.7641 10.0072 13.4072 9.67597 13.239C8.84921 12.8163 7.93818 12.4799 6.94434 12.3102V11.9723H11.745C12.4076 11.9723 12.9045 12.4799 12.9873 13.0693L14.1468 19.4L17.1255 11.9723H20.0227L15.5533 22.9441ZM21.6793 22.9441H18.8649L21.1824 11.9723H23.9968L21.6793 22.9441ZM27.6381 15.0118C27.7209 14.4209 28.2178 14.083 28.7976 14.083C29.7086 13.9981 30.701 14.1678 31.5292 14.5891L32.0261 12.2268C31.1979 11.8889 30.2869 11.7192 29.4601 11.7192C26.7285 11.7192 24.7408 13.239 24.7408 15.3482C24.7408 16.9528 26.1488 17.7954 27.1426 18.3029C28.2178 18.809 28.6319 19.1469 28.5491 19.653C28.5491 20.4121 27.7209 20.75 26.8941 20.75C25.9003 20.75 24.9064 20.497 23.9969 20.0743L23.4999 22.438C24.4938 22.8593 25.569 23.0289 26.5629 23.0289C29.6258 23.1123 31.5292 21.594 31.5292 19.3151C31.5292 16.4453 27.6381 16.2771 27.6381 15.0118ZM41.379 22.9441L39.1443 11.9723H36.7439C36.247 11.9723 35.7501 12.3102 35.5844 12.8163L31.4463 22.9441H34.3436L34.9219 21.341H38.4817L38.813 22.9441H41.379ZM37.1581 14.927L37.9848 19.0621H35.6673L37.1581 14.927Z" fill="#172B85"/>
</svg>
