<svg width="311" height="162" viewBox="0 0 311 162" fill="none" xmlns="http://www.w3.org/2000/svg">
<path d="M185 0C185 0 187.207 20.5997 195.804 29.1964C204.4 37.793 225 40 225 40C225 40 204.4 42.207 195.804 50.8036C187.207 59.4003 185 80 185 80C185 80 182.793 59.4003 174.196 50.8036C165.6 42.207 145 40 145 40C145 40 165.6 37.793 174.196 29.1964C182.793 20.5997 185 0 185 0Z" fill="white" fill-opacity="0.5"/>
<path d="M301 13C301 13 301.552 18.1499 303.701 20.2991C305.85 22.4482 311 23 311 23C311 23 305.85 23.5518 303.701 25.7009C301.552 27.8501 301 33 301 33C301 33 300.448 27.8501 298.299 25.7009C296.15 23.5518 291 23 291 23C291 23 296.15 22.4482 298.299 20.2991C300.448 18.1499 301 13 301 13Z" fill="white" fill-opacity="0.5"/>
<path d="M10 142C10 142 10.5518 147.15 12.7009 149.299C14.8501 151.448 20 152 20 152C20 152 14.8501 152.552 12.7009 154.701C10.5518 156.85 10 162 10 162C10 162 9.44825 156.85 7.29909 154.701C5.14994 152.552 0 152 0 152C0 152 5.14994 151.448 7.29909 149.299C9.44825 147.15 10 142 10 142Z" fill="white" fill-opacity="0.5"/>
<path d="M271.5 56C271.5 56 272.852 68.6173 278.117 73.8828C283.383 79.1482 296 80.5 296 80.5C296 80.5 283.383 81.8518 278.117 87.1172C272.852 92.3827 271.5 105 271.5 105C271.5 105 270.148 92.3827 264.883 87.1172C259.617 81.8518 247 80.5 247 80.5C247 80.5 259.617 79.1482 264.883 73.8828C270.148 68.6173 271.5 56 271.5 56Z" fill="white" fill-opacity="0.25"/>
<path d="M174 92C174 92 174.552 99.5962 176.701 102.766C178.85 105.936 184 106.75 184 106.75C184 106.75 178.85 107.564 176.701 110.734C174.552 113.904 174 121.5 174 121.5C174 121.5 173.448 113.904 171.299 110.734C169.15 107.564 164 106.75 164 106.75C164 106.75 169.15 105.936 171.299 102.766C173.448 99.5962 174 92 174 92Z" fill="white" fill-opacity="0.25"/>
</svg>
