<svg width="390" height="297" viewBox="0 0 390 297" fill="none" xmlns="http://www.w3.org/2000/svg">
<path d="M376.598 0H13.4024C6.00082 0 0 6.00152 0 13.4057V283.519C0 290.923 6.00082 296.925 13.4024 296.925H376.597C383.999 296.925 389.999 290.923 389.999 283.519V13.4057C390 6.00152 383.999 0 376.598 0Z" fill="#117ED8"/>
<path d="M390 283.516V13.4079C390 5.99842 383.997 0.00146484 376.597 0.00146484H355.017C362.417 0.00146484 368.421 5.99842 368.421 13.4079V283.515C368.421 290.925 362.417 296.922 355.017 296.922H376.597C383.997 296.922 390 290.926 390 283.516Z" fill="#4C60E1"/>
<path d="M390 58.0533V13.4079C390 5.99842 383.997 0.00146484 376.597 0.00146484H13.4032C6.00311 0.00222675 0 5.99918 0 13.4079V58.0533H390Z" fill="#F1F8FE"/>
<path d="M390 58.0533V13.4079C390 5.99842 383.997 0.00146484 376.597 0.00146484H355.017C362.417 0.00146484 368.421 5.99842 368.421 13.4079V58.0533H390Z" fill="#BDDFF4"/>
<path d="M75.4155 34.8586H75.3416C72.0913 34.8586 69.4565 32.2232 69.4565 28.9722C69.4565 25.7211 72.0913 23.0857 75.3416 23.0857C78.5918 23.0857 81.2639 25.7211 81.2639 28.9722C81.2639 32.2232 78.6657 34.8586 75.4155 34.8586Z" fill="#54DDAC"/>
<path d="M56.1326 34.915C52.9106 34.915 50.2826 32.3199 50.2491 29.0895C50.2148 25.8384 52.8222 23.1756 56.0725 23.1413C59.2877 23.0979 62.0215 25.715 62.0558 28.966C62.09 32.2179 59.5192 34.8799 56.269 34.9142L56.1951 34.915C56.1745 34.915 56.1532 34.915 56.1326 34.915Z" fill="#FDC142"/>
<path d="M36.9244 34.9706C33.7023 34.9706 31.0736 32.3756 31.0408 29.1451C31.0073 25.8933 33.6147 23.2304 36.8649 23.1969C36.8855 23.1969 36.9068 23.1969 36.9266 23.1969C40.1495 23.1969 42.814 25.7919 42.8475 29.0224C42.881 32.2735 40.311 34.9363 37.0599 34.9699L36.9861 34.9706C36.9663 34.9706 36.9449 34.9706 36.9244 34.9706Z" fill="#FC3E81"/>
<path d="M131.659 34.9706H111.235C107.985 34.9706 105.35 32.3352 105.35 29.0841C105.35 25.8331 107.985 23.1976 111.235 23.1976H131.659C134.909 23.1976 137.544 25.8331 137.544 29.0841C137.544 32.3352 134.909 34.9706 131.659 34.9706Z" fill="#BDDFF4"/>
<path d="M126.658 141.484H121.552V134.529C121.552 128.731 116.846 124.031 111.04 124.031C105.235 124.031 100.528 128.731 100.528 134.529V141.484H75.9981L93.6621 111.618C96.6145 106.626 94.9558 100.188 89.957 97.2398C84.9581 94.2905 78.5124 95.9477 75.56 100.939L48.5292 146.643C46.6099 149.888 46.5802 153.913 48.4507 157.186C50.3219 160.459 53.8061 162.48 57.5806 162.48H100.529V194.119C100.529 199.917 105.235 204.617 111.041 204.617C116.847 204.617 121.553 199.917 121.553 194.119V162.48H126.659C132.464 162.48 137.171 157.78 137.171 151.982C137.17 146.184 132.464 141.484 126.658 141.484Z" fill="#FD9E28"/>
<path d="M332.419 141.484H327.314V134.529C327.314 128.731 322.608 124.031 316.802 124.031C310.996 124.031 306.29 128.731 306.29 134.529V141.484H281.759L299.423 111.618C302.375 106.626 300.717 100.188 295.718 97.2398C290.719 94.2905 284.273 95.9477 281.321 100.939L254.29 146.643C252.371 149.888 252.341 153.913 254.211 157.186C256.083 160.459 259.567 162.48 263.341 162.48H306.29V194.119C306.29 199.917 310.996 204.617 316.802 204.617C322.608 204.617 327.314 199.917 327.314 194.119V162.48H332.419C338.225 162.48 342.931 157.78 342.931 151.982C342.931 146.184 338.225 141.484 332.419 141.484Z" fill="#FD9E28"/>
<path fill-rule="evenodd" clip-rule="evenodd" d="M181.549 204.616H208.451C221.76 204.616 232.589 193.803 232.589 180.51V119.884C232.589 106.592 221.76 95.7781 208.451 95.7781H181.549C168.24 95.7781 157.412 106.591 157.412 119.884V180.51C157.412 193.802 168.24 204.616 181.549 204.616ZM180.368 124.035C180.368 121.097 182.763 118.705 185.706 118.705H204.295C207.237 118.705 209.632 121.097 209.632 124.035V176.359C209.632 179.298 207.237 181.689 204.295 181.689H185.706C182.763 181.689 180.368 179.297 180.368 176.359V124.035Z" fill="#FD9E28"/>
<path d="M283.273 272.47C280.01 272.47 277.328 269.825 277.328 266.562C277.328 263.299 279.935 260.654 283.198 260.654H283.273C286.536 260.654 289.181 263.299 289.181 266.562C289.181 269.825 286.536 272.47 283.273 272.47Z" fill="#E3F4FF"/>
<path d="M302.841 272.527C299.578 272.527 296.894 269.882 296.894 266.619C296.894 263.356 299.502 260.711 302.766 260.711H302.841C306.104 260.711 308.749 263.356 308.749 266.619C308.749 269.882 306.104 272.527 302.841 272.527Z" fill="#E3F4FF"/>
<path d="M322.409 272.584C322.389 272.584 322.368 272.584 322.347 272.584C319.084 272.551 316.429 269.878 316.462 266.615C316.496 263.373 319.097 260.766 322.332 260.766C322.353 260.766 322.373 260.766 322.394 260.766L322.469 260.767C325.732 260.801 328.35 263.473 328.316 266.737C328.283 269.978 325.643 272.584 322.409 272.584Z" fill="#E3F4FF"/>
<path d="M69.8371 248.205H50.2698C47.0068 248.205 44.3617 245.583 44.3617 242.349C44.3617 239.115 47.0068 236.493 50.2698 236.493H69.8371C73.1001 236.493 75.7452 239.115 75.7452 242.349C75.7452 245.583 73.1001 248.205 69.8371 248.205Z" fill="#E3F4FF"/>
<path d="M89.4044 272.53H50.2698C47.0068 272.53 44.3617 269.908 44.3617 266.674C44.3617 263.439 47.0068 260.817 50.2698 260.817H89.4044C92.6674 260.817 95.3125 263.439 95.3125 266.674C95.3125 269.908 92.6674 272.53 89.4044 272.53Z" fill="#E3F4FF"/>
</svg>
