<svg width="20" height="20" viewBox="0 0 20 20" fill="none" xmlns="http://www.w3.org/2000/svg">
<path d="M9.15951 13.3333C9.15951 12.873 9.5326 12.4999 9.99284 12.4999H10.0003C10.4606 12.4999 10.8337 12.873 10.8337 13.3333C10.8337 13.7935 10.4606 14.1666 10.0003 14.1666H9.99284C9.5326 14.1666 9.15951 13.7935 9.15951 13.3333Z" fill="#B54708"/>
<path d="M9.37435 10.8333C9.37435 11.1784 9.65417 11.4583 9.99935 11.4583C10.3445 11.4583 10.6243 11.1784 10.6243 10.8333V7.49992C10.6243 7.15474 10.3445 6.87492 9.99935 6.87492C9.65417 6.87492 9.37435 7.15474 9.37435 7.49992V10.8333Z" fill="#B54708"/>
<path fill-rule="evenodd" clip-rule="evenodd" d="M8.63434 1.67909C9.52138 1.38464 10.4773 1.38464 11.3644 1.67909C12.2477 1.97231 12.9413 2.66776 13.6381 3.64488C14.3326 4.61875 15.1 5.97663 16.0892 7.727L16.128 7.79572C17.1174 9.54635 17.8848 10.9042 18.363 12.0053C18.8435 13.1118 19.0829 14.0672 18.8919 14.985C18.6996 15.9091 18.2255 16.7495 17.535 17.3847C16.8462 18.0183 15.9083 18.2855 14.7273 18.4139C13.5531 18.5416 12.017 18.5416 10.04 18.5416H9.95873C7.9817 18.5416 6.44563 18.5416 5.27137 18.4139C4.09041 18.2855 3.15251 18.0183 2.4637 17.3847C1.7732 16.7495 1.29908 15.9091 1.10681 14.985C0.915848 14.0672 1.15518 13.1118 1.63573 12.0053C2.11395 10.9042 2.88131 9.54635 3.87067 7.79571L3.9095 7.727C4.89869 5.97664 5.66608 4.61875 6.36057 3.64488C7.05737 2.66776 7.75096 1.97231 8.63434 1.67909ZM10.9706 2.86544C10.3392 2.65586 9.65951 2.65586 9.02814 2.86544C8.53148 3.03029 8.03221 3.45367 7.3783 4.37064C6.72664 5.28445 5.991 6.58445 4.97823 8.37653C3.96553 10.1685 3.23122 11.4695 2.78227 12.5033C2.33254 13.5388 2.21987 14.1982 2.3306 14.7304C2.47027 15.4017 2.81397 16.0084 3.30995 16.4647C3.69948 16.823 4.30645 17.0517 5.40647 17.1713C6.50515 17.2907 7.97319 17.2916 9.99935 17.2916C12.0255 17.2916 13.4936 17.2907 14.5922 17.1713C15.6923 17.0517 16.2992 16.823 16.6888 16.4647C17.1847 16.0084 17.5284 15.4017 17.6681 14.7304C17.7788 14.1982 17.6662 13.5388 17.2164 12.5033C16.7675 11.4695 16.0332 10.1685 15.0205 8.37653C14.0077 6.58445 13.2721 5.28445 12.6204 4.37064C11.9665 3.45367 11.4672 3.0303 10.9706 2.86544Z" fill="#B54708"/>
</svg>
