<svg width="221" height="272" viewBox="0 0 221 272" fill="none" xmlns="http://www.w3.org/2000/svg">
<path d="M111 76.7134C111 76.7134 113.207 97.3131 121.804 105.91C130.4 114.506 151 116.713 151 116.713C151 116.713 130.4 118.92 121.804 127.517C113.207 136.114 111 156.713 111 156.713C111 156.713 108.793 136.114 100.196 127.517C91.5997 118.92 71 116.713 71 116.713C71 116.713 91.5997 114.506 100.196 105.91C108.793 97.3131 111 76.7134 111 76.7134Z" fill="white" fill-opacity="0.5"/>
<path d="M125.289 196C125.289 196 125.841 201.15 127.99 203.299C130.139 205.448 135.289 206 135.289 206C135.289 206 130.139 206.552 127.99 208.701C125.841 210.85 125.289 216 125.289 216C125.289 216 124.737 210.85 122.588 208.701C120.439 206.552 115.289 206 115.289 206C115.289 206 120.439 205.448 122.588 203.299C124.737 201.15 125.289 196 125.289 196Z" fill="white" fill-opacity="0.25"/>
<path d="M195.289 88C195.289 88 195.841 93.1499 197.99 95.2991C200.139 97.4482 205.289 98 205.289 98C205.289 98 200.139 98.5518 197.99 100.701C195.841 102.85 195.289 108 195.289 108C195.289 108 194.737 102.85 192.588 100.701C190.439 98.5518 185.289 98 185.289 98C185.289 98 190.439 97.4482 192.588 95.2991C194.737 93.1499 195.289 88 195.289 88Z" fill="white" fill-opacity="0.5"/>
<path d="M181 124.713C181 124.713 183.207 145.313 191.804 153.91C200.4 162.506 221 164.713 221 164.713C221 164.713 200.4 166.92 191.804 175.517C183.207 184.114 181 204.713 181 204.713C181 204.713 178.793 184.114 170.196 175.517C161.6 166.92 141 164.713 141 164.713C141 164.713 161.6 162.506 170.196 153.91C178.793 145.313 181 124.713 181 124.713Z" fill="white" fill-opacity="0.25"/>
<path d="M40 153.713C40 153.713 42.207 184.098 50.8036 196.778C59.4003 209.458 80 212.713 80 212.713C80 212.713 59.4003 215.969 50.8036 228.649C42.207 241.329 40 271.713 40 271.713C40 271.713 37.793 241.329 29.1964 228.649C20.5997 215.969 0 212.713 0 212.713C0 212.713 20.5997 209.458 29.1964 196.778C37.793 184.098 40 153.713 40 153.713Z" fill="white" fill-opacity="0.25"/>
<path d="M171.5 -27.2866C171.5 -27.2866 173.183 3.09801 179.738 15.778C186.293 28.458 202 31.7134 202 31.7134C202 31.7134 186.293 34.9687 179.738 47.6487C173.183 60.3287 171.5 90.7134 171.5 90.7134C171.5 90.7134 169.817 60.3287 163.262 47.6487C156.707 34.9687 141 31.7134 141 31.7134C141 31.7134 156.707 28.458 163.262 15.778C169.817 3.09801 171.5 -27.2866 171.5 -27.2866Z" fill="white" fill-opacity="0.25"/>
<path d="M40.5 51.7134C40.5 51.7134 42.1828 67.1632 48.7378 73.6107C55.2927 80.0581 71 81.7134 71 81.7134C71 81.7134 55.2927 83.3686 48.7378 89.8161C42.1828 96.2636 40.5 111.713 40.5 111.713C40.5 111.713 38.8172 96.2636 32.2622 89.8161C25.7073 83.3686 10 81.7134 10 81.7134C10 81.7134 25.7073 80.0581 32.2622 73.6107C38.8172 67.1632 40.5 51.7134 40.5 51.7134Z" fill="white" fill-opacity="0.25"/>
</svg>
