<svg width="512" height="512" viewBox="0 0 512 512" fill="none" xmlns="http://www.w3.org/2000/svg">
  <defs>
    <style>
      .outline { stroke: #1F2937; stroke-width: 14; stroke-linecap: round; stroke-linejoin: round; }
      .fill-white { fill: #FFFFFF; }
      .fill-blue-light { fill: #38BDF8; }
      .fill-blue-dark { fill: #0EA5E9; }
    </style>
  </defs>

  <line x1="150" y1="150" x2="150" y2="190" class="outline" />
  <line x1="362" y1="150" x2="362" y2="190" class="outline" />

  <path d="M145,210 C125,210 120,240 120,260 C120,280 125,310 145,310" class="outline fill-blue-dark" />
  <path d="M367,210 C387,210 392,240 392,260 C392,280 387,310 367,310" class="outline fill-blue-dark" />

  <rect x="150" y="190" width="212" height="150" rx="60" class="fill-white outline" />

  <path d="M150,250 
           A 60 60 0 0 1 362 250 
           L 362 230 
           A 20 20 0 0 0 362 230 
           L 150 230 
           Z" 
        stroke="none" fill="#38BDF8"/>
  
  <path d="M150,250 A 60 60 0 0 1 362 250" class="outline" fill="none" stroke="#38BDF8" stroke-width="35" />
  
  <path d="M150,250 A 60 60 0 0 1 362 250" class="outline" fill="none" />
  <path d="M175,250 A 35 35 0 0 1 337 250" class="outline" fill="none" />

  <path d="M210,245 L225,230 L240,245" class="outline" fill="none" stroke-width="12" />
  <path d="M272,245 L287,230 L302,245" class="outline" fill="none" stroke-width="12" />

  <g transform="translate(0, 10)">
    <path d="M235,300 H350 A20,20 0 0,1 370,320 V355 A20,20 0 0,1 350,375 H255 A20,20 0 0,1 235,355 V335 Z" class="fill-white outline" />
    
    <circle cx="280" cy="337" r="6" fill="#1F2937" />
    <circle cx="302" cy="337" r="6" fill="#1F2937" />
    <circle cx="324" cy="337" r="6" fill="#1F2937" />
  </g>

</svg>