<svg width="164" height="189" viewBox="0 0 164 189" fill="none" xmlns="http://www.w3.org/2000/svg">
<path d="M139.038 2.29308L91.339 49.9925C91.4106 50.1876 91.4836 50.3813 91.5593 50.5751L139.621 2.51203C139.427 2.43639 139.233 2.36341 139.038 2.29175V2.29308ZM134.903 1.03109L90.077 45.8576C90.1287 46.0699 90.1871 46.2822 90.2429 46.4945L135.54 1.19696C135.328 1.14256 135.117 1.08284 134.903 1.03109ZM149.382 8.13857L97.1845 60.3366C97.3039 60.4852 97.4233 60.6325 97.5441 60.7785L149.824 8.49819C149.677 8.37743 149.53 8.25667 149.382 8.13857ZM142.804 3.92397L92.9699 53.7586C93.0588 53.9377 93.1424 54.1182 93.2353 54.296L143.341 4.18938C143.163 4.09649 142.982 4.01288 142.803 3.92397H142.804ZM146.243 5.88132L94.9272 57.1982C95.032 57.3614 95.1329 57.5246 95.2404 57.6865L146.732 6.19449C146.571 6.087 146.407 5.98615 146.244 5.88132H146.243ZM119.066 0.678103L89.724 30.0197C89.6616 30.3408 89.6139 30.6633 89.5595 30.9857L120.032 0.514881C119.709 0.569288 119.387 0.617061 119.066 0.67943V0.678103ZM111.196 3.15165L92.1976 22.1505C91.9958 22.6083 91.8008 23.0675 91.619 23.5306L112.578 2.57308C112.115 2.75488 111.654 2.94995 111.198 3.15165H111.196ZM130.305 0.232227L89.2781 41.2595C89.3047 41.4983 89.3325 41.7372 89.3644 41.976L131.022 0.318483C130.783 0.287962 130.544 0.258767 130.305 0.232227ZM125.122 0.0199052L89.0658 36.0761C89.0578 36.3495 89.0486 36.6242 89.0459 36.8976L125.943 0C125.67 0.00132701 125.395 0.0119431 125.122 0.0199052ZM109.563 70.3476L159.392 20.5183C159.303 20.3391 159.22 20.1586 159.127 19.9821L109.025 70.0835C109.203 70.1764 109.384 70.26 109.563 70.3489V70.3476ZM127.251 74.2463L163.292 38.2047C163.3 37.9313 163.309 37.6566 163.312 37.3833L126.429 74.2662C126.703 74.2649 126.977 74.2543 127.251 74.2463ZM122.065 74.0353L163.081 33.0187C163.055 32.7799 163.027 32.541 162.995 32.3021L121.348 73.9491C121.587 73.9796 121.826 74.0088 122.065 74.0353ZM133.31 73.5841L162.63 44.2638C162.692 43.9427 162.742 43.6189 162.795 43.2964L132.341 73.75C132.663 73.6956 132.987 73.6478 133.308 73.5855L133.31 73.5841ZM141.186 71.1053L160.151 52.1396C160.353 51.6818 160.549 51.2213 160.731 50.7569L139.801 71.6865C140.266 71.5034 140.726 71.3083 141.184 71.1053H141.186ZM113.329 71.9771L161.023 24.283C160.951 24.0879 160.878 23.8942 160.803 23.7004L112.746 71.7568C112.94 71.8312 113.134 71.9055 113.329 71.9771ZM106.123 68.3902L157.436 17.0773C157.331 16.9141 157.23 16.7495 157.123 16.589L105.635 68.077C105.797 68.1845 105.961 68.2854 106.123 68.3902ZM102.984 66.1343L155.18 13.9376C155.062 13.789 154.943 13.6417 154.821 13.4944L102.542 65.7734C102.689 65.8941 102.836 66.0135 102.985 66.133L102.984 66.1343ZM117.465 73.2378L162.284 28.4193C162.232 28.2056 162.174 27.9946 162.118 27.7823L116.828 73.0719C117.041 73.1263 117.252 73.186 117.465 73.2378ZM152.238 10.6798L99.7257 63.1923C99.7907 63.2587 99.8518 63.3277 99.9181 63.394C99.9871 63.4617 100.059 63.5254 100.128 63.5931L152.64 11.0806C152.573 11.0115 152.51 10.9399 152.441 10.8709C152.375 10.8045 152.306 10.7448 152.24 10.6785L152.238 10.6798Z" fill="#AAD6F8"/>
<path opacity="0.5" d="M60.3137 73.3232L26.8491 106.788C26.8995 106.924 26.9499 107.06 27.003 107.196L60.7224 73.4771C60.587 73.424 60.4503 73.3736 60.3137 73.3232ZM57.4128 72.4381L25.9639 103.887C25.9998 104.037 26.0422 104.184 26.0807 104.333L57.86 72.5535C57.7114 72.515 57.5628 72.4726 57.4141 72.4367L57.4128 72.4381ZM67.5698 77.425L30.9495 114.045C31.0331 114.149 31.1167 114.252 31.2017 114.356L67.8803 77.6771C67.7768 77.5922 67.6746 77.5086 67.5698 77.425ZM62.9544 74.4684L27.9929 109.43C28.0553 109.555 28.1137 109.682 28.1787 109.807L63.3313 74.6542C63.2065 74.5892 63.0805 74.5308 62.9544 74.4684ZM65.3682 75.8419L29.3664 111.844C29.4394 111.958 29.511 112.073 29.5867 112.186L65.7106 76.0621C65.5978 75.9865 65.4824 75.9162 65.3682 75.8419ZM46.3004 72.1912L25.7158 92.7759C25.672 93.0014 25.6388 93.2284 25.6003 93.454L46.9785 72.0758C46.7529 72.113 46.526 72.1475 46.3004 72.1912ZM40.78 73.9257L27.4502 87.2555C27.3095 87.5766 27.1729 87.8991 27.0441 88.2242L41.7474 73.5209C41.4223 73.6483 41.0998 73.785 40.7787 73.927L40.78 73.9257ZM54.1868 71.8781L25.4026 100.662C25.4212 100.829 25.4411 100.997 25.4623 101.165L54.6884 71.9391C54.5212 71.9179 54.354 71.898 54.1855 71.8794L54.1868 71.8781ZM50.5495 71.7294L25.254 97.025C25.2487 97.2174 25.242 97.4098 25.2407 97.6009L51.1267 71.7148C50.9343 71.7148 50.7419 71.7228 50.5508 71.7281L50.5495 71.7294ZM39.6348 121.068L74.5936 86.1089C74.5313 85.9842 74.4729 85.8568 74.4078 85.7321L39.2593 120.882C39.384 120.947 39.5101 121.005 39.6362 121.068H39.6348ZM52.0424 123.804L77.3286 98.5178C77.3339 98.3254 77.3405 98.133 77.3419 97.9419L51.4651 123.819C51.6576 123.819 51.85 123.811 52.0411 123.805L52.0424 123.804ZM48.405 123.657L77.1813 94.8805C77.1627 94.7133 77.1428 94.5448 77.1216 94.3776L47.9034 123.596C48.0706 123.617 48.2378 123.637 48.4064 123.655L48.405 123.657ZM56.2941 123.34L76.8641 102.77C76.9079 102.544 76.9424 102.317 76.9796 102.091L55.6147 123.456C55.8416 123.418 56.0672 123.385 56.2928 123.341L56.2941 123.34ZM61.8185 121.6L75.1244 108.294C75.2664 107.973 75.4031 107.65 75.5318 107.324L60.8484 122.007C61.1736 121.879 61.4974 121.742 61.8185 121.6ZM42.2769 122.212L75.7375 88.751C75.6871 88.6143 75.6353 88.4777 75.5836 88.3423L41.8682 122.058C42.0035 122.111 42.1402 122.161 42.2769 122.212ZM37.221 119.696L73.2202 83.6964C73.1472 83.5823 73.0755 83.4669 72.9999 83.3541L36.8773 119.477C36.9901 119.552 37.1055 119.623 37.2197 119.697L37.221 119.696ZM35.0181 118.112L71.6371 81.4936C71.5534 81.3901 71.4698 81.2866 71.3849 81.1831L34.7076 117.86C34.8111 117.945 34.9146 118.029 35.0181 118.112ZM45.1778 123.097L76.6213 91.6532C76.5855 91.5033 76.5443 91.356 76.5059 91.206L44.7319 122.98C44.8805 123.018 45.0291 123.06 45.1791 123.095L45.1778 123.097ZM69.5735 79.2085L32.733 116.049C32.7795 116.095 32.8219 116.145 32.8684 116.191C32.9162 116.239 32.9666 116.283 33.0157 116.33L69.8562 79.4898C69.8084 79.442 69.7646 79.3916 69.7169 79.3425C69.6691 79.2934 69.6213 79.2536 69.5749 79.2072L69.5735 79.2085Z" fill="#59ADF3"/>
<path d="M60.7689 29.841C60.7859 29.8371 60.7964 29.8187 60.7925 29.8017C60.7886 29.7847 60.7702 29.7742 60.7532 29.7782C60.7362 29.7821 60.7257 29.8004 60.731 29.8174C60.7349 29.8345 60.7532 29.8449 60.7702 29.841H60.7689Z" fill="#59ADF3"/>
<path d="M66.449 28.3919C66.4835 28.3826 66.5047 28.3468 66.4954 28.3123C66.4862 28.2778 66.4503 28.2566 66.4158 28.2659C66.3813 28.2751 66.3601 28.311 66.3694 28.3455C66.3787 28.38 66.4145 28.4012 66.449 28.3919Z" fill="#59ADF3"/>
<path d="M72.138 26.9555C72.199 26.9396 72.2349 26.8772 72.2189 26.8162C72.203 26.7551 72.1406 26.7193 72.0796 26.7352C72.0186 26.7511 71.9827 26.8135 71.9987 26.8746C72.0146 26.9356 72.0769 26.9714 72.138 26.9555Z" fill="#59ADF3"/>
<path d="M77.8211 25.5044C77.8994 25.4845 77.9458 25.4035 77.9259 25.3253C77.906 25.247 77.8251 25.2005 77.7468 25.2204C77.6685 25.2403 77.622 25.3213 77.6419 25.3996C77.6618 25.4779 77.7428 25.5243 77.8211 25.5044Z" fill="#59ADF3"/>
<path d="M83.4756 23.9582C83.5194 23.9462 83.5446 23.9024 83.534 23.8587C83.522 23.8149 83.4783 23.7897 83.4345 23.8003C83.3907 23.8122 83.3655 23.856 83.3761 23.8998C83.388 23.9436 83.4318 23.9688 83.4756 23.9582Z" fill="#59ADF3"/>
<path d="M48.0625 39.2074C48.0716 39.2048 48.0756 39.197 48.0743 39.1878C48.0716 39.1786 48.0638 39.1747 48.0546 39.176C48.0455 39.1786 48.0415 39.1865 48.0428 39.1957C48.0455 39.2048 48.0533 39.2087 48.0625 39.2074Z" fill="#59ADF3"/>
<path d="M53.7525 37.7883C53.7962 37.7763 53.8215 37.7325 53.8108 37.6887C53.7989 37.6449 53.7551 37.6197 53.7113 37.6303C53.6675 37.6423 53.6423 37.6861 53.6529 37.7299C53.6649 37.7737 53.7087 37.7989 53.7525 37.7883Z" fill="#59ADF3"/>
<path d="M59.4525 36.4002C59.548 36.3749 59.6051 36.2768 59.5799 36.1812C59.5547 36.0857 59.4578 36.0286 59.3622 36.0538C59.2667 36.079 59.2096 36.1772 59.2348 36.2728C59.2601 36.3683 59.3569 36.4254 59.4525 36.4002Z" fill="#59ADF3"/>
<path d="M65.1476 34.9952C65.2869 34.9593 65.3692 34.8173 65.3333 34.678C65.2975 34.5387 65.1555 34.4551 65.0162 34.4922C64.8768 34.5281 64.7946 34.67 64.8304 34.8094C64.8662 34.9487 65.0095 35.0323 65.1476 34.9952Z" fill="#59ADF3"/>
<path d="M70.8373 33.5761C71.0111 33.531 71.1146 33.3532 71.0695 33.1793C71.0244 33.0055 70.8466 32.902 70.6727 32.9471C70.4989 32.9922 70.3954 33.17 70.4405 33.3439C70.4856 33.5177 70.6634 33.6212 70.8373 33.5761Z" fill="#59ADF3"/>
<path d="M76.5218 32.1411C76.7222 32.0893 76.8416 31.885 76.7886 31.6846C76.7368 31.4842 76.5324 31.3648 76.3321 31.4179C76.1317 31.4696 76.0123 31.674 76.0653 31.8744C76.1171 32.0747 76.3215 32.1942 76.5218 32.1411Z" fill="#59ADF3"/>
<path d="M82.2102 30.7044C82.4358 30.646 82.5711 30.4138 82.5128 30.1882C82.4544 29.9626 82.2221 29.8273 81.9966 29.8856C81.771 29.9454 81.6356 30.1763 81.694 30.4019C81.7524 30.6274 81.9846 30.7628 82.2102 30.7044Z" fill="#59ADF3"/>
<path d="M87.8762 29.1907C88.0846 29.1363 88.2093 28.9226 88.1549 28.7143C88.1005 28.5059 87.8869 28.3812 87.6785 28.4356C87.4702 28.49 87.3454 28.7037 87.3998 28.912C87.4542 29.1203 87.6679 29.2451 87.8762 29.1907Z" fill="#59ADF3"/>
<path d="M93.4795 27.4567C93.5485 27.4381 93.591 27.3678 93.5724 27.2975C93.5538 27.2285 93.4835 27.186 93.4132 27.2046C93.3442 27.2231 93.3017 27.2935 93.3203 27.3638C93.3389 27.4341 93.4092 27.4753 93.4795 27.4567Z" fill="#59ADF3"/>
<path d="M41.0328 47.1058C41.042 47.1032 41.0459 47.0954 41.0446 47.0862C41.042 47.0783 41.0341 47.0731 41.025 47.0744C41.0158 47.077 41.0119 47.0849 41.0132 47.0941C41.0158 47.1019 41.0237 47.1071 41.0328 47.1058Z" fill="#59ADF3"/>
<path d="M46.7294 45.7172C46.7905 45.7013 46.8263 45.6389 46.8104 45.5779C46.7944 45.5168 46.7321 45.481 46.671 45.4969C46.61 45.5129 46.5742 45.5752 46.5901 45.6363C46.606 45.6973 46.6684 45.7332 46.7294 45.7172Z" fill="#59ADF3"/>
<path d="M52.4404 44.3611C52.5705 44.3266 52.6488 44.1939 52.6142 44.0638C52.5797 43.9338 52.447 43.8555 52.317 43.89C52.1869 43.9245 52.1087 44.0572 52.1432 44.1872C52.1777 44.3173 52.3104 44.3956 52.4404 44.3611Z" fill="#59ADF3"/>
<path d="M58.1416 42.9892C58.3327 42.9388 58.4468 42.7437 58.3977 42.5527C58.3473 42.3616 58.1522 42.2474 57.9611 42.2965C57.77 42.347 57.6559 42.542 57.705 42.7331C57.7554 42.9242 57.9505 43.0383 58.1416 42.9892Z" fill="#59ADF3"/>
<path d="M63.8379 41.5992C64.0808 41.5355 64.2267 41.2873 64.163 41.0432C64.0993 40.8003 63.8512 40.6544 63.607 40.7181C63.3642 40.7818 63.2182 41.0299 63.2819 41.2741C63.3456 41.5169 63.5938 41.6629 63.8379 41.5992Z" fill="#59ADF3"/>
<path d="M69.5335 40.196C69.8201 40.1217 69.9926 39.8285 69.917 39.5405C69.8426 39.2539 69.5494 39.0827 69.2614 39.157C68.9748 39.2326 68.8023 39.5246 68.8779 39.8125C68.9522 40.0992 69.2455 40.2704 69.5335 40.196Z" fill="#59ADF3"/>
<path d="M75.2264 38.7761C75.5475 38.6925 75.74 38.3634 75.6564 38.0423C75.5727 37.7211 75.2437 37.5287 74.9225 37.6123C74.6014 37.6959 74.409 38.025 74.4926 38.3461C74.5762 38.6673 74.9053 38.8597 75.2264 38.7761Z" fill="#59ADF3"/>
<path d="M80.911 37.3401C81.2586 37.2499 81.467 36.8943 81.3754 36.5466C81.2852 36.1989 80.9295 35.9906 80.5819 36.0821C80.2342 36.1737 80.0258 36.528 80.1174 36.8757C80.2076 37.2234 80.5633 37.4317 80.911 37.3401Z" fill="#59ADF3"/>
<path d="M86.5882 35.8731C86.9439 35.7802 87.1575 35.4153 87.0646 35.0596C86.9717 34.704 86.6068 34.4904 86.2512 34.5832C85.8955 34.6761 85.6819 35.0411 85.7748 35.3967C85.8677 35.7523 86.2326 35.966 86.5882 35.8731Z" fill="#59ADF3"/>
<path d="M92.2662 34.4056C92.6311 34.3101 92.85 33.9372 92.7545 33.5723C92.659 33.2073 92.2861 32.9884 91.9211 33.0839C91.5562 33.1795 91.3373 33.5524 91.4328 33.9173C91.5283 34.2822 91.9012 34.5012 92.2662 34.4056Z" fill="#59ADF3"/>
<path d="M97.8916 32.7351C98.1517 32.6674 98.3083 32.4007 98.2406 32.1393C98.1729 31.8778 97.9062 31.7226 97.6448 31.7903C97.3847 31.8579 97.2281 32.1247 97.2958 32.3861C97.3635 32.6475 97.6302 32.8028 97.8916 32.7351Z" fill="#59ADF3"/>
<path d="M103.446 30.7963C103.455 30.7937 103.459 30.7858 103.458 30.7767C103.455 30.7675 103.447 30.7636 103.438 30.7649C103.429 30.7675 103.425 30.7754 103.426 30.7845C103.429 30.7937 103.437 30.7976 103.446 30.7963Z" fill="#59ADF3"/>
<path d="M39.6987 53.6C39.7505 53.5867 39.7823 53.5337 39.7691 53.4806C39.7558 53.4288 39.7027 53.397 39.6496 53.4102C39.5979 53.4235 39.566 53.4766 39.5793 53.5297C39.5926 53.5814 39.6457 53.6133 39.6987 53.6Z" fill="#59ADF3"/>
<path d="M45.4107 52.2595C45.5408 52.225 45.6191 52.0923 45.5846 51.9623C45.5501 51.8322 45.4174 51.7539 45.2873 51.7884C45.1573 51.8229 45.079 51.9556 45.1135 52.0857C45.148 52.2157 45.2807 52.294 45.4107 52.2595Z" fill="#59ADF3"/>
<path d="M51.1185 50.9182C51.3269 50.8638 51.4516 50.6502 51.3972 50.4418C51.3428 50.2335 51.1292 50.1087 50.9208 50.1631C50.7125 50.2175 50.5877 50.4312 50.6421 50.6395C50.6966 50.8479 50.9102 50.9726 51.1185 50.9182Z" fill="#59ADF3"/>
<path d="M56.8259 49.5615C57.1046 49.4885 57.2705 49.2045 57.1975 48.9259C57.1245 48.6472 56.8405 48.4813 56.5619 48.5543C56.2832 48.6273 56.1173 48.9113 56.1903 49.19C56.2633 49.4686 56.5473 49.6345 56.8259 49.5615Z" fill="#59ADF3"/>
<path d="M62.5307 48.1883C62.8691 48.0994 63.0721 47.753 62.9845 47.4146C62.8956 47.0762 62.5493 46.8732 62.2109 46.9608C61.8725 47.0497 61.6695 47.3961 61.7571 47.7344C61.846 48.0728 62.1923 48.2759 62.5307 48.1883Z" fill="#59ADF3"/>
<path d="M68.232 46.8003C68.6235 46.6981 68.857 46.2987 68.7549 45.9072C68.6527 45.5157 68.2532 45.2822 67.8618 45.3843C67.4703 45.4865 67.2368 45.886 67.3389 46.2774C67.4411 46.6689 67.8405 46.9024 68.232 46.8003Z" fill="#59ADF3"/>
<path d="M73.9221 45.3961C74.3561 45.2819 74.6162 44.8387 74.5034 44.4035C74.3892 43.9695 73.946 43.7094 73.5108 43.8222C73.0768 43.9363 72.8167 44.3796 72.9295 44.8148C73.0436 45.2488 73.4869 45.5089 73.9221 45.3961Z" fill="#59ADF3"/>
<path d="M79.6116 43.9601C80.072 43.8393 80.3481 43.3682 80.2273 42.9078C80.1065 42.4473 79.6355 42.1713 79.175 42.292C78.7145 42.4128 78.4385 42.8839 78.5592 43.3444C78.68 43.8048 79.1511 44.0808 79.6116 43.9601Z" fill="#59ADF3"/>
<path d="M85.2992 42.5243C85.7863 42.3969 86.0769 41.8993 85.9495 41.4136C85.8221 40.9266 85.3244 40.636 84.8388 40.7634C84.3517 40.8907 84.0611 41.3884 84.1885 41.8754C84.3159 42.3624 84.8136 42.653 85.2992 42.5256V42.5243Z" fill="#59ADF3"/>
<path d="M90.9771 41.0577C91.4721 40.9277 91.7693 40.4221 91.6393 39.9271C91.5092 39.4321 91.0036 39.1349 90.5086 39.2649C90.0137 39.395 89.7164 39.9006 89.8465 40.3969C89.9765 40.8918 90.4821 41.1891 90.9771 41.059V41.0577Z" fill="#59ADF3"/>
<path d="M96.6435 39.5595C97.1305 39.4321 97.4211 38.9344 97.2937 38.4487C97.1663 37.9617 96.6687 37.6711 96.183 37.7985C95.696 37.9259 95.4054 38.4235 95.5328 38.9105C95.6602 39.3976 96.1578 39.6882 96.6448 39.5608L96.6435 39.5595Z" fill="#59ADF3"/>
<path d="M102.293 37.982C102.727 37.8679 102.987 37.4247 102.874 36.9894C102.76 36.5555 102.316 36.2954 101.881 36.4082C101.447 36.5223 101.187 36.9655 101.3 37.4008C101.414 37.8347 101.857 38.0948 102.293 37.982Z" fill="#59ADF3"/>
<path d="M107.783 35.7912C107.827 35.7792 107.852 35.7355 107.842 35.6917C107.83 35.6479 107.786 35.6227 107.742 35.6333C107.698 35.6452 107.673 35.689 107.684 35.7328C107.696 35.7766 107.74 35.8018 107.783 35.7912Z" fill="#59ADF3"/>
<path d="M32.6558 61.4347C32.6728 61.4308 32.6833 61.4125 32.6794 61.3955C32.6754 61.3785 32.6571 61.368 32.6401 61.3719C32.6231 61.3758 32.6126 61.3942 32.6165 61.4112C32.6205 61.4282 32.6388 61.4387 32.6558 61.4347Z" fill="#59ADF3"/>
<path d="M38.3692 60.1101C38.474 60.0835 38.5364 59.976 38.5085 59.8725C38.482 59.7677 38.3745 59.7053 38.271 59.7332C38.1661 59.7611 38.1038 59.8672 38.1316 59.9721C38.1595 60.0769 38.2657 60.1393 38.3692 60.1114V60.1101Z" fill="#59ADF3"/>
<path d="M44.0821 58.7842C44.2732 58.7337 44.3873 58.5387 44.3382 58.3476C44.2891 58.1565 44.0927 58.0424 43.9017 58.0915C43.7106 58.1419 43.5964 58.337 43.6455 58.5281C43.696 58.7191 43.891 58.8333 44.0821 58.7842Z" fill="#59ADF3"/>
<path d="M49.7893 57.412C50.0414 57.3456 50.1927 57.0882 50.1264 56.8361C50.06 56.5839 49.8026 56.4327 49.5504 56.499C49.2983 56.5654 49.147 56.8228 49.2134 57.0749C49.2797 57.3271 49.5372 57.4783 49.7893 57.412Z" fill="#59ADF3"/>
<path d="M55.4732 55.9766C55.7519 55.9036 55.9177 55.6196 55.8448 55.3409C55.7718 55.0622 55.4878 54.8964 55.2091 54.9694C54.9318 55.0423 54.7646 55.3263 54.8376 55.605C54.9105 55.8837 55.1945 56.0495 55.4732 55.9766Z" fill="#59ADF3"/>
<path d="M61.1904 54.6507C61.5553 54.5552 61.7742 54.1823 61.6787 53.8174C61.5832 53.4525 61.2103 53.2335 60.8453 53.329C60.4804 53.4246 60.2614 53.7975 60.357 54.1624C60.4525 54.5273 60.8254 54.7463 61.1904 54.6507Z" fill="#59ADF3"/>
<path d="M66.9159 53.3732C67.3936 53.2485 67.6802 52.7602 67.5555 52.2811C67.4308 51.8034 66.9424 51.5168 66.4634 51.6415C65.9856 51.7662 65.699 52.2546 65.8237 52.7336C65.9485 53.2113 66.4368 53.498 66.9159 53.3732Z" fill="#59ADF3"/>
<path d="M72.6211 52.0003C73.1599 51.8596 73.4824 51.3089 73.3417 50.7701C73.201 50.2314 72.6503 49.9089 72.1116 50.0496C71.5728 50.1902 71.2503 50.7409 71.391 51.2797C71.5317 51.8185 72.0824 52.1409 72.6211 52.0003Z" fill="#59ADF3"/>
<path d="M78.3112 50.5971C78.8938 50.4445 79.2428 49.85 79.0902 49.2675C78.9376 48.6849 78.3431 48.3372 77.7605 48.4885C77.1779 48.6411 76.8303 49.2356 76.9815 49.8182C77.1342 50.4007 77.7286 50.7484 78.3112 50.5971Z" fill="#59ADF3"/>
<path d="M84.0007 49.1611C84.6085 49.0018 84.9734 48.3795 84.8142 47.7717C84.6549 47.1639 84.0325 46.799 83.4248 46.9582C82.817 47.1175 82.4521 47.7398 82.6113 48.3476C82.7706 48.9554 83.3929 49.3203 84.0007 49.1611Z" fill="#59ADF3"/>
<path d="M89.6838 47.7091C90.3088 47.5459 90.6844 46.9062 90.5211 46.2799C90.3579 45.6535 89.7183 45.2793 89.0919 45.4425C88.4669 45.6058 88.0914 46.2454 88.2546 46.8717C88.4178 47.4968 89.0574 47.8723 89.6838 47.7091Z" fill="#59ADF3"/>
<path d="M95.3559 46.2266C95.9809 46.0634 96.3565 45.4237 96.1932 44.7974C96.03 44.1724 95.3904 43.7968 94.7641 43.96C94.139 44.1233 93.7635 44.7629 93.9267 45.3892C94.0899 46.0143 94.7296 46.3898 95.3559 46.2266Z" fill="#59ADF3"/>
<path d="M101.027 44.7283C101.644 44.5664 102.013 43.9361 101.853 43.319C101.692 42.702 101.06 42.3331 100.443 42.4936C99.8263 42.6555 99.4574 43.2858 99.618 43.9029C99.7799 44.52 100.41 44.8889 101.027 44.7283Z" fill="#59ADF3"/>
<path d="M106.676 43.1512C107.241 43.0039 107.58 42.4267 107.431 41.8614C107.283 41.2961 106.707 40.9577 106.141 41.1063C105.576 41.2536 105.238 41.8308 105.386 42.3961C105.534 42.9615 106.111 43.2998 106.676 43.1512Z" fill="#59ADF3"/>
<path d="M112.103 40.7238C112.147 40.7119 112.172 40.6681 112.161 40.6243C112.149 40.5805 112.105 40.5553 112.062 40.5659C112.018 40.5778 111.993 40.6216 112.003 40.6654C112.015 40.7092 112.059 40.7344 112.103 40.7238Z" fill="#59ADF3"/>
<path d="M31.3108 67.8986C31.3546 67.8867 31.3798 67.8429 31.3692 67.7991C31.3573 67.7553 31.3135 67.7301 31.2697 67.7407C31.2259 67.7526 31.2007 67.7964 31.2113 67.8402C31.2232 67.884 31.267 67.9092 31.3108 67.8986Z" fill="#59ADF3"/>
<path d="M37.0169 66.5425C37.1297 66.5133 37.1974 66.3978 37.1682 66.285C37.139 66.1722 37.0236 66.1045 36.9108 66.1337C36.798 66.1629 36.7303 66.2784 36.7595 66.3912C36.7887 66.504 36.9041 66.5717 37.0169 66.5425Z" fill="#59ADF3"/>
<path d="M42.6833 65.0115C42.7695 64.9889 42.8226 64.9 42.8 64.8124C42.7775 64.7261 42.6886 64.6731 42.601 64.6956C42.5147 64.7182 42.4616 64.8071 42.4842 64.8947C42.5068 64.9809 42.5957 65.034 42.6833 65.0115Z" fill="#59ADF3"/>
<path d="M48.3317 63.4339C48.3662 63.4246 48.3874 63.3888 48.3781 63.3543C48.3688 63.3198 48.333 63.2986 48.2985 63.3078C48.264 63.3171 48.2428 63.353 48.2521 63.3875C48.2614 63.422 48.2972 63.4432 48.3317 63.4339Z" fill="#59ADF3"/>
<path d="M65.353 58.9857C65.3875 58.9764 65.4088 58.9406 65.3995 58.9061C65.3902 58.8716 65.3544 58.8503 65.3199 58.8596C65.2854 58.8689 65.2641 58.9047 65.2734 58.9392C65.2827 58.9737 65.3185 58.995 65.353 58.9857Z" fill="#59ADF3"/>
<path d="M71.1696 58.0545C71.508 57.9656 71.711 57.6192 71.6235 57.2808C71.5345 56.9425 71.1882 56.7394 70.8498 56.827C70.5114 56.9159 70.3084 57.2623 70.396 57.6006C70.4849 57.939 70.8312 58.1421 71.1696 58.0545Z" fill="#59ADF3"/>
<path d="M77.0063 57.1852C77.6844 57.0087 78.0905 56.3147 77.9127 55.6366C77.7362 54.9585 77.0421 54.5524 76.364 54.7303C75.6859 54.9068 75.2799 55.6008 75.4577 56.2776C75.6342 56.9557 76.3282 57.3617 77.005 57.1839L77.0063 57.1852Z" fill="#59ADF3"/>
<path d="M82.7001 55.7798C83.422 55.5914 83.8532 54.8535 83.6648 54.133C83.4764 53.4111 82.7385 52.9798 82.018 53.1682C81.2961 53.3567 80.8648 54.0945 81.0532 54.8151C81.2417 55.5369 81.9795 55.9682 82.7001 55.7798Z" fill="#59ADF3"/>
<path d="M88.389 54.3452C89.1361 54.1502 89.5833 53.3858 89.3882 52.6387C89.1931 51.8916 88.4288 51.4444 87.6817 51.6395C86.9346 51.8345 86.4874 52.5989 86.6824 53.346C86.8775 54.0931 87.6419 54.5403 88.389 54.3452Z" fill="#59ADF3"/>
<path d="M94.0669 52.8778C94.8233 52.68 95.2758 51.9077 95.0781 51.1513C94.8804 50.3949 94.108 49.9424 93.3516 50.1401C92.5952 50.3379 92.1427 51.1102 92.3405 51.8666C92.5382 52.623 93.3105 53.0755 94.0669 52.8778Z" fill="#59ADF3"/>
<path d="M99.7332 51.3794C100.48 51.1843 100.928 50.42 100.732 49.6729C100.537 48.9258 99.773 48.4786 99.0259 48.6736C98.2788 48.8687 97.8316 49.6331 98.0267 50.3802C98.2217 51.1273 98.9861 51.5745 99.7332 51.3794Z" fill="#59ADF3"/>
<path d="M105.399 49.8655C106.129 49.6744 106.565 48.9286 106.375 48.1988C106.184 47.4689 105.439 47.0323 104.709 47.2221C103.979 47.4132 103.542 48.159 103.732 48.8888C103.923 49.6187 104.669 50.0553 105.399 49.8655Z" fill="#59ADF3"/>
<path d="M111.007 48.1305C111.598 47.9766 111.952 47.3715 111.798 46.781C111.644 46.1905 111.039 45.8361 110.448 45.9901C109.858 46.144 109.504 46.7491 109.657 47.3396C109.811 47.9302 110.416 48.2845 111.007 48.1305Z" fill="#59ADF3"/>
<path d="M116.405 45.5932C116.414 45.5906 116.418 45.5827 116.417 45.5735C116.414 45.5644 116.406 45.5605 116.397 45.5618C116.388 45.5644 116.383 45.5722 116.385 45.5814C116.388 45.5906 116.396 45.5945 116.405 45.5932Z" fill="#59ADF3"/>
<path d="M29.945 74.2658C29.962 74.2619 29.9724 74.2435 29.9685 74.2265C29.9646 74.2095 29.9463 74.199 29.9292 74.203C29.9122 74.2069 29.9018 74.2252 29.907 74.2422C29.9109 74.2593 29.9292 74.2697 29.9463 74.2658H29.945Z" fill="#59ADF3"/>
<path d="M35.6178 72.7834C35.6349 72.7794 35.6453 72.7611 35.6414 72.7441C35.6375 72.7271 35.6192 72.7166 35.6021 72.7206C35.5851 72.7245 35.5747 72.7428 35.5786 72.7598C35.5825 72.7768 35.6008 72.7873 35.6178 72.7834Z" fill="#59ADF3"/>
<path d="M75.4144 62.7033C75.5975 62.6556 75.7063 62.4685 75.6585 62.2867C75.6108 62.1035 75.4237 61.9947 75.2419 62.0425C75.0587 62.0903 74.9499 62.2774 74.9977 62.4592C75.0455 62.6423 75.2326 62.7511 75.4144 62.7033Z" fill="#59ADF3"/>
<path d="M81.3954 62.3843C82.2208 62.168 82.7158 61.324 82.4995 60.4986C82.2832 59.6732 81.4392 59.1782 80.6138 59.3945C79.7884 59.6108 79.2934 60.4548 79.5097 61.2802C79.726 62.1056 80.57 62.6006 81.3954 62.3843Z" fill="#59ADF3"/>
<path d="M87.0847 60.9642C87.9446 60.74 88.4595 59.8602 88.2352 58.9989C88.011 58.139 87.1311 57.6241 86.2699 57.8484C85.41 58.0727 84.8951 58.9525 85.1194 59.8137C85.3437 60.6736 86.2235 61.1885 87.0847 60.9642Z" fill="#59ADF3"/>
<path d="M92.7728 59.5299C93.6593 59.2976 94.1901 58.3913 93.9578 57.5062C93.7269 56.6197 92.8193 56.0889 91.9341 56.3211C91.0477 56.5534 90.5169 57.4597 90.7491 58.3448C90.9813 59.2313 91.8877 59.7621 92.7728 59.5299Z" fill="#59ADF3"/>
<path d="M98.4449 58.0465C99.3314 57.8142 99.8622 56.9079 99.63 56.0228C99.3977 55.1363 98.4914 54.6055 97.6063 54.8377C96.7198 55.07 96.189 55.9763 96.4212 56.8614C96.6535 57.7479 97.5598 58.2787 98.4449 58.0465Z" fill="#59ADF3"/>
<path d="M104.11 56.5319C104.98 56.305 105.5 55.4159 105.273 54.5467C105.046 53.6775 104.157 53.1573 103.289 53.3842C102.42 53.6112 101.9 54.5002 102.127 55.3694C102.353 56.2386 103.243 56.7588 104.112 56.5319H104.11Z" fill="#59ADF3"/>
<path d="M109.772 55.0025C110.615 54.7822 111.12 53.921 110.9 53.077C110.68 52.2344 109.818 51.7288 108.974 51.949C108.132 52.1693 107.626 53.0306 107.847 53.8745C108.067 54.7172 108.929 55.2228 109.772 55.0025Z" fill="#59ADF3"/>
<path d="M115.244 52.7329C115.653 52.6268 115.897 52.2088 115.791 51.8001C115.685 51.3913 115.267 51.1472 114.858 51.2533C114.449 51.3595 114.205 51.7775 114.311 52.1862C114.417 52.5949 114.835 52.8391 115.244 52.7329Z" fill="#59ADF3"/>
<path d="M79.8387 68.03C80.2381 67.9251 80.4783 67.5164 80.3735 67.117C80.2686 66.7176 79.8599 66.4774 79.4605 66.5822C79.0611 66.687 78.8209 67.0958 78.9257 67.4952C79.0305 67.8946 79.4393 68.1348 79.8387 68.03Z" fill="#59ADF3"/>
<path d="M85.7844 67.5853C86.7571 67.3305 87.341 66.3352 87.0862 65.3625C86.8314 64.3898 85.8362 63.8059 84.8635 64.0607C83.8908 64.3155 83.3069 65.3108 83.5617 66.2835C83.8165 67.2562 84.8117 67.84 85.7844 67.5853Z" fill="#59ADF3"/>
<path d="M91.4734 66.1488C92.4727 65.8874 93.0712 64.8656 92.8097 63.8664C92.5483 62.8671 91.5265 62.2687 90.5273 62.5301C89.528 62.7915 88.9295 63.8133 89.191 64.8125C89.4524 65.8118 90.4742 66.4103 91.4734 66.1488Z" fill="#59ADF3"/>
<path d="M97.1566 64.6987C98.1731 64.4333 98.7822 63.3929 98.5168 62.3764C98.2514 61.3599 97.211 60.7508 96.1946 61.0163C95.1781 61.2817 94.569 62.322 94.8344 63.3385C95.0998 64.355 96.1401 64.9641 97.1566 64.6987Z" fill="#59ADF3"/>
<path d="M102.823 63.1989C103.832 62.9362 104.434 61.9051 104.171 60.8966C103.907 59.888 102.877 59.2843 101.869 59.5483C100.86 59.8124 100.258 60.8422 100.521 61.8507C100.785 62.8592 101.814 63.4617 102.823 63.1989Z" fill="#59ADF3"/>
<path d="M108.49 61.6852C109.481 61.4264 110.074 60.4139 109.814 59.4226C109.555 58.4314 108.543 57.8382 107.551 58.0983C106.56 58.3571 105.967 59.3696 106.227 60.3608C106.486 61.3521 107.498 61.9453 108.49 61.6852Z" fill="#59ADF3"/>
<path d="M114.143 60.1229C115.09 59.876 115.657 58.9073 115.41 57.9598C115.163 57.0124 114.194 56.4457 113.247 56.6925C112.299 56.9407 111.733 57.9081 111.98 58.8556C112.226 59.8031 113.195 60.3697 114.143 60.1229Z" fill="#59ADF3"/>
<path d="M119.383 56.9728C119.41 56.9661 119.424 56.9396 119.418 56.913C119.411 56.8865 119.384 56.8719 119.358 56.8785C119.331 56.8852 119.317 56.9117 119.323 56.9383C119.33 56.9648 119.357 56.9794 119.383 56.9728Z" fill="#59ADF3"/>
<path d="M78.3225 73.8148C78.3743 73.8016 78.4061 73.7485 78.3928 73.6954C78.3796 73.6437 78.3265 73.6118 78.2734 73.6251C78.2217 73.6384 78.1898 73.6914 78.2031 73.7445C78.2164 73.7963 78.2694 73.8281 78.3225 73.8148Z" fill="#59ADF3"/>
<path d="M84.4667 74.1256C85.5098 73.8535 86.1335 72.7866 85.8614 71.7436C85.5894 70.7006 84.5225 70.0769 83.4794 70.3489C82.4364 70.6209 81.8127 71.6879 82.0847 72.7309C82.3568 73.7739 83.4237 74.3976 84.4667 74.1256Z" fill="#59ADF3"/>
<path d="M90.1736 72.7853C91.2949 72.4921 91.9664 71.3469 91.6731 70.2255C91.3798 69.1042 90.2333 68.4327 89.1133 68.726C87.9933 69.0193 87.3205 70.1658 87.6138 71.2858C87.907 72.4071 89.0536 73.0786 90.1736 72.7853Z" fill="#59ADF3"/>
<path d="M95.8625 71.3498C97.0091 71.0499 97.6965 69.8768 97.3966 68.7303C97.0967 67.5838 95.9236 66.8964 94.7771 67.1963C93.6305 67.4962 92.9431 68.6693 93.243 69.8158C93.5429 70.9623 94.716 71.6497 95.8625 71.3498Z" fill="#59ADF3"/>
<path d="M101.535 69.8664C102.681 69.5665 103.369 68.3934 103.069 67.2469C102.769 66.1004 101.596 65.413 100.449 65.7129C99.3026 66.0128 98.6152 67.1859 98.9151 68.3324C99.2151 69.4789 100.388 70.1663 101.535 69.8664Z" fill="#59ADF3"/>
<path d="M107.2 68.3525C108.329 68.0579 109.006 66.9021 108.712 65.7728C108.416 64.6435 107.261 63.9667 106.132 64.2613C105.003 64.5572 104.326 65.7117 104.62 66.841C104.915 67.9703 106.071 68.6471 107.2 68.3525Z" fill="#59ADF3"/>
<path d="M112.86 66.8073C113.954 66.5206 114.61 65.402 114.325 64.3072C114.038 63.2124 112.919 62.5568 111.825 62.8421C110.73 63.1288 110.074 64.2474 110.36 65.3422C110.646 66.437 111.765 67.0926 112.86 66.8073Z" fill="#59ADF3"/>
<path d="M118.218 64.1121C118.644 64.0006 118.899 63.5654 118.787 63.1394C118.676 62.7134 118.24 62.4587 117.814 62.5701C117.388 62.6816 117.134 63.1168 117.245 63.5428C117.357 63.9688 117.792 64.2236 118.218 64.1121Z" fill="#59ADF3"/>
<path d="M76.965 80.2318C77.0167 80.2186 77.0486 80.1655 77.0353 80.1124C77.022 80.0607 76.969 80.0288 76.9159 80.0421C76.8641 80.0553 76.8323 80.1084 76.8455 80.1615C76.8588 80.2133 76.9119 80.2451 76.965 80.2318Z" fill="#59ADF3"/>
<path d="M83.0973 80.4946C84.1138 80.2292 84.7229 79.1888 84.4575 78.1723C84.1921 77.1558 83.1517 76.5467 82.1352 76.8122C81.1187 77.0776 80.5096 78.1179 80.775 79.1344C81.0404 80.1509 82.0808 80.76 83.0973 80.4946Z" fill="#59ADF3"/>
<path d="M88.8686 79.3904C90.0934 79.0705 90.8272 77.8178 90.5074 76.5917C90.1876 75.3669 88.9349 74.633 87.7088 74.9528C86.4839 75.2726 85.7501 76.5253 86.0699 77.7515C86.3897 78.9777 87.6424 79.7102 88.8686 79.3904Z" fill="#59ADF3"/>
<path d="M94.5584 77.9685C95.819 77.6394 96.5728 76.3509 96.2437 75.0916C95.9146 73.8309 94.626 73.0772 93.3654 73.4063C92.1047 73.7354 91.351 75.0239 91.6801 76.2846C92.0092 77.5452 93.2977 78.299 94.557 77.9699L94.5584 77.9685Z" fill="#59ADF3"/>
<path d="M100.246 76.5344C101.532 76.1987 102.303 74.8836 101.966 73.5978C101.63 72.3119 100.315 71.5409 99.0295 71.878C97.7437 72.2137 96.9727 73.5288 97.3097 74.8146C97.6454 76.1005 98.9605 76.8715 100.246 76.5344Z" fill="#59ADF3"/>
<path d="M105.918 75.035C107.196 74.7006 107.96 73.3948 107.626 72.1182C107.291 70.8403 105.985 70.076 104.709 70.409C103.431 70.7435 102.667 72.0492 103.001 73.3258C103.335 74.6037 104.641 75.3681 105.918 75.0337V75.035Z" fill="#59ADF3"/>
<path d="M111.574 73.4902C112.816 73.1651 113.56 71.8951 113.235 70.6517C112.91 69.4097 111.64 68.6652 110.396 68.9903C109.154 69.3154 108.41 70.5854 108.735 71.8288C109.06 73.0709 110.33 73.8153 111.574 73.4902Z" fill="#59ADF3"/>
<path d="M117.016 71.1099C117.763 70.9148 118.21 70.1505 118.015 69.4034C117.82 68.6562 117.056 68.209 116.309 68.4041C115.562 68.5992 115.115 69.3635 115.31 70.1107C115.505 70.8578 116.269 71.305 117.016 71.1099Z" fill="#59ADF3"/>
<path d="M75.7002 86.9764C75.9351 86.9153 76.0757 86.6751 76.0134 86.4403C75.9523 86.2054 75.7121 86.0647 75.4773 86.1271C75.2424 86.1881 75.1017 86.4283 75.1641 86.6632C75.2251 86.8981 75.4653 87.0387 75.7002 86.9764Z" fill="#59ADF3"/>
<path d="M81.8032 87.1467C82.9498 86.8468 83.6372 85.6737 83.3373 84.5272C83.0374 83.3806 81.8643 82.6932 80.7177 82.9931C79.5712 83.2931 78.8838 84.4661 79.1837 85.6127C79.4836 86.7592 80.6567 87.4466 81.8032 87.1467Z" fill="#59ADF3"/>
<path d="M87.5503 85.9471C88.8534 85.6061 89.6337 84.2738 89.2939 82.9707C88.9529 81.6675 87.6206 80.8872 86.3175 81.227C85.0143 81.568 84.234 82.9003 84.5738 84.2035C84.9148 85.5066 86.2471 86.2869 87.5503 85.9471Z" fill="#59ADF3"/>
<path d="M93.2573 84.574C94.6215 84.217 95.4389 82.8223 95.0819 81.4582C94.725 80.094 93.3303 79.2766 91.9661 79.6335C90.6019 79.9905 89.7845 81.3852 90.1415 82.7494C90.4984 84.1135 91.8931 84.931 93.2573 84.574Z" fill="#59ADF3"/>
<path d="M98.9475 83.1699C100.355 82.8023 101.198 81.3625 100.831 79.9545C100.463 78.5466 99.0231 77.7039 97.6152 78.0715C96.2072 78.4391 95.3646 79.8789 95.7321 81.2868C96.0997 82.6948 97.5395 83.5375 98.9475 83.1699Z" fill="#59ADF3"/>
<path d="M104.625 81.7028C106.041 81.3326 106.891 79.8848 106.52 78.4676C106.15 77.0517 104.702 76.2037 103.285 76.5726C101.869 76.9429 101.02 78.3906 101.39 79.8079C101.76 81.2238 103.208 82.0718 104.625 81.7028Z" fill="#59ADF3"/>
<path d="M110.291 80.1727C111.681 79.8091 112.513 78.3879 112.15 76.9972C111.786 75.6065 110.365 74.7745 108.974 75.1381C107.583 75.5017 106.751 76.9229 107.115 78.3136C107.479 79.7043 108.9 80.5363 110.291 80.1727Z" fill="#59ADF3"/>
<path d="M115.757 77.8885C116.704 77.6403 117.271 76.673 117.024 75.7255C116.777 74.778 115.809 74.2113 114.861 74.4582C113.914 74.705 113.347 75.6737 113.594 76.6212C113.841 77.5687 114.809 78.1353 115.757 77.8885Z" fill="#59ADF3"/>
<path d="M120.986 74.7055C120.993 74.7029 120.999 74.695 120.997 74.6859C120.995 74.6767 120.987 74.6728 120.978 74.6741C120.97 74.6767 120.965 74.6845 120.966 74.6937C120.969 74.7029 120.976 74.7068 120.986 74.7055Z" fill="#59ADF3"/>
<path d="M68.5885 94.561C68.6496 94.5451 68.6854 94.4827 68.6695 94.4216C68.6536 94.3606 68.5912 94.3248 68.5302 94.3407C68.4691 94.3566 68.4333 94.419 68.4492 94.48C68.4651 94.5411 68.5275 94.5769 68.5885 94.561Z" fill="#59ADF3"/>
<path d="M74.5811 94.3045C75.3202 94.112 75.7621 93.3556 75.5684 92.6178C75.376 91.8787 74.6196 91.4368 73.8817 91.6305C73.1426 91.8229 72.7007 92.5793 72.8944 93.3172C73.0869 94.0563 73.8433 94.4982 74.5811 94.3045Z" fill="#59ADF3"/>
<path d="M80.4987 93.7503C81.75 93.4238 82.4998 92.1433 82.172 90.8919C81.8456 89.6405 80.565 88.8908 79.3137 89.2185C78.0623 89.545 77.3125 90.8255 77.6403 92.0756C77.9667 93.327 79.2473 94.0767 80.4987 93.749V93.7503Z" fill="#59ADF3"/>
<path d="M86.2218 92.4555C87.578 92.1012 88.3888 90.7158 88.0345 89.3596C87.6802 88.0047 86.2948 87.1926 84.9386 87.5469C83.5837 87.9012 82.7716 89.2866 83.1259 90.6428C83.4802 91.999 84.8656 92.8098 86.2218 92.4555Z" fill="#59ADF3"/>
<path d="M91.9408 91.1463C93.3925 90.7667 94.2604 89.2831 93.8822 87.8327C93.5027 86.381 92.0191 85.5131 90.5673 85.8913C89.1156 86.2708 88.2477 87.7544 88.6259 89.2062C89.0054 90.6579 90.489 91.5258 91.9395 91.1476L91.9408 91.1463Z" fill="#59ADF3"/>
<path d="M97.6468 89.7895C99.1675 89.3927 100.078 87.8374 99.6811 86.3167C99.2843 84.7959 97.7291 83.8856 96.2083 84.2824C94.6875 84.6792 93.7772 86.2344 94.174 87.7552C94.5708 89.2759 96.126 90.1863 97.6468 89.7895Z" fill="#59ADF3"/>
<path d="M103.336 88.3545C104.884 87.9498 105.81 86.3693 105.405 84.822C105 83.2747 103.42 82.3484 101.873 82.7532C100.325 83.1579 99.399 84.7384 99.8037 86.2857C100.208 87.833 101.789 88.7592 103.336 88.3545Z" fill="#59ADF3"/>
<path d="M109.003 86.8561C110.541 86.4541 111.462 84.8815 111.06 83.3435C110.657 81.8055 109.085 80.8846 107.547 81.2867C106.009 81.6888 105.088 83.2613 105.49 84.7993C105.892 86.3373 107.465 87.2582 109.003 86.8561Z" fill="#59ADF3"/>
<path d="M114.393 84.2722C115.324 84.0294 115.88 83.0779 115.637 82.149C115.394 81.2188 114.442 80.6627 113.513 80.9056C112.583 81.1484 112.027 82.0999 112.27 83.0288C112.513 83.959 113.463 84.5151 114.393 84.2722Z" fill="#59ADF3"/>
<path d="M61.5397 102.378C61.5567 102.374 61.5672 102.356 61.5633 102.339C61.5594 102.322 61.541 102.311 61.524 102.315C61.507 102.319 61.4965 102.338 61.5005 102.355C61.5044 102.372 61.5227 102.382 61.5397 102.378Z" fill="#59ADF3"/>
<path d="M67.4571 101.826C67.9866 101.688 68.305 101.145 68.1657 100.615C68.0277 100.086 67.4849 99.7674 66.9555 99.9068C66.426 100.045 66.1075 100.588 66.2468 101.117C66.3849 101.646 66.9276 101.965 67.4571 101.826Z" fill="#59ADF3"/>
<path d="M73.4082 101.397C74.5202 101.107 75.1864 99.9695 74.8958 98.8575C74.6051 97.7454 73.4679 97.0793 72.3559 97.3699C71.2438 97.6605 70.5777 98.7977 70.8683 99.9098C71.1589 101.022 72.2961 101.688 73.4082 101.397Z" fill="#59ADF3"/>
<path d="M79.1514 100.181C80.412 99.8523 81.1658 98.5638 80.8367 97.3045C80.5076 96.0438 79.2191 95.2901 77.9584 95.6192C76.6977 95.9483 75.944 97.2368 76.2731 98.4975C76.6022 99.7581 77.8907 100.512 79.1501 100.183L79.1514 100.181Z" fill="#59ADF3"/>
<path d="M84.8811 98.9188C86.2625 98.5578 87.0905 97.1446 86.7296 95.7632C86.3686 94.3817 84.9554 93.5537 83.5739 93.9146C82.1925 94.2756 81.3645 95.6888 81.7254 97.0703C82.0864 98.4517 83.4996 99.2797 84.8811 98.9188Z" fill="#59ADF3"/>
<path d="M90.6057 97.6401C92.0999 97.25 92.9956 95.7213 92.6041 94.2271C92.214 92.7329 90.6853 91.8371 89.1911 92.2286C87.6968 92.6187 86.8011 94.1474 87.1926 95.6417C87.5827 97.1359 89.1114 98.0316 90.6057 97.6401Z" fill="#59ADF3"/>
<path d="M96.3245 96.3311C97.9143 95.9158 98.8671 94.2902 98.4517 92.6991C98.0364 91.1093 96.4108 90.1566 94.8197 90.5719C93.23 90.9873 92.2772 92.6129 92.6925 94.2039C93.1079 95.7937 94.7335 96.7465 96.3245 96.3311Z" fill="#59ADF3"/>
<path d="M102.036 94.9751C103.696 94.5411 104.69 92.8439 104.256 91.1851C103.822 89.525 102.125 88.5311 100.466 88.965C98.8057 89.399 97.8117 91.0962 98.2457 92.755C98.6796 94.4151 100.377 95.409 102.036 94.9751Z" fill="#59ADF3"/>
<path d="M107.713 93.5071C109.381 93.0705 110.38 91.3653 109.945 89.6972C109.508 88.0292 107.803 87.0299 106.135 87.4652C104.467 87.9018 103.468 89.607 103.903 91.275C104.34 92.9431 106.045 93.9423 107.713 93.5071Z" fill="#59ADF3"/>
<path d="M112.914 90.2142C113.583 90.0391 113.984 89.3557 113.808 88.6855C113.633 88.0167 112.95 87.6159 112.28 87.7911C111.611 87.9663 111.21 88.6497 111.385 89.3198C111.561 89.9886 112.244 90.3894 112.914 90.2142Z" fill="#59ADF3"/>
<path d="M60.3063 109.268C60.585 109.195 60.7508 108.911 60.6778 108.632C60.6049 108.353 60.3209 108.187 60.0422 108.26C59.7635 108.333 59.5977 108.617 59.6706 108.896C59.7436 109.175 60.0276 109.341 60.3063 109.268Z" fill="#59ADF3"/>
<path d="M66.286 108.949C67.207 108.709 67.759 107.767 67.5175 106.846C67.2773 105.925 66.3351 105.373 65.4142 105.614C64.4932 105.855 63.9412 106.797 64.1827 107.718C64.4229 108.639 65.3651 109.191 66.286 108.949Z" fill="#59ADF3"/>
<path d="M72.0454 107.796C73.1494 107.508 73.8103 106.379 73.521 105.276C73.233 104.172 72.1037 103.511 71.001 103.8C69.8969 104.088 69.2361 105.218 69.5254 106.32C69.8133 107.424 70.9426 108.085 72.0454 107.796Z" fill="#59ADF3"/>
<path d="M77.7819 106.55C79.016 106.227 79.7551 104.965 79.4327 103.731C79.1102 102.497 77.8482 101.758 76.6141 102.08C75.38 102.403 74.6408 103.665 74.9633 104.899C75.2857 106.133 76.5477 106.872 77.7819 106.55Z" fill="#59ADF3"/>
<path d="M83.5174 105.303C84.8816 104.946 85.699 103.551 85.3421 102.187C84.9851 100.823 83.5904 100.005 82.2262 100.362C80.8621 100.719 80.0446 102.114 80.4016 103.478C80.7586 104.842 82.1533 105.659 83.5174 105.303Z" fill="#59ADF3"/>
<path d="M89.2531 104.056C90.7473 103.666 91.6431 102.137 91.2516 100.643C90.8615 99.1489 89.3327 98.2531 87.8385 98.6446C86.3443 99.0347 85.4486 100.563 85.84 102.058C86.2302 103.552 87.7589 104.448 89.2531 104.056Z" fill="#59ADF3"/>
<path d="M94.9839 102.793C96.6002 102.371 97.5676 100.718 97.1456 99.1014C96.7236 97.4851 95.0701 96.5177 93.4538 96.9397C91.8375 97.3617 90.8701 99.0152 91.2921 100.631C91.7141 102.248 93.3676 103.215 94.9839 102.793Z" fill="#59ADF3"/>
<path d="M100.713 101.515C102.442 101.063 103.477 99.2952 103.026 97.5661C102.573 95.837 100.806 94.802 99.0766 95.2531C97.3475 95.7057 96.3125 97.4732 96.7636 99.2023C97.2161 100.931 98.9837 101.966 100.713 101.515Z" fill="#59ADF3"/>
<path d="M106.291 99.6547C107.811 99.2579 108.722 97.7027 108.325 96.1819C107.928 94.6612 106.373 93.7508 104.852 94.1476C103.331 94.5444 102.421 96.0997 102.818 97.6204C103.215 99.1412 104.77 100.051 106.291 99.6547Z" fill="#59ADF3"/>
<path d="M111.34 95.7961C111.548 95.7417 111.673 95.5281 111.618 95.3197C111.564 95.1114 111.35 94.9867 111.142 95.0411C110.934 95.0955 110.809 95.3091 110.863 95.5175C110.918 95.7258 111.131 95.8505 111.34 95.7961Z" fill="#59ADF3"/>
<path d="M59.0632 116.108C59.5755 115.974 59.8833 115.449 59.7493 114.937C59.6153 114.425 59.0911 114.117 58.5789 114.251C58.0667 114.385 57.7588 114.909 57.8928 115.422C58.0269 115.934 58.551 116.242 59.0632 116.108Z" fill="#59ADF3"/>
<path d="M64.9271 115.348C65.8401 115.109 66.3855 114.176 66.1479 113.265C65.9091 112.352 64.9762 111.806 64.0645 112.044C63.1515 112.283 62.6061 113.216 62.8437 114.127C63.0825 115.04 64.0154 115.586 64.9271 115.348Z" fill="#59ADF3"/>
<path d="M70.6641 114.102C71.7071 113.83 72.3308 112.763 72.0588 111.72C71.7868 110.677 70.7198 110.053 69.6768 110.325C68.6338 110.597 68.0101 111.664 68.2821 112.707C68.5542 113.75 69.6211 114.374 70.6641 114.102Z" fill="#59ADF3"/>
<path d="M76.3997 112.855C77.5728 112.548 78.2748 111.349 77.9682 110.176C77.6617 109.002 76.4621 108.301 75.289 108.607C74.1159 108.914 73.4139 110.113 73.7204 111.286C74.027 112.459 75.2266 113.161 76.3997 112.855Z" fill="#59ADF3"/>
<path d="M82.1405 111.624C83.4529 111.282 84.2385 109.94 83.8962 108.628C83.5538 107.316 82.2122 106.53 80.8998 106.874C79.5874 107.216 78.8018 108.558 79.1441 109.87C79.4865 111.182 80.8281 111.968 82.1405 111.626V111.624Z" fill="#59ADF3"/>
<path d="M87.8776 110.377C89.32 110 90.1839 108.525 89.807 107.082C89.4302 105.64 87.9545 104.776 86.5121 105.153C85.0696 105.53 84.2057 107.005 84.5826 108.448C84.9595 109.89 86.4351 110.754 87.8776 110.377Z" fill="#59ADF3"/>
<path d="M93.6083 109.131C95.1808 108.72 96.1229 107.111 95.7116 105.539C95.3002 103.966 93.6919 103.024 92.1193 103.435C90.5468 103.847 89.6047 105.455 90.016 107.028C90.4274 108.6 92.0357 109.542 93.6083 109.131Z" fill="#59ADF3"/>
<path d="M99.3246 107.789C100.975 107.358 101.964 105.67 101.533 104.019C101.101 102.368 99.4135 101.38 97.7627 101.811C96.1119 102.242 95.1233 103.93 95.5546 105.581C95.9858 107.232 97.6738 108.221 99.3246 107.789Z" fill="#59ADF3"/>
<path d="M104.582 104.718C105.356 104.516 105.819 103.725 105.617 102.952C105.415 102.178 104.625 101.715 103.851 101.918C103.077 102.12 102.614 102.91 102.817 103.684C103.019 104.458 103.81 104.921 104.583 104.719L104.582 104.718Z" fill="#59ADF3"/>
<path d="M109.893 101.849C109.902 101.846 109.906 101.839 109.905 101.829C109.902 101.82 109.894 101.816 109.885 101.818C109.876 101.82 109.872 101.828 109.873 101.837C109.876 101.846 109.884 101.852 109.893 101.849Z" fill="#59ADF3"/>
<path d="M57.6882 122.429C58.1487 122.308 58.4247 121.837 58.304 121.377C58.1832 120.916 57.7121 120.64 57.2516 120.761C56.7912 120.882 56.5151 121.353 56.6359 121.813C56.7567 122.274 57.2278 122.55 57.6882 122.429Z" fill="#59ADF3"/>
<path d="M63.5352 121.622C64.3699 121.405 64.8688 120.552 64.6512 119.717C64.4336 118.882 63.5803 118.383 62.7456 118.601C61.9109 118.818 61.412 119.672 61.6296 120.506C61.8472 121.341 62.7005 121.84 63.5352 121.622Z" fill="#59ADF3"/>
<path d="M69.2709 120.376C70.2356 120.124 70.8129 119.138 70.5607 118.173C70.3086 117.208 69.3226 116.631 68.3579 116.883C67.3932 117.135 66.8159 118.121 67.0681 119.086C67.3202 120.051 68.3062 120.628 69.2709 120.376Z" fill="#59ADF3"/>
<path d="M75.0059 119.129C76.1007 118.842 76.7563 117.723 76.471 116.628C76.1843 115.534 75.0656 114.878 73.9709 115.163C72.8761 115.45 72.2205 116.569 72.5058 117.664C72.7925 118.758 73.9111 119.414 75.0059 119.129Z" fill="#59ADF3"/>
<path d="M80.7429 117.883C81.9678 117.563 82.7016 116.31 82.3818 115.084C82.062 113.859 80.8093 113.125 79.5831 113.445C78.3583 113.765 77.6245 115.018 77.9443 116.244C78.2641 117.469 79.5168 118.202 80.7429 117.883Z" fill="#59ADF3"/>
<path d="M86.4786 116.635C87.8335 116.281 88.6456 114.896 88.2913 113.539C87.937 112.183 86.5516 111.372 85.1954 111.727C83.8392 112.081 83.0284 113.468 83.3827 114.823C83.737 116.179 85.1224 116.99 86.4786 116.635Z" fill="#59ADF3"/>
<path d="M92.2138 115.39C93.7 115.001 94.5891 113.482 94.2016 111.997C93.8128 110.51 92.2934 109.621 90.8085 110.009C89.3222 110.398 88.4331 111.917 88.8206 113.402C89.2094 114.888 90.7288 115.777 92.2138 115.39Z" fill="#59ADF3"/>
<path d="M97.6701 113.056C98.6866 112.791 99.2957 111.75 99.0303 110.734C98.7649 109.717 97.7245 109.108 96.708 109.374C95.6915 109.639 95.0824 110.679 95.3478 111.696C95.6132 112.712 96.6536 113.322 97.6701 113.056Z" fill="#59ADF3"/>
<path d="M102.894 109.858C102.963 109.839 103.005 109.769 102.986 109.699C102.968 109.63 102.898 109.587 102.827 109.606C102.758 109.625 102.716 109.695 102.734 109.765C102.753 109.834 102.823 109.877 102.894 109.858Z" fill="#59ADF3"/>
<path d="M56.1888 128.294C56.3454 128.252 56.4383 128.093 56.3985 127.937C56.3573 127.78 56.1981 127.687 56.0415 127.727C55.8849 127.768 55.792 127.927 55.8318 128.084C55.873 128.241 56.0322 128.333 56.1888 128.294Z" fill="#59ADF3"/>
<path d="M62.1412 127.88C62.8883 127.685 63.3355 126.921 63.1404 126.174C62.9453 125.427 62.181 124.98 61.4339 125.175C60.6868 125.37 60.2396 126.134 60.4346 126.881C60.6297 127.628 61.3941 128.075 62.1412 127.88Z" fill="#59ADF3"/>
<path d="M67.8763 126.635C68.7535 126.405 69.279 125.508 69.0507 124.631C68.8212 123.754 67.9241 123.228 67.0469 123.457C66.1698 123.686 65.6443 124.583 65.8725 125.46C66.1021 126.338 66.9992 126.863 67.8763 126.635Z" fill="#59ADF3"/>
<path d="M73.6081 125.371C74.6073 125.11 75.2058 124.088 74.9444 123.089C74.683 122.09 73.6612 121.491 72.6619 121.753C71.6627 122.014 71.0642 123.036 71.3256 124.035C71.587 125.034 72.6088 125.633 73.6081 125.371Z" fill="#59ADF3"/>
<path d="M79.3431 124.125C80.4724 123.83 81.1492 122.675 80.8546 121.545C80.56 120.416 79.4042 119.739 78.2749 120.034C77.1456 120.328 76.4688 121.484 76.7634 122.613C77.058 123.743 78.2138 124.42 79.3431 124.125Z" fill="#59ADF3"/>
<path d="M85.0748 122.862C86.3262 122.535 87.076 121.255 86.7482 120.003C86.4218 118.752 85.1412 118.002 83.8898 118.33C82.6385 118.656 81.8887 119.937 82.2165 121.187C82.5429 122.438 83.8235 123.188 85.0748 122.86V122.862Z" fill="#59ADF3"/>
<path d="M90.7804 121.506C92.1008 121.161 92.8917 119.81 92.5466 118.49C92.2016 117.169 90.8507 116.378 89.5303 116.723C88.21 117.068 87.4191 118.419 87.7641 119.74C88.1091 121.06 89.46 121.851 90.7804 121.506Z" fill="#59ADF3"/>
<path d="M95.9847 118.214C96.3058 118.13 96.4983 117.801 96.4147 117.48C96.331 117.159 96.002 116.966 95.6808 117.05C95.3597 117.133 95.1673 117.463 95.2509 117.784C95.3345 118.105 95.6636 118.297 95.9847 118.214Z" fill="#59ADF3"/>
<path d="M60.6435 133.746C61.0867 133.631 61.3521 133.177 61.2367 132.733C61.1212 132.29 60.6674 132.025 60.2242 132.14C59.781 132.256 59.5156 132.71 59.631 133.153C59.7465 133.596 60.2003 133.861 60.6435 133.746Z" fill="#59ADF3"/>
<path d="M66.4739 132.86C67.2475 132.659 67.7106 131.868 67.5076 131.094C67.3059 130.321 66.515 129.857 65.7413 130.06C64.9677 130.262 64.5046 131.053 64.7063 131.827C64.908 132.6 65.6989 133.063 66.4725 132.862L66.4739 132.86Z" fill="#59ADF3"/>
<path d="M72.2024 131.597C73.0968 131.363 73.6329 130.448 73.3994 129.553C73.1658 128.659 72.2502 128.123 71.3558 128.356C70.4614 128.59 69.9253 129.506 70.1588 130.4C70.3924 131.294 71.308 131.831 72.2024 131.597Z" fill="#59ADF3"/>
<path d="M77.9385 130.335C78.955 130.07 79.5641 129.03 79.2987 128.013C79.0333 126.997 77.9929 126.388 76.9764 126.653C75.9599 126.918 75.3508 127.959 75.6162 128.975C75.8816 129.992 76.922 130.601 77.9385 130.335Z" fill="#59ADF3"/>
<path d="M83.6626 129.058C84.7918 128.762 85.4686 127.607 85.174 126.478C84.8794 125.349 83.7236 124.672 82.5943 124.966C81.465 125.261 80.7883 126.417 81.0829 127.546C81.3775 128.675 82.5333 129.352 83.6626 129.058Z" fill="#59ADF3"/>
<path d="M89.3816 127.732C90.5985 127.414 91.327 126.17 91.0085 124.954C90.69 123.737 89.4466 123.008 88.2297 123.327C87.0129 123.645 86.2843 124.889 86.6028 126.105C86.9213 127.322 88.1647 128.051 89.3816 127.732Z" fill="#59ADF3"/>
<path d="M94.5449 124.297C94.6842 124.262 94.7665 124.12 94.7307 123.98C94.6948 123.841 94.5529 123.759 94.4135 123.795C94.2742 123.83 94.1919 123.972 94.2277 124.112C94.2636 124.251 94.4056 124.333 94.5449 124.297Z" fill="#59ADF3"/>
<path d="M59.0927 139.405C59.1192 139.399 59.1338 139.372 59.1272 139.346C59.1205 139.319 59.094 139.305 59.0675 139.311C59.0409 139.318 59.0263 139.344 59.033 139.371C59.0396 139.397 59.0661 139.412 59.0927 139.405Z" fill="#59ADF3"/>
<path d="M65.0622 139.055C65.7138 138.885 66.1039 138.219 65.9341 137.566C65.7642 136.914 65.0967 136.524 64.4452 136.694C63.7936 136.864 63.4035 137.531 63.5733 138.183C63.7432 138.835 64.4093 139.225 65.0622 139.055Z" fill="#59ADF3"/>
<path d="M70.7978 137.809C71.5794 137.605 72.0479 136.805 71.8435 136.023C71.6391 135.242 70.8389 134.773 70.0573 134.978C69.2757 135.182 68.8073 135.982 69.0116 136.764C69.216 137.545 70.0162 138.014 70.7978 137.809Z" fill="#59ADF3"/>
<path d="M76.5269 136.532C77.4213 136.298 77.9574 135.382 77.7238 134.488C77.4903 133.594 76.5746 133.057 75.6802 133.291C74.7858 133.525 74.2497 134.44 74.4833 135.335C74.7168 136.229 75.6325 136.765 76.5269 136.532Z" fill="#59ADF3"/>
<path d="M82.247 135.238C83.2462 134.976 83.8447 133.954 83.5833 132.955C83.3219 131.956 82.3001 131.358 81.3008 131.619C80.3016 131.88 79.7031 132.902 79.9645 133.901C80.2259 134.901 81.2477 135.499 82.247 135.238Z" fill="#59ADF3"/>
<path d="M87.9708 133.943C89.0748 133.655 89.7357 132.525 89.4464 131.423C89.1584 130.318 88.0292 129.658 86.9264 129.947C85.8223 130.235 85.1615 131.364 85.4508 132.467C85.7387 133.571 86.868 134.232 87.9708 133.943Z" fill="#59ADF3"/>
<path d="M93.3275 131.232C93.7535 131.121 94.0082 130.685 93.8968 130.26C93.7853 129.834 93.35 129.579 92.9241 129.69C92.4981 129.802 92.2433 130.237 92.3548 130.663C92.4663 131.089 92.9015 131.344 93.3275 131.232Z" fill="#59ADF3"/>
<path d="M63.5002 144.684C63.7178 144.627 63.8479 144.405 63.7908 144.188C63.7338 143.97 63.5122 143.84 63.2945 143.897C63.0769 143.954 62.9468 144.176 63.0039 144.394C63.061 144.611 63.2826 144.741 63.5002 144.684Z" fill="#59ADF3"/>
<path d="M69.3825 144.003C70.0433 143.831 70.4388 143.155 70.2663 142.495C70.0938 141.834 69.4183 141.438 68.7575 141.611C68.0966 141.783 67.7012 142.459 67.8737 143.12C68.0462 143.78 68.7216 144.176 69.3825 144.003Z" fill="#59ADF3"/>
<path d="M75.1108 142.71C75.8751 142.509 76.3329 141.728 76.1339 140.963C75.9335 140.199 75.1519 139.741 74.3875 139.94C73.6232 140.14 73.1654 140.922 73.3644 141.686C73.5648 142.451 74.3464 142.909 75.1108 142.71Z" fill="#59ADF3"/>
<path d="M80.8295 141.416C81.6987 141.189 82.2189 140.3 81.992 139.43C81.7651 138.561 80.876 138.041 80.0081 138.268C79.1389 138.495 78.6187 139.384 78.8457 140.253C79.0726 141.122 79.9617 141.643 80.8309 141.416H80.8295Z" fill="#59ADF3"/>
<path d="M86.5546 140.122C87.5273 139.868 88.1112 138.872 87.8564 137.9C87.6016 136.927 86.6063 136.343 85.6336 136.598C84.6609 136.853 84.077 137.848 84.3318 138.821C84.5866 139.793 85.5819 140.377 86.5546 140.122Z" fill="#59ADF3"/>
<path d="M92.1854 138.482C93.0719 138.25 93.6027 137.343 93.3704 136.458C93.1395 135.572 92.2332 135.041 91.3467 135.273C90.4603 135.506 89.9295 136.412 90.1617 137.297C90.3939 138.183 91.3003 138.714 92.1854 138.482Z" fill="#59ADF3"/>
<path d="M97.448 135.41C97.4571 135.407 97.4611 135.399 97.4598 135.39C97.4571 135.381 97.4493 135.377 97.4401 135.378C97.431 135.381 97.427 135.389 97.4283 135.398C97.431 135.407 97.4388 135.412 97.448 135.41Z" fill="#59ADF3"/>
<path d="M67.8308 149.649C68.0656 149.588 68.2063 149.348 68.1453 149.113C68.0842 148.878 67.844 148.738 67.6092 148.8C67.3743 148.861 67.2336 149.101 67.2946 149.336C67.3557 149.571 67.5959 149.712 67.8308 149.649Z" fill="#59ADF3"/>
<path d="M73.5487 148.339C73.8792 148.253 74.0769 147.916 73.9906 147.585C73.9044 147.255 73.5673 147.057 73.2369 147.143C72.9065 147.23 72.7087 147.567 72.795 147.897C72.8813 148.227 73.2183 148.425 73.5487 148.339Z" fill="#59ADF3"/>
<path d="M79.2386 146.919C79.6035 146.824 79.8225 146.451 79.7269 146.086C79.6314 145.721 79.2585 145.502 78.8936 145.598C78.5286 145.693 78.3097 146.066 78.4052 146.431C78.5008 146.796 78.8737 147.015 79.2386 146.919Z" fill="#59ADF3"/>
<path d="M84.9159 145.451C85.2902 145.353 85.5131 144.971 85.4162 144.598C85.318 144.224 84.9358 144.001 84.563 144.098C84.1887 144.196 83.9658 144.578 84.0627 144.951C84.1609 145.325 84.5417 145.548 84.9159 145.451Z" fill="#59ADF3"/>
<path d="M90.5418 143.78C90.8112 143.71 90.9731 143.434 90.9028 143.165C90.8325 142.895 90.5564 142.733 90.2871 142.805C90.0177 142.875 89.8558 143.151 89.9261 143.421C89.9964 143.69 90.2725 143.852 90.5418 143.78Z" fill="#59ADF3"/>
<path d="M96.1022 141.857C96.1287 141.85 96.1433 141.823 96.1367 141.797C96.1301 141.77 96.1035 141.756 96.077 141.762C96.0504 141.769 96.0359 141.796 96.0425 141.822C96.0491 141.849 96.0757 141.863 96.1022 141.857Z" fill="#59ADF3"/>
<path d="M76.3639 159.105C76.373 159.102 76.3783 159.094 76.3757 159.085C76.373 159.076 76.3652 159.072 76.356 159.073C76.3469 159.076 76.3429 159.084 76.3442 159.093C76.3469 159.102 76.3547 159.106 76.3639 159.105Z" fill="#59ADF3"/>
<path d="M82.0414 157.637C82.0584 157.633 82.0689 157.615 82.065 157.598C82.0611 157.581 82.0427 157.57 82.0257 157.574C82.0087 157.578 81.9982 157.596 82.0022 157.613C82.0061 157.63 82.0244 157.641 82.0414 157.637Z" fill="#59ADF3"/>
<path d="M69.3467 167.05C69.3812 167.041 69.4024 167.005 69.3931 166.971C69.3839 166.936 69.348 166.915 69.3135 166.924C69.279 166.933 69.2578 166.969 69.2671 167.004C69.2764 167.038 69.3122 167.059 69.3467 167.05Z" fill="#59ADF3"/>
<path d="M75.1062 165.898C75.3238 165.841 75.4538 165.619 75.3968 165.402C75.3397 165.184 75.1181 165.054 74.9005 165.111C74.6828 165.168 74.5528 165.39 74.6099 165.607C74.6669 165.825 74.8885 165.955 75.1062 165.898Z" fill="#59ADF3"/>
<path d="M80.847 164.667C81.2027 164.574 81.4163 164.209 81.3234 163.854C81.2305 163.498 80.8656 163.284 80.51 163.377C80.1543 163.47 79.9407 163.835 80.0336 164.191C80.1265 164.546 80.4914 164.76 80.847 164.667Z" fill="#59ADF3"/>
<path d="M86.5492 163.295C86.9659 163.186 87.2167 162.76 87.1065 162.342C86.9977 161.925 86.5704 161.675 86.1537 161.785C85.737 161.894 85.4862 162.321 85.5964 162.738C85.7052 163.154 86.1312 163.405 86.5492 163.295Z" fill="#59ADF3"/>
<path d="M92.1844 161.654C92.5148 161.568 92.7125 161.231 92.6263 160.901C92.54 160.57 92.2029 160.372 91.8725 160.459C91.5421 160.545 91.3444 160.882 91.4306 161.212C91.5169 161.543 91.8539 161.741 92.1844 161.654Z" fill="#59ADF3"/>
<path d="M97.7233 159.667C97.775 159.654 97.8069 159.601 97.7936 159.548C97.7803 159.496 97.7273 159.464 97.6742 159.478C97.6224 159.491 97.5906 159.544 97.6038 159.597C97.6171 159.649 97.6702 159.681 97.7233 159.667Z" fill="#59ADF3"/>
<path d="M67.9945 173.482C68.0383 173.47 68.0635 173.426 68.0529 173.382C68.041 173.338 67.9972 173.313 67.9534 173.324C67.9096 173.336 67.8844 173.379 67.895 173.423C67.9069 173.467 67.9507 173.492 67.9945 173.482Z" fill="#59ADF3"/>
<path d="M73.7351 172.234C73.9089 172.189 74.0124 172.011 73.9673 171.838C73.9222 171.664 73.7444 171.56 73.5706 171.605C73.3967 171.65 73.2932 171.828 73.3383 172.002C73.3834 172.176 73.5613 172.279 73.7351 172.234Z" fill="#59ADF3"/>
<path d="M79.4485 170.909C79.7086 170.841 79.8652 170.574 79.7975 170.313C79.7298 170.053 79.4631 169.896 79.2017 169.964C78.9416 170.032 78.785 170.298 78.8527 170.56C78.9204 170.82 79.1871 170.977 79.4485 170.909Z" fill="#59ADF3"/>
<path d="M85.1598 169.568C85.4982 169.479 85.7013 169.133 85.6137 168.795C85.5248 168.456 85.1784 168.253 84.84 168.341C84.5017 168.43 84.2986 168.776 84.3862 169.114C84.4751 169.453 84.8215 169.656 85.1598 169.568Z" fill="#59ADF3"/>
<path d="M90.8674 168.211C91.2761 168.105 91.5203 167.687 91.4141 167.279C91.3079 166.87 90.8899 166.626 90.4812 166.732C90.0725 166.838 89.8283 167.256 89.9345 167.665C90.0406 168.073 90.4586 168.318 90.8674 168.211Z" fill="#59ADF3"/>
<path d="M96.5637 166.823C97.0242 166.703 97.3002 166.232 97.1794 165.771C97.0587 165.311 96.5876 165.035 96.1271 165.155C95.6667 165.276 95.3906 165.747 95.5114 166.208C95.6322 166.668 96.1032 166.944 96.5637 166.823Z" fill="#59ADF3"/>
<path d="M102.094 164.79C102.251 164.749 102.343 164.589 102.304 164.433C102.262 164.276 102.103 164.183 101.947 164.223C101.79 164.264 101.697 164.423 101.737 164.58C101.778 164.737 101.937 164.83 102.094 164.79Z" fill="#59ADF3"/>
<path d="M72.3136 178.399C72.3481 178.389 72.3694 178.354 72.3601 178.319C72.3508 178.285 72.3149 178.263 72.2804 178.273C72.2459 178.282 72.2247 178.318 72.234 178.352C72.2433 178.387 72.2791 178.408 72.3136 178.399Z" fill="#59ADF3"/>
<path d="M78.025 177.057C78.1378 177.028 78.2054 176.912 78.1762 176.8C78.147 176.687 78.0316 176.619 77.9188 176.648C77.806 176.678 77.7383 176.793 77.7675 176.906C77.7967 177.019 77.9122 177.086 78.025 177.057Z" fill="#59ADF3"/>
<path d="M83.7328 175.717C83.9239 175.666 84.038 175.471 83.9889 175.28C83.9384 175.089 83.7434 174.975 83.5523 175.024C83.3612 175.075 83.2471 175.27 83.2962 175.461C83.3466 175.652 83.5417 175.766 83.7328 175.717Z" fill="#59ADF3"/>
<path d="M89.4402 174.359C89.7003 174.291 89.8569 174.025 89.7892 173.763C89.7215 173.503 89.4548 173.347 89.1934 173.414C88.9333 173.482 88.7767 173.749 88.8444 174.01C88.9121 174.271 89.1788 174.427 89.4402 174.359Z" fill="#59ADF3"/>
<path d="M95.1406 172.987C95.4617 172.903 95.6541 172.574 95.5705 172.253C95.4869 171.932 95.1578 171.74 94.8367 171.823C94.5156 171.907 94.3231 172.236 94.4067 172.557C94.4903 172.878 94.8194 173.071 95.1406 172.987Z" fill="#59ADF3"/>
<path d="M100.841 171.599C101.216 171.501 101.439 171.12 101.342 170.746C101.245 170.371 100.861 170.148 100.488 170.245C100.114 170.343 99.8912 170.726 99.9881 171.099C100.086 171.473 100.467 171.696 100.841 171.599Z" fill="#59ADF3"/>
<path d="M106.386 169.612C106.481 169.587 106.538 169.489 106.513 169.393C106.488 169.298 106.39 169.241 106.294 169.266C106.199 169.291 106.142 169.389 106.167 169.485C106.192 169.58 106.29 169.637 106.386 169.612Z" fill="#59ADF3"/>
<path d="M76.6206 183.285C76.6298 183.282 76.6337 183.274 76.6324 183.265C76.6297 183.257 76.6219 183.252 76.6127 183.253C76.6036 183.256 76.5996 183.264 76.601 183.273C76.6036 183.282 76.6114 183.286 76.6206 183.285Z" fill="#59ADF3"/>
<path d="M82.3106 181.864C82.3544 181.852 82.3796 181.809 82.369 181.765C82.357 181.721 82.3132 181.696 82.2694 181.707C82.2256 181.718 82.2004 181.762 82.211 181.806C82.223 181.85 82.2668 181.875 82.3106 181.864Z" fill="#59ADF3"/>
<path d="M88.0167 180.507C88.1295 180.478 88.1971 180.363 88.1679 180.25C88.1387 180.137 88.0233 180.069 87.9105 180.099C87.7977 180.128 87.73 180.243 87.7592 180.356C87.7884 180.469 87.9039 180.536 88.0167 180.507Z" fill="#59ADF3"/>
<path d="M93.7179 179.119C93.8824 179.077 93.982 178.907 93.9382 178.742C93.8957 178.578 93.7259 178.478 93.5613 178.522C93.3968 178.565 93.2972 178.734 93.341 178.899C93.3848 179.063 93.5533 179.163 93.7179 179.119Z" fill="#59ADF3"/>
<path d="M99.4191 177.747C99.6447 177.689 99.78 177.457 99.7216 177.231C99.6632 177.006 99.431 176.87 99.2054 176.929C98.9798 176.987 98.8445 177.219 98.9029 177.445C98.9612 177.67 99.1935 177.806 99.4191 177.747Z" fill="#59ADF3"/>
<path d="M105.091 176.248C105.309 176.191 105.439 175.969 105.382 175.751C105.324 175.534 105.103 175.404 104.885 175.461C104.668 175.518 104.538 175.739 104.595 175.957C104.652 176.175 104.873 176.305 105.091 176.248Z" fill="#59ADF3"/>
<path d="M92.2961 185.283C92.3226 185.277 92.3372 185.25 92.3306 185.224C92.3239 185.197 92.2974 185.182 92.2708 185.189C92.2443 185.196 92.2297 185.222 92.2363 185.249C92.243 185.275 92.2695 185.29 92.2961 185.283Z" fill="#59ADF3"/>
<path d="M97.9969 183.894C98.0752 183.874 98.1216 183.793 98.1017 183.715C98.0818 183.637 98.0008 183.59 97.9226 183.61C97.8443 183.63 97.7978 183.711 97.8177 183.789C97.8376 183.868 97.9186 183.914 97.9969 183.894Z" fill="#59ADF3"/>
<path d="M103.691 182.49C103.813 182.458 103.886 182.333 103.854 182.213C103.822 182.091 103.698 182.018 103.577 182.049C103.455 182.081 103.382 182.206 103.414 182.327C103.446 182.448 103.57 182.522 103.691 182.49Z" fill="#59ADF3"/>
<path d="M109.317 180.835C109.344 180.828 109.359 180.802 109.352 180.775C109.345 180.749 109.319 180.734 109.292 180.741C109.266 180.747 109.251 180.774 109.258 180.801C109.264 180.827 109.291 180.842 109.317 180.835Z" fill="#59ADF3"/>
<path d="M102.281 188.701C102.29 188.698 102.294 188.691 102.293 188.681C102.29 188.672 102.282 188.667 102.273 188.67C102.264 188.672 102.26 188.68 102.261 188.689C102.264 188.698 102.272 188.702 102.281 188.701Z" fill="#59ADF3"/>
<path d="M107.953 187.218C107.962 187.215 107.966 187.207 107.965 187.198C107.962 187.189 107.954 187.184 107.945 187.186C107.936 187.189 107.932 187.197 107.933 187.206C107.936 187.215 107.944 187.219 107.953 187.218Z" fill="#59ADF3"/>
<path d="M24.8362 30.0121C42.0741 63.1861 34.2911 52.2807 60.6496 46.8506C85.4939 41.7469 96.4563 60.9209 85.6784 76.0263C76.1133 89.4331 61.0105 90.8211 51.4574 103.019C46.1984 109.734 47.7616 115.959 48.5512 136.639C102.462 141.922 59.5959 130.249 94.1447 109.143C173.253 60.8572 95.7345 -18.4663 24.8362 30.0121Z" fill="#59ADF3"/>
<path d="M41.7149 165.817C39.2174 191.304 78.5434 194.944 81.021 169.668C83.4905 144.467 44.2043 140.408 41.7149 165.817Z" fill="#59ADF3"/>
<path d="M18.1116 35.1111C38.5024 66.4458 29.6937 56.3526 55.3966 48.3772C79.6252 40.8743 92.4057 58.8885 83.1524 74.9732C74.9409 89.2492 60.0452 92.1023 51.7274 105.175C47.1492 112.37 49.3123 118.413 52.1136 138.918C106.282 138.918 62.4816 131.481 94.8089 107.107C168.83 51.3365 83.9446 -20.0488 18.1116 35.1111Z" fill="#117ED8"/>
<path d="M48.1506 168.623C48.1506 194.232 87.6452 194.019 87.6452 168.623C87.6452 143.227 48.1506 143.093 48.1506 168.623Z" fill="#117ED8"/>
<path d="M133.113 97.4665C131.009 97.4665 129.299 95.756 129.299 93.6527C129.299 91.5494 131.011 89.8389 133.113 89.8389C135.215 89.8389 136.926 91.5494 136.926 93.6527C136.926 95.756 135.216 97.4665 133.113 97.4665ZM133.113 90.8169C131.548 90.8169 130.276 92.0895 130.276 93.6527C130.276 95.2159 131.548 96.4885 133.113 96.4885C134.677 96.4885 135.948 95.2159 135.948 93.6527C135.948 92.0895 134.676 90.8169 133.113 90.8169Z" fill="#AAD6F8"/>
<path d="M6.76909 56.8292C3.03753 56.8292 0 53.793 0 50.0601C0 46.3272 3.0362 43.291 6.76909 43.291C10.502 43.291 13.5382 46.3272 13.5382 50.0601C13.5382 53.793 10.502 56.8292 6.76909 56.8292ZM6.76909 44.269C3.5763 44.269 0.978008 46.8673 0.978008 50.0601C0.978008 53.2529 3.5763 55.8512 6.76909 55.8512C9.96188 55.8512 12.5615 53.2529 12.5615 50.0601C12.5615 46.8673 9.96321 44.269 6.76909 44.269Z" fill="#AAD6F8"/>
<path d="M21.1749 103.008C20.2951 103.008 19.5785 102.292 19.5785 101.412C19.5785 100.532 20.2951 99.8154 21.1749 99.8154C22.0547 99.8154 22.7713 100.532 22.7713 101.412C22.7713 102.292 22.0547 103.008 21.1749 103.008ZM21.1749 100.792C20.8325 100.792 20.5552 101.069 20.5552 101.412C20.5552 101.754 20.8325 102.032 21.1749 102.032C21.5173 102.032 21.7946 101.754 21.7946 101.412C21.7946 101.069 21.5173 100.792 21.1749 100.792Z" fill="#AAD6F8"/>
<path d="M132.929 148.448C129.91 148.448 127.453 145.992 127.453 142.971C127.453 139.951 129.91 137.496 132.929 137.496C135.948 137.496 138.406 139.952 138.406 142.971C138.406 145.99 135.948 148.448 132.929 148.448ZM132.929 138.473C130.449 138.473 128.431 140.491 128.431 142.971C128.431 145.452 130.449 147.47 132.929 147.47C135.409 147.47 137.428 145.452 137.428 142.971C137.428 140.491 135.409 138.473 132.929 138.473Z" fill="#AAD6F8"/>
<path d="M106.144 165.071C104.245 165.071 102.701 163.526 102.701 161.628C102.701 159.729 104.247 158.183 106.144 158.183C108.042 158.183 109.588 159.729 109.588 161.628C109.588 163.526 108.042 165.071 106.144 165.071ZM106.144 159.161C104.784 159.161 103.677 160.267 103.677 161.628C103.677 162.988 104.784 164.094 106.144 164.094C107.504 164.094 108.611 162.988 108.611 161.628C108.611 160.267 107.504 159.161 106.144 159.161Z" fill="#AAD6F8"/>
<path d="M13.6035 172.275C11.3994 172.275 9.60657 170.481 9.60657 168.277C9.60657 166.072 11.4007 164.278 13.6035 164.278C15.8064 164.278 17.6018 166.072 17.6018 168.277C17.6018 170.481 15.8077 172.275 13.6035 172.275ZM13.6035 165.255C11.9381 165.255 10.5832 166.61 10.5832 168.277C10.5832 169.943 11.9381 171.297 13.6035 171.297C15.2689 171.297 16.6251 169.942 16.6251 168.277C16.6251 166.611 15.2703 165.255 13.6035 165.255Z" fill="#AAD6F8"/>
<path d="M64.3955 7.697C62.2922 7.697 60.5817 5.98648 60.5817 3.88317C60.5817 1.77985 62.2935 0.0693359 64.3955 0.0693359C66.4975 0.0693359 68.2093 1.77985 68.2093 3.88317C68.2093 5.98648 66.4988 7.697 64.3955 7.697ZM64.3955 1.04734C62.8323 1.04734 61.5597 2.31995 61.5597 3.88317C61.5597 5.44639 62.8323 6.71899 64.3955 6.71899C65.9587 6.71899 67.2313 5.44639 67.2313 3.88317C67.2313 2.31995 65.9587 1.04734 64.3955 1.04734Z" fill="#AAD6F8"/>
<path d="M128.676 56.9924C128.179 56.9924 127.743 56.6288 127.668 56.1219C121.463 14.6063 77.8078 11.8515 77.3672 11.8289C76.8046 11.7997 76.3706 11.3193 76.3998 10.7567C76.429 10.194 76.92 9.75214 77.4721 9.78929C77.9285 9.81318 123.231 12.6331 129.687 55.8207C129.771 56.378 129.386 56.8982 128.829 56.9818C128.778 56.9898 128.727 56.9938 128.677 56.9938L128.676 56.9924Z" fill="#117ED8"/>
<path d="M81.8577 61.1488C81.5113 61.1488 81.1743 60.9723 80.9818 60.6551C70.6802 43.5765 41.5258 60.6909 41.2338 60.8661C40.7482 61.1527 40.1218 60.9948 39.8339 60.5118C39.5459 60.0274 39.7038 59.4011 40.1882 59.1118C41.4581 58.3554 71.3942 40.799 82.7308 59.6001C83.0215 60.0832 82.8662 60.7108 82.3832 61.0015C82.2186 61.101 82.0368 61.1488 81.8577 61.1488Z" fill="#117ED8"/>
<path d="M24.6869 63.7298C25.6052 63.7298 26.3497 62.9854 26.3497 62.067C26.3497 61.1487 25.6052 60.4043 24.6869 60.4043C23.7686 60.4043 23.0242 61.1487 23.0242 62.067C23.0242 62.9854 23.7686 63.7298 24.6869 63.7298Z" fill="#117ED8"/>
<path d="M113.903 125.424C113.903 127.668 112.083 129.487 109.839 129.487C107.595 129.487 105.776 127.668 105.776 125.424C105.776 123.18 107.595 121.36 109.839 121.36C112.083 121.36 113.903 123.18 113.903 125.424Z" fill="#117ED8"/>
<path d="M21.8039 14.7338C23.4099 14.0798 24.1815 12.2477 23.5275 10.6418C22.8734 9.03584 21.0413 8.2642 19.4354 8.91826C17.8295 9.57232 17.0578 11.4044 17.7119 13.0103C18.3659 14.6163 20.198 15.3879 21.8039 14.7338Z" fill="#117ED8"/>
<path d="M52.2093 86.8185C52.2093 88.7573 50.6382 90.3285 48.6994 90.3285C46.7606 90.3285 45.1895 88.7573 45.1895 86.8185C45.1895 84.8798 46.7606 83.3086 48.6994 83.3086C50.6382 83.3086 52.2093 84.8798 52.2093 86.8185Z" fill="#117ED8"/>
<path d="M44.0796 139.462C44.0796 141.91 42.0944 143.895 39.6461 143.895C37.1977 143.895 35.2125 141.91 35.2125 139.462C35.2125 137.014 37.1977 135.028 39.6461 135.028C42.0944 135.028 44.0796 137.014 44.0796 139.462Z" fill="#59ADF3"/>
</svg>
