<svg width="48" height="48" viewBox="0 0 48 48" fill="none" xmlns="http://www.w3.org/2000/svg">
<g clip-path="url(#clip0_30377_34474)">
<mask id="mask0_30377_34474" style="mask-type:luminance" maskUnits="userSpaceOnUse" x="0" y="0" width="48" height="48">
<path d="M42 0H6C2.68629 0 0 2.68629 0 6V42C0 45.3137 2.68629 48 6 48H42C45.3137 48 48 45.3137 48 42V6C48 2.68629 45.3137 0 42 0Z" fill="white"/>
</mask>
<g mask="url(#mask0_30377_34474)">
<path fill-rule="evenodd" clip-rule="evenodd" d="M10.2932 41.1643C10.2932 40.2831 11.0129 39.5707 11.8942 39.5707H11.9309C12.7902 39.5927 13.4805 40.2978 13.4878 41.1643C13.4878 42.0456 12.7681 42.758 11.8942 42.758C11.0129 42.758 10.2932 42.0456 10.2932 41.1643ZM36.0336 38.5352C35.9822 35.84 34.4474 32.1901 34.1536 31.5291C38.4718 33.2182 41.4939 35.6417 41.4939 47.997C41.4939 54.9664 35.0569 51.1667 24.0043 51.1667C12.9517 51.1667 7.08789 54.9664 7.08789 47.997C7.08789 36.3372 9.36792 33.4606 13.3483 31.7347C12.8269 32.8657 11.4315 36.0823 11.3508 38.5205C10.117 38.7776 9.19167 39.8571 9.19167 41.1643C9.19167 42.6552 10.4034 43.8596 11.8942 43.8596C13.3777 43.8596 14.5894 42.6552 14.5894 41.1643C14.5894 39.8645 13.6714 38.7849 12.4523 38.5205C12.5506 35.9581 14.3401 32.2078 14.5168 31.8374C14.525 31.8203 14.5297 31.8105 14.5307 31.8082C14.6188 31.6393 14.6041 31.441 14.516 31.2868C15.1916 31.0518 15.9113 30.8461 16.6898 30.6772C16.6971 30.6699 16.7118 30.6699 16.7265 30.6699C16.7307 30.6657 16.7325 30.6639 16.7347 30.6631C16.7347 30.6631 16.7381 30.6625 16.7412 30.6625C17.3875 30.523 18.0998 30.4055 18.8489 30.3027C18.8856 29.8327 18.9444 29.2672 19.0251 28.6356C19.0251 28.6209 19.0317 28.6062 19.0382 28.5916C19.0415 28.5842 19.0447 28.5769 19.0472 28.5695C17.3875 27.1889 16.0435 25.4924 16.0435 23.5977V23.2011C14.6041 22.7017 13.6935 20.6528 13.6935 19.3456C13.6935 17.7372 14.9346 17.3774 15.8159 17.2893C15.5986 16.7897 15.2744 16.1117 14.9556 15.4452L14.9419 15.4166C13.9138 13.2648 13.2455 11.8034 13.2308 11.0837C13.2014 9.71769 13.5466 8.4986 14.2002 7.63936C14.8024 6.84622 15.6249 6.3909 16.2712 6.08245C19.6027 4.46806 23.4108 4.31281 26.472 4.18802L26.4792 4.18772C27.7938 4.12897 28.9615 4.12897 30.063 4.73117C31.0471 5.27462 31.877 6.46434 31.8623 7.72749C32.4351 7.83031 32.9859 8.21953 33.3458 8.80705C33.7717 9.51206 33.8892 10.364 33.948 11.113C34.1169 13.0812 33.6395 15.6516 32.4645 17.3333C33.3237 17.4729 34.3078 17.9135 34.3078 19.3456C34.3078 20.6528 33.4045 22.7017 31.9651 23.2011V23.5977C31.9651 25.4998 30.6065 27.2036 28.9394 28.5842C29.0276 29.2378 29.0863 29.818 29.1157 30.3027C29.8721 30.4055 30.5771 30.523 31.2675 30.6625C31.2705 30.6625 31.2748 30.6638 31.2798 30.6653C31.287 30.6674 31.2956 30.6699 31.3042 30.6699C31.4474 30.7029 31.5782 30.736 31.7091 30.769C31.7527 30.7801 31.7962 30.7911 31.8403 30.8021C32.2368 30.8975 32.6187 31.0077 32.9859 31.1179C33.0337 31.1325 33.0832 31.1472 33.1328 31.1619C33.1824 31.1766 33.2319 31.1913 33.2797 31.206C33.0741 31.3529 32.9933 31.6393 33.1034 31.8743C33.1043 31.8769 33.1112 31.8929 33.1234 31.9213C33.3194 32.3759 34.8837 36.0049 34.9321 38.5279C33.3531 39.2402 32.6261 42.9195 32.4865 43.72C32.4058 44.1753 32.5233 44.6454 32.795 44.9685C33.0226 45.2402 33.3237 45.3871 33.6542 45.3871H34.0802C34.3813 45.3871 34.631 45.1374 34.631 44.8363C34.631 44.5278 34.3813 44.2855 34.0802 44.2855H33.6689C33.6322 44.2708 33.5294 44.1239 33.5661 43.911C34.0361 41.2231 35.0128 39.5046 35.4755 39.5046C35.9896 39.5046 36.9957 41.5022 37.2674 43.955C37.2895 44.146 37.2013 44.2708 37.172 44.2855H36.5844C36.2833 44.2855 36.0336 44.5278 36.0336 44.8363C36.0336 45.1374 36.2833 45.3871 36.5844 45.3871H37.172C37.4877 45.3871 37.7888 45.2476 38.0092 44.9979C38.2809 44.6968 38.4131 44.2635 38.3617 43.8302C38.1634 41.9795 37.3629 39.1668 36.0336 38.5352ZM33.2062 19.3456C33.2062 18.7727 33.008 18.4643 31.9651 18.3835V21.9527C32.6481 21.4312 33.2062 20.2342 33.2062 19.3456ZM14.7877 19.3456C14.7877 20.2342 15.3458 21.4312 16.0362 21.9527V18.3835C14.9933 18.4643 14.7877 18.7727 14.7877 19.3456ZM27.9039 32.1754C27.9994 31.7788 28.0508 31.3676 28.0508 30.9416C28.0435 30.5597 27.9994 30.0163 27.926 29.3627C27.3752 29.7519 26.817 30.1044 26.2809 30.4275C25.5759 30.8388 24.7901 31.0444 24.0043 31.0444C23.2185 31.0444 22.4254 30.8388 21.7204 30.4275C21.1769 30.1044 20.6114 29.7372 20.0533 29.3406C19.9799 29.9869 19.9284 30.5597 19.9138 30.9489C19.9064 31.3602 19.9505 31.7641 20.0459 32.1534C20.068 32.1827 20.09 32.2121 20.0974 32.2488L20.2516 32.7409C20.2944 32.8509 20.3473 32.9558 20.402 33.0641C20.413 33.086 20.4241 33.1079 20.4352 33.1301C20.6114 33.4606 20.8391 33.769 21.1035 34.0481C21.4854 34.4373 21.9407 34.7458 22.4254 34.9587C22.4364 34.9624 22.4456 34.9661 22.4548 34.9697C22.4639 34.9734 22.4731 34.9771 22.4841 34.9808C22.6457 35.0469 22.8073 35.1056 22.9762 35.1497C23.079 35.179 23.1818 35.2011 23.292 35.2231C23.3449 35.2363 23.4038 35.2436 23.458 35.2503C23.4639 35.251 23.4698 35.2518 23.4756 35.2525L23.4951 35.2549C23.6644 35.2761 23.8275 35.2965 24.0043 35.2965C24.2393 35.2965 24.4743 35.2672 24.702 35.2231C24.7632 35.2137 24.8215 35.1982 24.8806 35.1825C24.9136 35.1738 24.9468 35.1649 24.9811 35.157C25.1059 35.1276 25.2308 35.0909 25.3483 35.0469C25.3808 35.0338 25.4134 35.0214 25.4458 35.0091C25.523 34.9798 25.599 34.9509 25.6714 34.9147C25.7815 34.8633 25.8844 34.8045 25.9798 34.7458C26.0088 34.7292 26.0378 34.7132 26.0665 34.6974C26.14 34.6569 26.2124 34.617 26.2809 34.5695C26.4572 34.4447 26.6187 34.3125 26.773 34.1582C26.8978 34.0407 27.0227 33.9085 27.1255 33.769C27.1357 33.7639 27.1424 33.7552 27.148 33.7479C27.1504 33.7448 27.1526 33.7419 27.1549 33.7396C27.2411 33.6288 27.3169 33.5076 27.3912 33.3891C27.4055 33.3663 27.4197 33.3436 27.4339 33.321C27.456 33.2843 27.4706 33.2549 27.4853 33.2256C27.5735 33.064 27.6542 32.8951 27.7203 32.7262L27.8672 32.2488C27.872 32.2299 27.8798 32.217 27.8887 32.2024C27.8935 32.1944 27.8987 32.1858 27.9039 32.1754ZM17.3728 36.5524L16.0802 38.2855L22.8366 44.9758L19.2234 33.1448C18.9958 32.6013 18.8636 32.0212 18.8269 31.419C18.1732 31.5144 17.5417 31.6172 16.9762 31.7421C16.3666 31.889 15.8746 32.0212 15.3899 32.1607L15.7938 34.3272L17.3214 35.8327C17.5123 36.0236 17.5417 36.332 17.3728 36.5524ZM21.0888 35.4875L23.997 45.0125L26.8758 35.5169C26.8391 35.5389 26.8023 35.5591 26.7656 35.5793C26.7289 35.5995 26.6922 35.6197 26.6555 35.6417C26.5527 35.7078 26.4498 35.7666 26.3397 35.8253C26.2589 35.8694 26.1781 35.9061 26.0973 35.9428C25.9431 36.0089 25.7889 36.075 25.6273 36.1264C25.6053 36.1338 25.5851 36.1411 25.5649 36.1484C25.5447 36.1558 25.5245 36.1631 25.5025 36.1705C25.2968 36.2366 25.0839 36.2806 24.8636 36.3174C24.8342 36.321 24.8066 36.3265 24.7791 36.332C24.7516 36.3376 24.724 36.3431 24.6946 36.3467C24.467 36.3761 24.2393 36.3981 24.0043 36.3981C23.7767 36.3981 23.549 36.3761 23.3213 36.3394C23.3148 36.3387 23.3082 36.3379 23.3016 36.3372C23.2407 36.3305 23.1746 36.3232 23.1084 36.31C22.9468 36.2806 22.7779 36.2366 22.6163 36.1925C22.4768 36.1558 22.3372 36.1044 22.2051 36.053C22.1169 36.0236 22.0288 35.9869 21.948 35.9502C21.8158 35.8914 21.691 35.8327 21.5661 35.7666L21.5 35.7225C21.3605 35.6491 21.221 35.5756 21.0888 35.4875ZM31.9284 38.2855L30.6359 36.5524C30.467 36.332 30.4963 36.0163 30.702 35.818L32.1487 34.474L32.5894 32.146L32.5012 32.124C32.3176 32.0652 32.134 32.0138 31.9504 31.9624C31.6493 31.8816 31.3482 31.8082 31.0324 31.7421C30.4302 31.6172 29.7987 31.5071 29.1304 31.419C29.0937 32.0285 28.9615 32.616 28.7411 33.1595L25.1573 44.9832L31.9284 38.2855ZM18.2981 13.9625C17.3581 16.2024 17.1451 17.8033 17.1378 17.8694V17.9062V19.0077V23.5977C17.1378 26.0726 20.3617 28.3419 22.2785 29.4728C23.336 30.0971 24.6506 30.1044 25.7154 29.4728C27.6322 28.3419 30.8562 26.0726 30.8562 23.5977V19.0077L30.4156 17.9062C29.4315 16.9 28.0214 14.1534 27.5147 12.3909C24.9076 14.4325 19.8036 14.1094 18.2981 13.9625Z" fill="#9DA4AE"/>
</g>
</g>
<defs>
<clipPath id="clip0_30377_34474">
<rect width="48" height="48" fill="white"/>
</clipPath>
</defs>
</svg>
