<svg width="48" height="48" viewBox="0 0 48 48" fill="none" xmlns="http://www.w3.org/2000/svg">
<g clip-path="url(#clip0_30377_34489)">
<mask id="mask0_30377_34489" style="mask-type:luminance" maskUnits="userSpaceOnUse" x="0" y="0" width="48" height="48">
<path d="M42 0H6C2.68629 0 0 2.68629 0 6V42C0 45.3137 2.68629 48 6 48H42C45.3137 48 48 45.3137 48 42V6C48 2.68629 45.3137 0 42 0Z" fill="white"/>
</mask>
<g mask="url(#mask0_30377_34489)">
<path d="M29.1866 30.1246C29.1866 30.1021 29.1941 30.0871 29.1941 30.072C29.1941 29.6142 29.1341 28.9386 29.0365 28.1129C30.5453 26.8218 31.7463 25.253 31.7463 23.5115V21.6724C33.3677 21.2145 34.3886 18.9476 34.3886 17.4914C34.3886 16.6882 34.1108 16.1777 33.713 15.8475C33.713 15.84 33.7205 15.8325 33.7205 15.8249C33.7205 15.352 33.8406 14.9017 34.0733 14.5113L34.1634 14.3687C34.321 14.121 34.5162 13.8057 34.5462 13.4079C34.5762 13.0326 34.4411 12.7098 34.336 12.4546C34.276 12.312 34.2159 12.1693 34.2009 12.0642C34.1934 11.9817 34.2009 11.8691 34.2084 11.749C34.2309 11.5088 34.2534 11.2085 34.1408 10.9008C33.9982 10.5405 33.728 10.3153 33.5178 10.1276C33.3977 10.03 33.2851 9.93995 33.2326 9.85738C33.15 9.72977 33.135 9.51959 33.1125 9.28689C33.09 9.07671 33.0749 8.85152 32.9999 8.61882C32.7822 7.86068 32.1817 7.40279 31.6487 6.99745C31.386 6.80228 31.1308 6.61462 30.9431 6.39694C30.8606 6.30686 30.7855 6.20928 30.7104 6.11169C30.4702 5.81144 30.2075 5.46615 29.7796 5.27098C29.577 5.1734 29.3743 5.13587 29.1941 5.09833C29.0891 5.07582 28.9765 5.0533 28.8789 5.01576C28.7137 4.95571 28.5486 4.81309 28.3759 4.65546C28.1357 4.46029 27.873 4.2351 27.5277 4.09999C26.7771 3.82225 26.049 4.08497 25.4109 4.32518C24.7879 4.55788 24.3901 4.68548 24.0748 4.52034C24.0072 4.49032 23.9472 4.44528 23.8796 4.40024C23.7595 4.31016 23.6319 4.22759 23.4968 4.16004C22.7011 3.78472 21.943 4.17505 21.335 4.48281C21.0047 4.65546 20.6969 4.81309 20.4117 4.85813C20.179 4.89566 19.8862 4.87314 19.586 4.84312C18.9329 4.79057 18.1222 4.71551 17.5668 5.36856C17.2515 5.74388 17.1839 6.20177 17.1314 6.56958C17.0939 6.83231 17.0563 7.07251 16.9512 7.20763C16.8687 7.30521 16.711 7.39529 16.5459 7.48536C16.2231 7.67302 15.8178 7.90572 15.6451 8.39363C15.5626 8.61882 15.5626 8.83651 15.555 9.00916C15.555 9.09923 15.555 9.18931 15.5475 9.24185C15.51 9.37697 15.3674 9.5271 15.2098 9.68473C15.0746 9.82735 14.932 9.96997 14.8269 10.1351C14.6318 10.4053 14.5717 10.7056 14.5192 10.9458C14.4891 11.0884 14.4591 11.2235 14.4066 11.3211C14.3315 11.4637 14.2564 11.6064 14.1814 11.7415C13.6484 12.7173 12.9879 13.9258 13.791 15.277C13.9036 15.4646 13.9187 15.7574 13.9262 16.0727C13.9337 16.2678 13.9487 16.463 13.9712 16.6431C13.9862 16.7182 14.0087 16.7858 14.0463 16.8458C13.9937 17.041 13.9637 17.2512 13.9637 17.4914C13.9637 18.9476 15.0146 21.2295 16.621 21.6799V23.5115C16.621 25.253 17.8145 26.8218 19.3232 28.1129C19.2257 28.9386 19.1656 29.6142 19.1656 30.072C19.1656 30.0796 19.1731 30.0946 19.1731 30.1096C11.0362 31.1079 6.55469 37.0026 6.55469 48.0562C6.55469 55.3448 12.4249 52.0207 23.9997 52.0207C35.5746 52.0207 41.4443 55.3448 41.4443 48.0562C41.4443 35.1333 37.0909 31.1455 29.1866 30.1246ZM31.7463 16.4029C33.0149 16.4705 33.2626 16.8158 33.2626 17.4914C33.2626 18.5347 32.572 19.961 31.7463 20.4489V16.4029ZM16.621 20.4489C15.7952 19.961 15.0896 18.5423 15.0896 17.4914C15.0896 16.8158 15.3449 16.4705 16.621 16.4029V20.4489ZM24.1799 34.3056C22.0406 34.3056 20.2916 32.4065 20.2916 30.072C20.2916 29.7943 20.3216 29.3965 20.3666 28.9311C20.9146 29.3214 21.4701 29.6817 22.0105 30.0045C22.6786 30.4023 23.4292 30.5975 24.1799 30.5975C24.9305 30.5975 25.6887 30.4023 26.3567 30.0045C26.8897 29.6817 27.4527 29.3214 27.9931 28.9311C28.0382 29.3965 28.0682 29.7943 28.0682 30.072C28.0682 32.4065 26.3267 34.3056 24.1799 34.3056ZM25.7862 29.0362C24.7954 29.6142 23.5719 29.6142 22.581 29.0362C20.772 27.9628 17.7469 25.8234 17.7469 23.5115V15.9826L18.5801 14.669C19.008 14.0234 19.4433 13.3629 20.0364 13.2503C20.5843 13.1527 21.6202 13.5055 22.5285 13.8207C23.5719 14.181 24.5702 14.5188 25.3434 14.4363C25.9589 14.3687 26.4543 14.0534 26.8972 13.7757C27.1974 13.588 27.4752 13.4154 27.7454 13.3253C28.3534 13.1377 29.1116 13.3478 29.6295 13.8433C30.1775 14.3762 30.5603 15.1419 30.6204 15.84V23.5115C30.6204 25.8159 27.5878 27.9628 25.7862 29.0362ZM36.5729 43.1707C36.5729 43.4784 36.3177 43.7336 36.0099 43.7336H29.577C29.2617 43.7336 29.014 43.4784 29.014 43.1707V38.7569C29.014 38.4492 29.2617 38.1939 29.577 38.1939H36.0099C36.3177 38.1939 36.5729 38.4492 36.5729 38.7569V43.1707Z" fill="#094577"/>
<path d="M35.4476 39.3198H30.1406V42.6076H35.4476V39.3198Z" fill="#094577"/>
</g>
</g>
<defs>
<clipPath id="clip0_30377_34489">
<rect width="48" height="48" fill="white"/>
</clipPath>
</defs>
</svg>
