<!DOCTYPE svg PUBLIC "-//W3C//DTD SVG 1.1//EN" "http://www.w3.org/Graphics/SVG/1.1/DTD/svg11.dtd">
<!-- Uploaded to: SVG Repo, www.svgrepo.com, Transformed by: SVG Repo Mixer Tools -->
<svg width="800px" height="800px" viewBox="0 0 32 32" xmlns="http://www.w3.org/2000/svg" fill="#000000">
<g id="SVGRepo_bgCarrier" stroke-width="0"/>
<g id="SVGRepo_tracerCarrier" stroke-linecap="round" stroke-linejoin="round"/>
<g id="SVGRepo_iconCarrier"> <defs> <style>.cls-1{fill:#0F6AB9;}.cls-2{fill:#076BC3;}</style> </defs> <title/> <g id="Left"> <path class="cls-1" d="M20.48,10.13a1,1,0,0,0-1,0l-8,5a1,1,0,0,0,0,1.7l8,5A1,1,0,0,0,20,22a.91.91,0,0,0,.48-.13A1,1,0,0,0,21,21V11A1,1,0,0,0,20.48,10.13Z"/> <path class="cls-2" d="M11,16h0a1,1,0,0,0,.47.85l8,5A1,1,0,0,0,20,22a.91.91,0,0,0,.48-.13A1,1,0,0,0,21,21V16Z"/> </g> </g>
</svg>