<svg width="41" height="43" viewBox="0 0 41 43" fill="none" xmlns="http://www.w3.org/2000/svg">
<path d="M9.5 13C13.5396 13 15.7795 13.0005 17.3994 14.6201C18.9994 16.2201 19 18.4402 19 22.5V26.5C19 28.6399 18.9994 29.94 17.9795 30.96C17.1996 31.7199 16.2998 31.9205 15 31.9805V37.5C15 39.6399 14.9994 40.94 13.9795 41.96C12.9395 42.9999 11.6398 43 9.5 43C7.36018 43 6.06 43.0002 5.04004 41.9805C4.00004 40.9205 4 39.64 4 37.5V31.9805C2.70015 31.9405 1.79998 31.7403 1.04004 30.9805C3.91006e-05 29.9205 0 28.64 0 26.5V22.5C1.10418e-09 18.4402 0.000160564 16.2201 1.62012 14.6201C3.22009 13.0005 5.46032 13 9.5 13ZM31.501 13C34.0009 13.0001 36.2012 14.7406 37.2412 17.5605L39.7207 24.2002C40.8007 27.0802 41.4012 28.6607 40.7012 30.1807C40.0412 31.6006 38.7209 31.9205 37.001 31.9805V37.5C37.001 39.64 37.0005 40.94 35.9805 41.96C34.9405 42.9999 33.6409 43 31.501 43C29.3611 43 28.061 43.0003 27.041 41.9805C26.001 40.9205 26.001 39.64 26.001 37.5V31.9805C24.281 31.9205 22.9608 31.6002 22.3008 30.2002C21.601 28.6603 22.2013 27.08 23.2812 24.2002L25.7607 17.5605C26.8007 14.7605 29.001 13 31.501 13ZM9.5 16C6 16 4.43926 16.0202 3.73926 16.7402C3.03932 17.4402 3 19.0203 3 22.5V26.5C3 27.48 3.00016 28.6999 3.16016 28.8799C3.36075 28.9998 4.50035 29 5.5 29C6.31975 29.0002 6.99982 29.6803 7 30.5V37.5C7 38.48 7.00016 39.6999 7.16016 39.8799C7.56117 40.1398 11.4191 40.1598 11.8594 39.8799C11.9994 39.7398 12 38.5204 12 37.5205V30.5205C12 29.7005 12.68 29.0205 13.5 29.0205C14.4998 29.0205 15.6392 29.0198 15.8594 28.8799C15.9994 28.7398 16 27.5204 16 26.5205V22.5205C16 19.0205 15.9793 17.4607 15.2793 16.7607C14.5793 16.0409 12.9996 16.0205 9.5 16.0205V16ZM31.501 16C30.301 16 29.1611 17.0206 28.5811 18.6006L26.1006 25.2402C25.4606 26.9402 24.861 28.5404 25.041 28.9404C25.2417 29.0004 26.5009 29 27.5205 29C28.3404 29 29.0203 29.6801 29.0205 30.5V37.5C29.0205 38.4795 29.0209 39.6989 29.1807 39.8799C29.5807 40.1399 33.4409 40.1599 33.8809 39.8799C34.0207 39.7391 34.0205 38.5201 34.0205 37.5205V30.5205C34.0205 29.7006 34.7007 29.0207 35.5205 29.0205C36.5405 29.0205 37.8011 29.0204 38.0811 28.8604C38.1811 28.5604 37.5804 26.9603 36.9404 25.2803L34.4609 18.6406C33.881 17.0607 32.721 16.0401 31.541 16.04L31.501 16ZM9.5 0C12.5397 0.000175672 14.9998 2.46026 15 5.5C15 8.53989 12.5398 10.9998 9.5 11C6.46 11 4 8.54 4 5.5C4.00018 2.46015 6.46011 0 9.5 0ZM31.5 0C34.5397 0.000175929 36.9998 2.46026 37 5.5C37 8.53989 34.5398 10.9998 31.5 11C28.46 11 26 8.54 26 5.5C26.0002 2.46015 28.4601 0 31.5 0ZM9.5 3C8.12011 3 7.00018 4.12015 7 5.5C7 6.88 8.12 8 9.5 8C10.8799 7.99982 12 6.87989 12 5.5C11.9998 4.12026 10.8797 3.00018 9.5 3ZM31.5 3C30.1201 3 29.0002 4.12015 29 5.5C29 6.88 30.12 8 31.5 8C32.8799 7.99982 34 6.87989 34 5.5C33.9998 4.12026 32.8797 3.00018 31.5 3Z" fill="white"/>
</svg>
