<svg width="43" height="43" viewBox="0 0 43 43" fill="none" xmlns="http://www.w3.org/2000/svg">
<path fill-rule="evenodd" clip-rule="evenodd" d="M19.5 3C15.3579 3 12 6.35786 12 10.5C12 14.6421 15.3579 18 19.5 18C23.6422 18 27 14.6421 27 10.5C27 6.35786 23.6422 3 19.5 3ZM9 10.5C9 4.701 13.701 0 19.5 0C25.299 0 30 4.701 30 10.5C30 16.299 25.299 21 19.5 21C13.701 21 9 16.299 9 10.5ZM21.3608 27.0866C17.2518 26.7028 13.0468 27.5942 9.42292 29.752C9.08728 29.9518 8.71952 30.1604 8.3343 30.379C6.9091 31.1876 5.24446 32.132 4.08428 33.2676C3.36404 33.9726 3.05702 34.5542 3.0079 35.0034C2.9689 35.3602 3.05908 35.9484 3.96034 36.807C6.03204 38.7808 8.1372 40 10.6821 40H23.5004C24.3288 40 25.0004 40.6716 25.0004 41.5C25.0004 42.3284 24.3288 43 23.5004 43H10.6821C7.04548 43 4.2339 41.2112 1.891 38.9792C0.532978 37.6854 -0.143962 36.2292 0.0256582 34.6774C0.185138 33.2184 1.06246 32.0274 1.9858 31.1236C3.46212 29.6786 5.61714 28.4628 7.04278 27.6586C7.3681 27.475 7.65546 27.3128 7.88808 27.1744C12.0762 24.6806 16.9196 23.6586 21.64 24.0996C22.4648 24.1768 23.071 24.908 22.9938 25.7328C22.9168 26.5576 22.1856 27.1638 21.3608 27.0866ZM40.2396 26.9846C42.2522 28.1848 43.2956 30.6332 42.9276 33.3008C42.5568 35.9886 40.792 38.8732 37.3058 41.382L37.1576 41.4886C36.0498 42.2882 35.0638 42.9996 33.5012 42.9996C31.9386 42.9996 30.9526 42.2882 29.8448 41.4886L29.6968 41.382C26.2104 38.8732 24.4458 35.9886 24.075 33.3008C23.707 30.6332 24.7502 28.1848 26.7628 26.9846C29.4616 25.3752 31.9556 25.9784 33.5012 27.0778C35.0468 25.9784 37.541 25.3752 40.2396 26.9846ZM38.703 29.5612C37.1444 28.6316 35.922 29.0242 35.2132 29.5418L35.1818 29.5646C34.979 29.7128 34.772 29.864 34.5984 29.9746C34.5044 30.0344 34.375 30.1118 34.2262 30.1772C34.088 30.2378 33.8296 30.3354 33.5012 30.3354C33.1728 30.3354 32.9144 30.2378 32.7762 30.1772C32.6274 30.1118 32.4982 30.0344 32.4042 29.9746C32.2304 29.864 32.0236 29.7128 31.8206 29.5646L31.7892 29.5418C31.0804 29.0242 29.858 28.6316 28.2994 29.5612C27.4966 30.0398 26.8136 31.2006 27.0468 32.8908C27.2772 34.5608 28.441 36.7824 31.449 38.9468C32.7532 39.8854 32.9872 39.9996 33.5012 39.9996C34.0154 39.9996 34.2492 39.8854 35.5534 38.9468C38.5614 36.7824 39.7252 34.5608 39.9556 32.8908C40.1888 31.2006 39.5058 30.0398 38.703 29.5612Z" fill="white"/>
</svg>
