<svg width="43" height="43" viewBox="0 0 43 43" fill="none" xmlns="http://www.w3.org/2000/svg">
<path d="M21.5 0C23.9819 0 25.9998 2.01815 26 4.5C26 5.31508 25.7806 6.0793 25.4004 6.73926C26.8647 7.30696 28.2601 8.20032 29.5039 9.4248C31.1859 11.0808 33.2823 11.9932 35.4043 11.9932H37.5C38.328 11.9932 39 12.6652 39 13.4932C38.9998 14.321 38.3279 14.9932 37.5 14.9932H36.9336L40.5576 22.2422C41.3156 22.4562 41.9527 22.8588 42.4473 23.626C43.5113 25.282 42.8447 26.6221 42.1387 28.0381C40.6147 31.0981 37.6889 33 34.5029 33H34.501C31.315 33 28.3892 31.0981 26.8652 28.0381C26.1592 26.6201 25.4927 25.2819 26.5547 23.6279C27.0535 22.8532 27.6972 22.4491 28.4639 22.2363L32.3174 14.5293C30.5256 13.987 28.8399 12.9795 27.4004 11.5605C26.0819 10.2634 24.5648 9.45906 23 9.14648V40H27.5C28.3279 40 28.9998 40.6721 29 41.5C29 42.328 28.328 43 27.5 43H15.5C14.6721 42.9999 14 42.3279 14 41.5C14.0002 40.6722 14.6722 40.0001 15.5 40H20V9.14648C18.4355 9.45909 16.9189 10.2636 15.6006 11.5605C14.1652 12.9743 12.4844 13.9806 10.6982 14.5244L14.5576 22.2422C15.3156 22.4562 15.9527 22.8588 16.4473 23.626C17.5113 25.282 16.8447 26.6221 16.1387 28.0381C14.6147 31.0981 11.6889 33 8.50293 33H8.50098C5.31499 33 2.38923 31.0981 0.865234 28.0381C0.159248 26.6201 -0.507294 25.2819 0.554688 23.6279C1.05348 22.8532 1.69722 22.4491 2.46387 22.2363L6.08594 14.9932H5.5C4.67222 14.993 4.0002 14.3209 4 13.4932C4 12.6652 4.6721 11.9933 5.5 11.9932H7.59668C9.7185 11.993 11.8142 11.0807 13.4961 9.4248C14.7396 8.20057 16.1348 7.30701 17.5986 6.73926C17.2186 6.07943 17 5.31482 17 4.5C17.0002 2.01822 19.0182 0.000118912 21.5 0ZM5.41895 25C4.02748 25 3.23152 25.0123 3.0791 25.25C3.0111 25.356 3.00293 25.4023 3.00293 25.4023C2.98702 25.5684 3.31282 26.2242 3.55078 26.7021C4.56478 28.7361 6.46094 30 8.50293 30C10.5449 30 12.4411 28.7361 13.4551 26.7021C13.693 26.2242 14.0188 25.5704 14.0029 25.4023C14.0029 25.4023 13.9948 25.356 13.9248 25.248C13.7723 25.0124 12.9763 25 11.585 25H5.41895ZM31.4189 25C30.0275 25 29.2315 25.0123 29.0791 25.25C29.0111 25.356 29.0029 25.4023 29.0029 25.4023C28.987 25.5684 29.3128 26.2242 29.5508 26.7021C30.5648 28.7361 32.4609 30 34.5029 30C36.5449 30 38.4411 28.7361 39.4551 26.7021C39.693 26.2242 40.0188 25.5704 40.0029 25.4023C40.0029 25.4023 39.9948 25.356 39.9248 25.248C39.7723 25.0124 38.9763 25 37.585 25H31.4189ZM5.93555 22H11.0801L8.50781 16.8564L5.93555 22ZM31.9355 22H37.0801L34.5078 16.8564L31.9355 22ZM21.5 3C20.6722 3.00012 20.0002 3.67222 20 4.5C20 5.32793 20.6721 5.99988 21.5 6C22.328 6 23 5.328 23 4.5C22.9998 3.67215 22.3279 3 21.5 3Z" fill="#161616"/>
</svg>
