<svg width="22" height="22" viewBox="0 0 22 22" fill="none" xmlns="http://www.w3.org/2000/svg">
<path fill-rule="evenodd" clip-rule="evenodd" d="M17.2283 0.137512C18.3883 0.279512 19.3303 0.576531 20.0803 1.25653C20.8413 1.94553 21.1833 2.82851 21.3443 3.91351C21.4854 4.8696 21.4972 6.06515 21.4982 7.53485L21.4983 9.55652C21.4983 11.2145 21.4983 12.5425 21.3443 13.5855C21.1833 14.6705 20.8413 15.5535 20.0803 16.2425C19.3643 16.8925 18.4713 17.1935 17.3773 17.3425C17.3673 17.4245 17.3563 17.5055 17.3443 17.5855C17.1843 18.6705 16.8423 19.5535 16.0813 20.2425C15.3313 20.9225 14.3893 21.2195 13.2293 21.3615C12.1816 21.4889 10.8646 21.4987 9.21945 21.4995L8.69727 21.4995C6.85527 21.4995 5.40426 21.4995 4.26926 21.3615C3.10926 21.2195 2.16727 20.9225 1.41727 20.2425C0.656267 19.5535 0.314266 18.6705 0.154266 17.5855C0.0250994 16.7163 0.003588 15.6493 0 14.3582V11.1408C0.003588 9.84977 0.0250994 8.78268 0.154266 7.91351C0.314266 6.82851 0.656267 5.94553 1.41727 5.25653C2.13427 4.60553 3.02827 4.30553 4.12027 4.15753C4.26527 2.96253 4.59826 1.99853 5.41626 1.25653C6.16626 0.576531 7.10828 0.279512 8.26828 0.137512C9.22867 0.0207432 10.416 0.002763 11.8745 0H13.6229C15.0812 0.002763 16.2679 0.0207432 17.2283 0.137512ZM9.48273 5.49988H8.01581C6.4874 5.50202 5.34653 5.51733 4.45126 5.62653C3.43226 5.75053 2.84626 5.98549 2.42426 6.36749C2.01326 6.74049 1.76927 7.24348 1.63727 8.13348C1.5207 8.92206 1.50259 9.92886 1.49979 11.2917V14.2073C1.50259 15.5702 1.5207 16.577 1.63727 17.3655C1.76927 18.2555 2.01326 18.7585 2.42426 19.1315C2.84626 19.5135 3.43226 19.7485 4.45126 19.8725C5.34653 19.9817 6.4874 19.997 8.01581 19.9991H9.48273C11.0111 19.997 12.152 19.9817 13.0473 19.8725C14.0663 19.7485 14.6523 19.5135 15.0743 19.1315C15.4853 18.7585 15.7293 18.2555 15.8613 17.3655C15.9876 16.5113 15.9983 15.4009 15.9992 13.8591L15.9993 12.0035C15.9993 10.2705 15.9973 9.05348 15.8613 8.13348C15.7293 7.24348 15.4853 6.74049 15.0743 6.36749C14.6523 5.98549 14.0663 5.75053 13.0473 5.62653C12.152 5.51733 11.0111 5.50202 9.48273 5.49988ZM13.4817 1.49988H12.0148C10.4864 1.50202 9.34552 1.51733 8.45026 1.62653C7.43126 1.75053 6.84526 1.98549 6.42426 2.36749C6.03026 2.72449 5.78828 3.20349 5.65228 4.03448C6.52328 3.99948 7.53227 3.99951 8.69727 3.99951L9.62393 4C11.0822 4.00276 12.2689 4.02074 13.2293 4.13751C14.3893 4.27951 15.3313 4.57653 16.0813 5.25653C16.8423 5.94553 17.1843 6.82851 17.3443 7.91351C17.4993 8.95651 17.4993 10.2845 17.4993 11.9425L17.4991 14.0457C17.4985 14.6847 17.4955 15.2709 17.4803 15.8085C18.2383 15.6735 18.7143 15.4565 19.0733 15.1315C19.4843 14.7585 19.7283 14.2555 19.8603 13.3655C19.9963 12.4455 19.9983 11.2285 19.9983 9.49548L19.9982 7.63995C19.9973 6.09815 19.9865 4.98777 19.8603 4.13348C19.7283 3.24348 19.4843 2.74049 19.0733 2.36749C18.6513 1.98549 18.0653 1.75053 17.0473 1.62653C16.1511 1.51733 15.0101 1.50202 13.4817 1.49988ZM8.74826 7.99951C9.41926 7.99951 9.86927 8.50251 10.1123 8.99451L10.1133 8.99548L10.8083 10.3975L10.8143 10.4035C10.8193 10.4075 10.8243 10.4125 10.8313 10.4175L10.8493 10.4295L10.8573 10.4335L12.1123 10.6445C12.6523 10.7345 13.2403 11.0245 13.4393 11.6475C13.6373 12.2705 13.3273 12.8465 12.9393 13.2355L12.9383 13.2365L11.9633 14.2205C11.9593 14.2275 11.9553 14.2385 11.9513 14.2525C11.9463 14.2675 11.9443 14.2805 11.9443 14.2895L12.2233 15.5075C12.3493 16.0585 12.3613 16.8245 11.7673 17.2615C11.1693 17.7015 10.4413 17.4545 9.95627 17.1655L8.77927 16.4635L8.77127 16.4615C8.76527 16.4615 8.75828 16.4605 8.75027 16.4605C8.74227 16.4605 8.73426 16.4615 8.72726 16.4625C8.72326 16.4625 8.71928 16.4635 8.71628 16.4635L7.54126 17.1655C7.05426 17.4565 6.32826 17.6995 5.73126 17.2605C5.13826 16.8235 5.14625 16.0605 5.27325 15.5065L5.55325 14.2895C5.55225 14.2805 5.55026 14.2675 5.54526 14.2525C5.54126 14.2385 5.53727 14.2275 5.53427 14.2205L4.55627 13.2345C4.17127 12.8465 3.86227 12.2705 4.05927 11.6495C4.25627 11.0255 4.84425 10.7355 5.38525 10.6445L6.63525 10.4345L6.64328 10.4305C6.64828 10.4275 6.65425 10.4225 6.66125 10.4185C6.66725 10.4135 6.67325 10.4085 6.67825 10.4045L6.68427 10.3985L7.38126 8.99249C7.62626 8.50149 8.07726 7.99951 8.74826 7.99951ZM8.74628 9.61853C8.73928 9.63153 8.73127 9.6465 8.72327 9.6615L8.02127 11.0775C7.90727 11.3115 7.72727 11.4945 7.55927 11.6195C7.39126 11.7455 7.16526 11.8655 6.91125 11.9095H6.90826L5.63327 12.1235C5.61427 12.1265 5.59625 12.1305 5.57925 12.1335C5.59225 12.1475 5.60528 12.1625 5.62128 12.1785L6.61328 13.1785C6.80928 13.3755 6.92628 13.6235 6.98828 13.8425C7.05128 14.0625 7.08027 14.3315 7.02127 14.5995L7.01926 14.6045L6.73526 15.8425C6.73026 15.8645 6.72626 15.8855 6.72226 15.9065C6.73826 15.8975 6.75427 15.8875 6.77127 15.8775L7.97327 15.1605C8.22427 15.0135 8.50727 14.9605 8.75027 14.9605C8.99127 14.9605 9.27626 15.0125 9.52826 15.1635L10.7243 15.8765C10.7413 15.8875 10.7583 15.8975 10.7743 15.9055C10.7703 15.8855 10.7663 15.8645 10.7613 15.8425L10.4763 14.5995C10.4163 14.3315 10.4453 14.0625 10.5083 13.8425C10.5703 13.6235 10.6883 13.3755 10.8833 13.1785L11.8753 12.1785C11.8923 12.1615 11.9053 12.1475 11.9173 12.1335C11.9013 12.1305 11.8833 12.1265 11.8643 12.1235L10.5883 11.9095C10.3333 11.8665 10.1063 11.7475 9.93527 11.6205C9.76627 11.4945 9.58625 11.3115 9.47125 11.0775L8.76828 9.66052C8.76028 9.64452 8.75328 9.63053 8.74628 9.61853Z" fill="#6C737F"/>
</svg>
