<svg width="18" height="22" viewBox="0 0 18 22" fill="none" xmlns="http://www.w3.org/2000/svg">
<path fill-rule="evenodd" clip-rule="evenodd" d="M14.2671 0.00720215C14.5949 -0.00179785 15.04 -0.0127964 15.4342 0.0462036C15.9991 0.131204 16.6372 0.37418 17.071 1.03418C17.3204 1.41318 17.4151 1.83716 17.4585 2.28516C17.5003 2.71516 17.5003 3.25017 17.5003 3.89117L17.5002 4.37146C17.4983 5.22145 17.4746 5.86191 17.2339 6.42621C16.8144 7.40921 15.9173 7.90415 15.3216 8.23315C15.2437 8.27615 15.1709 8.31619 15.105 8.35419L11.7773 10.2772C11.1456 10.6412 10.6253 10.9422 10.1744 11.1472C10.0011 11.2262 9.83056 11.2952 9.65936 11.3502C9.89036 11.5472 10.07 11.8062 10.1992 12.0672L10.988 13.6582L11.0096 13.6802L11.0355 13.7012C11.0552 13.7162 11.0735 13.7262 11.0868 13.7332L11.093 13.7352L12.5175 13.9742C13.1087 14.0732 13.7279 14.3862 13.9363 15.0392C14.1443 15.6922 13.8217 16.3052 13.3974 16.7312L13.3964 16.7322L12.2892 17.8482C12.2882 17.8502 12.2867 17.8522 12.2849 17.8552C12.2775 17.8692 12.2687 17.8902 12.2615 17.9152C12.2543 17.9402 12.2508 17.9632 12.2498 17.9802L12.2495 17.9922L12.5664 19.3742C12.7065 19.9862 12.7094 20.7952 12.0888 21.2512C11.4651 21.7092 10.694 21.4582 10.1551 21.1372L8.81866 20.3402C8.79766 20.3342 8.77606 20.3312 8.75026 20.3312C8.72456 20.3312 8.70226 20.3342 8.68646 20.3382L8.68016 20.3402L8.67636 20.3412L7.34246 21.1372C6.80206 21.4602 6.03277 21.7072 5.40985 21.2492C4.79058 20.7932 4.78996 19.9872 4.93095 19.3732L5.24771 17.9922L5.24743 17.9802C5.24642 17.9632 5.24291 17.9402 5.23574 17.9152C5.22855 17.8902 5.21973 17.8692 5.21231 17.8552C5.21054 17.8522 5.20909 17.8502 5.20804 17.8482L4.09905 16.7302C3.6773 16.3052 3.35597 15.6922 3.56222 15.0412C3.76938 14.3872 4.38813 14.0732 4.98009 13.9742L6.40047 13.7362C6.41828 13.7282 6.43659 13.7172 6.45642 13.7022C6.47625 13.6872 6.49144 13.6732 6.50092 13.6622L6.50471 13.6582L7.29446 12.0652C7.42486 11.8042 7.60556 11.5452 7.83726 11.3482C7.66736 11.2942 7.49806 11.2262 7.32606 11.1472C6.87506 10.9422 6.35485 10.6412 5.72319 10.2772L2.39542 8.35419C2.32956 8.31619 2.25681 8.27615 2.17891 8.23315L2.04682 8.16003C1.45736 7.83099 0.656054 7.33899 0.266537 6.42621C-0.00100306 5.79921 -0.000533024 5.0782 5.42264e-05 4.0802L0.000247942 3.57953C0.00121675 3.07478 0.00702965 2.64349 0.0419069 2.28516C0.0853169 1.83716 0.180047 1.41318 0.429367 1.03418C0.863167 0.37418 1.50128 0.131204 2.06623 0.0462036C2.46042 -0.0127964 2.90548 -0.00179785 3.23336 0.00720215C3.33131 0.00920215 3.4188 0.0111694 3.49135 0.0111694H8.88156H14.0091C14.0816 0.0111694 14.1691 0.00920215 14.2671 0.00720215ZM8.74716 12.5552C8.71636 12.5942 8.67796 12.6522 8.63696 12.7342L7.84676 14.3282C7.72626 14.5742 7.53516 14.7692 7.35456 14.9042C7.17336 15.0392 6.93336 15.1672 6.66592 15.2122L6.66326 15.2132L5.2283 15.4532C5.13636 15.4692 5.07237 15.4892 5.0302 15.5072C5.05439 15.5482 5.0956 15.6042 5.16407 15.6732L6.27994 16.7992C6.4862 17.0072 6.61178 17.2702 6.67871 17.5052C6.74578 17.7412 6.77616 18.0292 6.71354 18.3112L6.71244 18.3162L6.39296 19.7082C6.36907 19.8122 6.3583 19.8962 6.35477 19.9592C6.41238 19.9372 6.48501 19.9022 6.5727 19.8502L7.92366 19.0432C8.18886 18.8882 8.48976 18.8312 8.75026 18.8312C9.01006 18.8312 9.31266 18.8882 9.57846 19.0462L10.9232 19.8492C11.0113 19.9012 11.0844 19.9362 11.1426 19.9592C11.1388 19.8952 11.1279 19.8122 11.1042 19.7082L10.7837 18.3112C10.721 18.0292 10.7515 17.7412 10.8185 17.5052C10.8855 17.2702 11.011 17.0072 11.2173 16.7992L12.3332 15.6732L12.335 15.6722C12.4029 15.6042 12.444 15.5482 12.4683 15.5082C12.4258 15.4902 12.3614 15.4692 12.2689 15.4532L10.834 15.2132C10.5651 15.1682 10.3233 15.0412 10.1401 14.9052C9.95796 14.7692 9.76656 14.5742 9.64596 14.3282L8.85506 12.7332L8.85436 12.7322C8.81446 12.6512 8.77726 12.5942 8.74716 12.5552ZM2.86625 1.50079C2.66346 1.49793 2.47923 1.50171 2.28909 1.53021C1.97721 1.57721 1.80249 1.67615 1.68252 1.85815C1.62608 1.94415 1.56794 2.0882 1.53491 2.4292C1.50949 2.6917 1.50267 3.0172 1.50085 3.45337L1.50038 4.14661C1.50246 5.19199 1.52297 5.54841 1.64617 5.83716C1.85095 6.31716 2.26174 6.55116 2.9005 6.91516L3.02055 6.9837L3.14569 7.05518L6.44205 8.96021C7.11286 9.34721 7.57046 9.61017 7.94746 9.78217C8.31056 9.94717 8.54216 10.0002 8.75016 10.0002C8.95826 10.0002 9.18986 9.94717 9.55286 9.78217C9.92996 9.61017 10.3875 9.34721 11.0584 8.96021L14.3547 7.05518C14.4398 7.00618 14.5215 6.96016 14.5997 6.91516L14.7847 6.80951C15.3188 6.50193 15.6699 6.26916 15.8543 5.83716C15.9857 5.52916 16.0002 5.14416 16.0002 3.92816C16.0002 3.24116 15.9994 2.7792 15.9655 2.4292C15.9325 2.0882 15.8743 1.94415 15.8179 1.85815C15.6979 1.67615 15.5232 1.57721 15.2113 1.53021C14.9578 1.49221 14.7148 1.49819 14.4243 1.50519L14.2934 1.50806C14.2039 1.50983 14.1096 1.51117 14.0091 1.51117H9.50006V5.75018C9.50006 6.16418 9.16426 6.50018 8.75006 6.50018C8.33586 6.50018 8.00006 6.16418 8.00006 5.75018V1.51117H3.49135C3.3405 1.51117 3.20373 1.50819 3.07614 1.50519L2.86625 1.50079Z" fill="#6C737F"/>
</svg>
