<svg width="33" height="65" viewBox="0 0 33 65" fill="none" xmlns="http://www.w3.org/2000/svg">
<path d="M24.4082 0.5C28.7973 0.500155 31.6465 4.12379 31.6465 7.63672V64.3916H26.1436C23.8919 64.3916 21.8658 63.6657 20.4023 62.1885C18.938 60.7101 18.0889 58.5311 18.0889 55.7236V14.6816L12.6348 16.6816L12.6289 16.6836C10.8546 17.3098 9.16411 17.6308 7.7666 17.6309C5.89414 17.6309 4.3962 17.1486 3.29199 16.2568C2.18689 15.3643 1.52368 14.1005 1.25098 12.6289L0.638672 9.3623L0.56543 8.9707L0.929688 8.81152L12.3643 3.80859H12.3652C18.7165 1.04273 20.9362 0.5 24.4082 0.5Z" fill="#AAD6F8" stroke="#DAEBF8"/>
</svg>
