<svg width="46" height="66" viewBox="0 0 46 66" fill="none" xmlns="http://www.w3.org/2000/svg">
<path d="M23.0566 0.5C35.3795 0.500177 44.4941 9.11439 44.4941 19.499C44.4941 24.1473 43.5881 27.6774 41.4541 30.9766C39.334 34.2542 36.0223 37.2699 31.29 40.9336V40.9346L21.5322 48.4561C20.5329 49.2561 19.3302 50.3339 18.252 51.4121C17.4931 52.1709 16.8118 52.9169 16.3066 53.5566H45.2061V58.6309C45.2061 60.7329 44.256 62.4073 42.6426 63.5381C41.0466 64.6566 38.8264 65.2295 36.2695 65.2295H7.30176C3.47353 65.2295 0.500032 62.2665 0.5 58.5293C0.5 54.0241 2.69059 49.5241 12.4707 41.374L27.1064 29.1768L27.1104 29.1748C30.3437 26.5293 31.1963 23.8272 31.1963 21.2266C31.1963 18.5039 30.2526 16.338 28.5234 14.8457C26.785 13.3455 24.1951 12.4776 20.8203 12.4775C16.2904 12.4775 12.7833 13.1067 9.9082 14.4023C7.03974 15.695 4.76563 17.6667 2.72266 20.4072L2.57227 20.6084H1.41504V15.6367C1.41504 11.8465 2.84063 8.03874 6.29785 5.18848C9.74534 2.34627 15.1586 0.5 23.0566 0.5Z" fill="#AAD6F8" stroke="#DAEBF8"/>
</svg>
