<svg width="50" height="68" viewBox="0 0 50 68" fill="none" xmlns="http://www.w3.org/2000/svg">
<path d="M25.707 0.5C33.1147 0.5 38.9841 3.61316 42.9844 9.16895C46.9708 14.7057 49.0771 22.631 49.0771 32.2412C49.0771 44.0449 46.5375 52.6416 42.21 58.2988C37.8689 63.9736 31.768 66.6377 24.7881 66.6377C17.7044 66.6376 11.6087 63.8706 7.2959 58.46C2.99297 53.0615 0.500078 45.0776 0.5 34.6924C0.5 23.197 2.93627 14.6484 7.33008 8.96387C11.7387 3.26022 18.0713 0.500087 25.707 0.5ZM24.7881 12.5264C21.7971 12.5265 19.1224 13.8407 17.1709 16.9141C15.2013 20.0162 13.9561 24.9356 13.9561 32.1396C13.9561 40.7473 15.0295 46.3784 17.0283 49.8457C18.021 51.5675 19.2383 52.7505 20.667 53.5068C22.0993 54.265 23.7755 54.6113 25.707 54.6113C28.5665 54.6113 31.0144 53.198 32.7754 50.0674C34.5526 46.9079 35.6211 42.0046 35.6211 35.1006C35.6211 26.4357 34.6745 20.7719 32.8457 17.2871C31.9379 15.5575 30.8191 14.3772 29.499 13.625C28.1763 12.8713 26.6139 12.5264 24.7881 12.5264Z" fill="#AAD6F8" stroke="#DAEBF8"/>
</svg>
