<svg width="45" height="68" viewBox="0 0 45 68" fill="none" xmlns="http://www.w3.org/2000/svg">
<path d="M21.0107 0.5C27.9305 0.5 33.6648 2.25555 37.6807 5.40527C41.7081 8.56402 43.9726 13.0998 43.9727 18.5605C43.9727 23.1472 42.7194 26.5639 40.5967 29.0205C38.8634 31.0263 36.5788 32.3574 34.0049 33.1758C36.3137 34.0159 38.6053 35.5489 40.4404 37.4883C42.7444 39.9231 44.3808 43.0514 44.3809 46.3311C44.3809 52.3765 42.2655 57.478 38.0137 61.0586C33.7729 64.6298 27.4661 66.6377 19.1729 66.6377C14.1106 66.6376 9.46389 65.5806 6.06543 63.4072C2.64631 61.2206 0.5 57.9046 0.5 53.4775V47.9756H1.72852L1.87695 48.1357C5.64418 52.2003 11.4227 54.8154 19.7861 54.8154C23.8524 54.8154 26.6331 53.8863 28.3887 52.4414C30.1313 51.007 30.9248 49.0141 30.9248 46.7393C30.9247 43.8538 29.9817 41.9611 28.1709 40.7344C26.3152 39.4773 23.4746 38.8671 19.5684 38.7656V38.7646C16.7899 38.7128 14.7595 38.3035 13.4141 37.4346C12.0185 36.5331 11.4248 35.1826 11.4248 33.4668V28.9385L11.8662 28.8867C13.6256 28.6797 16.0983 28.5764 18.7461 28.4746H18.748C23.3468 28.323 26.3146 27.389 28.123 26.0117C29.9044 24.655 30.6191 22.824 30.6191 20.7051C30.6191 18.024 29.6995 15.938 27.8164 14.5049C25.91 13.0541 22.9477 12.2197 18.7646 12.2197C11.907 12.2198 5.554 14.5429 2.31543 18.7627L2.16504 18.959H1.01074V13.1494C1.01081 10.3398 2.78886 7.16792 6.1416 4.71875C9.50679 2.26058 14.4894 0.500057 21.0107 0.5Z" fill="#AAD6F8" stroke="#DAEBF8"/>
</svg>
