<svg width="137" height="59" viewBox="0 0 137 59" fill="none" xmlns="http://www.w3.org/2000/svg">
<rect x="0.545696" y="0.545696" width="135.333" height="57.8438" rx="3.81987" stroke="#D2D6DB" stroke-width="1.09139"/>
<path fill-rule="evenodd" clip-rule="evenodd" d="M40.5573 16.9165C39.5358 18.059 37.9014 18.96 36.267 18.8313C36.0627 17.2866 36.8629 15.6454 37.7993 14.6317C38.8208 13.4571 40.6084 12.6204 42.0555 12.5561C42.2258 14.1651 41.5618 15.742 40.5573 16.9165ZM42.0393 19.1346C40.5995 19.0563 39.2856 19.5439 38.2244 19.9377C37.5415 20.1911 36.9632 20.4058 36.5232 20.4058C36.0295 20.4058 35.4273 20.1797 34.7512 19.9258C33.8653 19.5932 32.8524 19.2129 31.7903 19.2312C29.3557 19.2633 27.0913 20.5667 25.8485 22.6423C23.2948 26.7936 25.1845 32.9401 27.6532 36.3191C28.8619 37.9925 30.3091 39.8268 32.2159 39.7624C33.0548 39.7325 33.6582 39.4905 34.2827 39.2401C35.0017 38.9517 35.7486 38.6522 36.9148 38.6522C38.0406 38.6522 38.7548 38.9439 39.4404 39.224C40.0923 39.4902 40.7184 39.7459 41.6478 39.7303C43.6227 39.6981 44.8655 38.0569 46.0743 36.3835C47.3788 34.5875 47.952 32.8346 48.039 32.5686C48.044 32.5534 48.0474 32.5431 48.0492 32.5379C48.0471 32.5359 48.031 32.5289 48.0026 32.5166L48.0026 32.5166C47.5665 32.328 44.2335 30.8859 44.2015 27.0189C44.1694 23.7731 46.8452 22.1286 47.2664 21.8697C47.292 21.854 47.3093 21.8433 47.3171 21.8378C45.6146 19.4564 42.9587 19.199 42.0393 19.1346ZM55.711 39.5551V14.4703H65.6707C70.8122 14.4703 74.4045 17.817 74.4045 22.7085C74.4045 27.6 70.7441 30.9789 65.5345 30.9789H59.8311V39.5551H55.711ZM59.8293 17.7535H64.5793C68.1545 17.7535 70.1976 19.5556 70.1976 22.7254C70.1976 25.8952 68.1545 27.7134 64.5623 27.7134H59.8293V17.7535ZM88.0071 36.5484C86.9175 38.5114 84.517 39.7503 81.9292 39.7503C78.0985 39.7503 75.4256 37.5942 75.4256 34.344C75.4256 31.1259 78.0134 29.2755 82.7975 29.002L87.939 28.7124V27.3286C87.939 25.2851 86.5259 24.1749 84.0062 24.1749C81.9292 24.1749 80.4139 25.1886 80.1075 26.7333H76.396C76.5152 23.483 79.75 21.1177 84.1254 21.1177C88.8414 21.1177 91.9059 23.4508 91.9059 27.0712V39.5572H88.0922V36.5484H88.0071ZM83.0341 36.7715C80.8379 36.7715 79.4418 35.7739 79.4418 34.2454C79.4418 32.6685 80.7868 31.7514 83.3576 31.6066L87.9373 31.333V32.749C87.9373 35.0982 85.8262 36.7715 83.0341 36.7715ZM104.556 40.5383C102.904 44.9309 101.014 46.3791 96.9964 46.3791C96.69 46.3791 95.6685 46.3469 95.4301 46.2825V43.2736C95.6855 43.3058 96.3154 43.338 96.6389 43.338C98.4606 43.338 99.4821 42.6139 100.112 40.7314L100.487 39.6211L93.5063 21.3586H97.8136L102.666 36.1778H102.751L107.603 21.3586H111.791L104.556 40.5383Z" fill="black"/>
</svg>
