<svg width="137" height="59" viewBox="0 0 137 59" fill="none" xmlns="http://www.w3.org/2000/svg">
<rect x="0.545696" y="0.545696" width="135.333" height="57.8438" rx="3.81987" stroke="#D2D6DB" stroke-width="1.09139"/>
<g clip-path="url(#clip0_1378_11020)">
<path d="M103.033 43.0022L102.843 43.0392C102.182 43.1626 101.941 43.2119 101.458 43.2119C100.34 43.2119 99.0187 42.6569 99.0187 40.0426C99.0187 38.6983 99.2474 36.9102 101.331 36.9102H101.344C101.699 36.9349 102.106 36.9719 102.868 37.1939L103.033 37.2432V43.0022ZM103.377 29.9673L103.033 30.029V34.8631L102.729 34.7767L102.64 34.7521C102.297 34.6535 101.509 34.4315 100.747 34.4315C96.5794 34.4315 95.7026 37.4898 95.7026 40.0549C95.7026 43.5696 97.7355 45.5919 101.28 45.5919C102.779 45.5919 103.885 45.444 105.003 45.0864C106.032 44.7657 106.4 44.3094 106.4 43.3352V29.4617C105.409 29.6343 104.38 29.807 103.377 29.9673Z" fill="#27292D"/>
<path d="M115.42 43.0895L115.242 43.1389L114.607 43.2992C114.01 43.4472 113.476 43.5335 113.07 43.5335C112.091 43.5335 111.507 43.0649 111.507 42.2634C111.507 41.7454 111.748 40.8698 113.349 40.8698H115.42V43.0895ZM113.959 34.3708C112.676 34.3708 111.354 34.5928 109.715 35.086L108.648 35.3944L109.004 37.7375L110.046 37.4045C111.138 37.0592 112.498 36.8373 113.514 36.8373C113.972 36.8373 115.369 36.8373 115.369 38.3048V38.946H113.425C109.881 38.946 108.242 40.0436 108.242 42.3989C108.242 44.409 109.754 45.6176 112.295 45.6176C113.082 45.6176 114.175 45.4697 115.115 45.2477L115.166 45.2353L115.217 45.2477L115.534 45.297C116.525 45.4697 117.554 45.6423 118.558 45.8273V38.1321C118.558 35.641 117.008 34.3708 113.959 34.3708Z" fill="#27292D"/>
<path d="M90.7364 43.0895L90.5586 43.1389L89.9233 43.2992C89.3262 43.4472 88.8053 43.5335 88.386 43.5335C87.4078 43.5335 86.8233 43.0649 86.8233 42.2634C86.8233 41.7454 87.0647 40.8698 88.6528 40.8698H90.7238L90.7364 43.0895ZM89.288 34.3708C87.9922 34.3708 86.6835 34.5928 85.0446 35.086L83.9774 35.3944L84.3331 37.7375L85.3749 37.4045C86.4675 37.0592 87.827 36.8373 88.8434 36.8373C89.3008 36.8373 90.6983 36.8373 90.6983 38.3048V38.946H88.7544C85.2098 38.946 83.5581 40.0436 83.5581 42.3989C83.5581 44.409 85.07 45.6176 87.6238 45.6176C88.4114 45.6176 89.504 45.4697 90.4442 45.2477L90.495 45.2353L90.5459 45.2477L90.8508 45.297C91.8544 45.4697 92.8708 45.6423 93.8746 45.8396V38.1444C93.8873 35.6287 92.3373 34.3708 89.288 34.3708Z" fill="#27292D"/>
<path d="M77.3544 34.3939C75.7408 34.3939 74.4068 34.9118 73.9113 35.1338L73.7842 35.1954L73.6699 35.1091C72.9839 34.6281 71.9801 34.3816 70.5826 34.3816C69.3502 34.3816 68.1941 34.5541 66.9363 34.9118C65.8563 35.2324 65.437 35.7381 65.437 36.6876V45.4803H68.8166V37.3536L68.9817 37.3042C69.6678 37.0822 70.0743 37.0452 70.4682 37.0452C71.4465 37.0452 71.942 37.5509 71.942 38.5374V45.4926H75.2707V38.4017C75.2707 37.9825 75.1818 37.7359 75.1691 37.6865L75.0548 37.4769L75.2834 37.3782C75.7916 37.1562 76.3506 37.0452 76.935 37.0452C77.6084 37.0452 78.4089 37.3042 78.4089 38.5374V45.4926H81.7248V38.2167C81.7248 35.6394 80.3019 34.3939 77.3544 34.3939Z" fill="#27292D"/>
<path d="M112.932 22.1239C112.437 22.1239 111.611 22.0746 110.963 21.9513L110.772 21.9143V17.1665C110.772 16.7719 110.696 16.5252 110.683 16.4882L110.582 16.2909L110.798 16.2046C110.848 16.1799 110.899 16.1676 110.963 16.1429L111.001 16.1183C111.077 16.0936 111.153 16.0689 111.23 16.0443C111.268 16.0319 111.293 16.0196 111.319 16.0196C112.068 15.8223 112.754 15.847 113.059 15.8223H113.072C115.143 15.8223 115.384 17.6104 115.384 18.9546C115.371 21.569 114.037 22.1239 112.932 22.1239ZM112.919 13.0969C112.894 13.0969 112.856 13.0969 112.83 13.0969C110.887 13.0969 108.892 13.6149 108.18 14.6261C107.799 15.1194 107.583 15.736 107.571 16.4636V21.3594C107.571 21.7786 107.482 21.939 107.469 21.976L107.355 22.1856H101.218V18.782H101.205C101.129 15.1934 98.9439 13.2202 95.7803 13.2202H95.4118H92.6929C92.5659 14.0958 92.4643 14.7124 92.3373 15.588H95.4118C97.0253 15.588 97.8766 16.9198 97.8766 18.967V22.3952L97.6606 22.2843C97.6225 22.2719 97.3557 22.1856 96.9365 22.1856H91.6258C91.5242 22.8392 91.397 23.6901 91.2573 24.541H107.583C108.142 24.43 108.79 24.3314 109.349 24.2451C110.175 24.6397 111.712 24.8494 112.767 24.8494C116.312 24.8494 118.611 22.5432 118.611 18.9916C118.598 15.477 116.375 13.1709 112.919 13.0969Z" fill="#27292D"/>
<path d="M84.2912 25.9839H84.4437C87.9884 25.9839 89.64 24.8494 89.64 22.05C89.64 20.0399 88.1281 18.4368 85.5872 18.4368H82.322C81.3437 18.4368 80.7593 17.8942 80.7593 16.9816C80.7593 16.365 81.0007 15.6004 82.6016 15.6004H89.7418C89.8941 14.7002 89.9704 14.1329 90.1102 13.2327H82.6904C79.2347 13.2327 77.4941 14.6385 77.4941 16.9816C77.4941 19.3 79.006 20.5085 81.547 20.5085H84.8122C85.7905 20.5085 86.3749 21.2608 86.3749 22.05C86.3749 22.568 86.1335 23.6409 84.5453 23.6409H83.9991L73.5429 23.6162H71.6371C70.0236 23.6162 68.8928 22.7283 68.8928 20.6689V19.2507C68.8928 17.1049 69.7695 15.7731 71.6371 15.7731H74.7371C74.8769 14.8605 74.9658 14.2809 75.0929 13.4176H71.2306H70.8621C67.6986 13.4176 65.5133 15.4771 65.437 19.0657V19.2013V20.6689C65.5133 24.2574 67.6986 25.9716 70.8621 25.9716H71.2306H73.9494L79.6158 25.9839H82.9953H84.2912Z" fill="#27292D"/>
<path d="M17.8667 13.0969H59.8433V26.7392H17.8667V13.0969Z" fill="#259BD6"/>
<path d="M17.8667 32.1965H59.8433V45.8388H17.8667V32.1965Z" fill="#84B740"/>
</g>
<defs>
<clipPath id="clip0_1378_11020">
<rect width="101.499" height="32.7418" fill="white" transform="translate(17.4624 13.0969)"/>
</clipPath>
</defs>
</svg>
