<svg width="137" height="59" viewBox="0 0 137 59" fill="none" xmlns="http://www.w3.org/2000/svg">
<rect x="0.545696" y="0.545696" width="135.333" height="57.8438" rx="3.81987" stroke="#D2D6DB" stroke-width="1.09139"/>
<g clip-path="url(#clip0_1378_11009)">
<path fill-rule="evenodd" clip-rule="evenodd" d="M67.9911 44.7158C71.597 47.9911 76.4396 49.978 81.7069 49.978C93.0193 49.978 102.175 40.8826 102.175 29.6959C102.175 18.4752 93.0193 9.37939 81.7069 9.37939C76.4396 9.37939 71.597 11.3657 67.9911 14.6415C63.8549 18.3702 61.2388 23.7368 61.2388 29.6959C61.2392 35.6549 63.8549 41.022 67.9911 44.7158Z" fill="#E9B040"/>
<path fill-rule="evenodd" clip-rule="evenodd" d="M99.4536 40.9869C99.4536 40.6384 99.7365 40.3599 100.09 40.3599C100.478 40.3599 100.761 40.6388 100.761 40.9869C100.761 41.3708 100.478 41.6494 100.09 41.6494C99.7365 41.6494 99.4536 41.3708 99.4536 40.9869ZM100.09 41.5103C100.373 41.5103 100.619 41.2659 100.619 40.9873C100.619 40.7089 100.372 40.4998 100.09 40.4998C99.8417 40.4998 99.595 40.7089 99.595 40.9873C99.595 41.2659 99.8421 41.5103 100.09 41.5103ZM100.019 41.3012H99.8775V40.7085H100.125C100.16 40.7085 100.231 40.7085 100.266 40.7438C100.337 40.7782 100.337 40.8134 100.337 40.8833C100.337 40.9529 100.302 41.0226 100.231 41.0226L100.373 41.3016H100.195L100.125 41.0572H100.019V41.3012V40.9525H100.16C100.195 40.9525 100.195 40.9173 100.195 40.8828C100.195 40.8476 100.195 40.8476 100.16 40.813H100.019V41.3012Z" fill="#E9B040"/>
<path fill-rule="evenodd" clip-rule="evenodd" d="M74.6022 27.5356C74.5315 26.8039 74.3899 26.1071 74.2486 25.375H61.7343C61.8756 24.6433 62.0878 23.9465 62.2996 23.2492H73.6477C73.4014 22.5156 73.1183 21.7945 72.7993 21.0886H63.1838C63.5375 20.3504 63.9268 19.6294 64.3504 18.928H71.5978C71.1315 18.1837 70.6117 17.4733 70.0425 16.8022H65.9061C66.5459 16.0319 67.2431 15.3097 67.9918 14.6415C64.3508 11.4006 59.5428 9.37939 54.2402 9.37939C42.9632 9.37939 33.772 18.4752 33.772 29.6959C33.772 40.8826 42.9632 49.978 54.2402 49.978C59.5428 49.978 64.3504 47.9911 67.9918 44.7158C68.7291 44.0592 69.4146 43.3485 70.0425 42.5896H65.9061C65.3402 41.8927 64.8455 41.196 64.3504 40.429H71.5978C72.0535 39.7398 72.4553 39.0175 72.7998 38.2682H63.1838C62.8655 37.5715 62.5476 36.8746 62.2996 36.1421H73.6477C73.8949 35.4453 74.0721 34.714 74.2482 33.9815C74.3895 33.2846 74.531 32.5534 74.6017 31.8209C74.6734 31.1143 74.709 30.4047 74.7083 29.6947C74.7083 28.9642 74.6728 28.2325 74.6022 27.5356Z" fill="#CC2131"/>
<path fill-rule="evenodd" clip-rule="evenodd" d="M99.4536 34.4009C99.4536 34.0178 99.7365 33.7393 100.09 33.7393C100.478 33.7393 100.761 34.0182 100.761 34.4009C100.761 34.7495 100.478 35.0632 100.09 35.0632C99.7365 35.0632 99.4536 34.7491 99.4536 34.4009ZM100.09 34.8886C100.373 34.8886 100.619 34.6793 100.619 34.4009C100.619 34.1223 100.372 33.9132 100.09 33.9132C99.8417 33.9132 99.595 34.1223 99.595 34.4009C99.595 34.6793 99.8421 34.8886 100.09 34.8886ZM100.019 34.6793H99.8775V34.1219H100.266C100.337 34.1573 100.337 34.227 100.337 34.2967C100.337 34.3312 100.302 34.4009 100.231 34.4361L100.373 34.6797H100.195L100.125 34.4706H100.019V34.6793V34.3661H100.09C100.125 34.3661 100.16 34.3661 100.16 34.3308C100.195 34.3308 100.195 34.2962 100.195 34.261C100.195 34.261 100.195 34.2266 100.16 34.2266C100.16 34.1913 100.125 34.2266 100.09 34.2266H100.019V34.6793Z" fill="white"/>
<path fill-rule="evenodd" clip-rule="evenodd" d="M61.0263 35.5499C60.3547 35.7239 59.8596 35.8289 59.365 35.8289C58.3044 35.8289 57.6678 35.1665 57.6678 33.9816C57.6678 33.738 57.7033 33.494 57.7386 33.215L57.88 32.414L57.9862 31.7517L58.9406 26.0368H61.0616L60.8141 27.2913H62.1575L61.8393 29.3822H60.4958L59.9303 32.7971C59.895 32.9719 59.895 33.076 59.895 33.1458C59.895 33.5989 60.1072 33.7728 60.6372 33.7728C60.8849 33.7728 61.0967 33.7384 61.3087 33.7032L61.0263 35.5499ZM67.8846 35.4803C67.1071 35.6894 66.4002 35.7937 65.6221 35.7937C63.2181 35.7937 61.8393 34.539 61.8393 32.0654C61.8393 29.1727 63.4657 27.0817 65.7278 27.0817C67.5306 27.0817 68.6972 28.2666 68.6972 30.1131C68.6972 30.741 68.6265 31.3333 68.4501 32.1696H64.031C63.9957 32.3091 63.9957 32.3788 63.9957 32.4485C63.9957 33.4242 64.6672 33.9119 65.94 33.9119C66.7529 33.9119 67.4598 33.738 68.2379 33.3898L67.8846 35.4803ZM66.5766 30.497V30.0787C66.5766 29.3818 66.1876 28.9983 65.516 28.9983C64.8087 28.9983 64.3141 29.5209 64.1019 30.4966L66.5766 30.497ZM44.0576 35.6542H41.8658L43.1386 27.7442L40.2752 35.6542H38.7554L38.5785 27.779L37.2351 35.6542H35.0786L36.8107 25.3743H40.0277L40.0984 31.7172L42.2549 25.3743H45.7901L44.0576 35.6542ZM49.3961 31.9259C49.1839 31.8907 49.1132 31.8907 48.9717 31.8907C47.6991 31.8907 47.0629 32.3784 47.0629 33.1454C47.0629 33.6683 47.3811 34.0168 47.8758 34.0168C48.9364 34.0168 49.3604 33.1453 49.3961 31.9259ZM51.1636 35.6542H49.2546L49.2901 34.7834C48.7949 35.445 48.1235 35.7937 46.9568 35.7937C45.8962 35.7937 44.9771 34.8532 44.9771 33.494C44.9771 33.1109 45.0479 32.7627 45.154 32.414C45.5072 31.1241 46.8153 30.3231 48.8303 30.2879C49.0779 30.2879 49.4664 30.2879 49.8201 30.3231C49.8904 30.0443 49.8904 29.9392 49.8904 29.7653C49.8904 29.2075 49.431 29.0332 48.4059 29.0332C47.7697 29.0332 47.0624 29.1378 46.5677 29.3121L46.2495 29.3818L46.108 29.4162L46.4263 27.5346C47.4515 27.2208 48.1937 27.0817 49.0071 27.0817C50.916 27.0817 51.9411 27.9529 51.9411 29.5557C51.9411 29.9741 51.9765 30.2879 51.8351 31.1939L51.3404 34.1907L51.2696 34.7137L51.2343 35.132L51.1989 35.411L51.1636 35.6542ZM78.5608 27.3607C79.197 27.3607 79.7627 27.535 80.5404 27.9181L80.9291 25.6877C80.7169 25.583 80.646 25.583 80.3636 25.4785L79.4803 25.2345C79.1974 25.1647 78.8441 25.1299 78.4547 25.1299C77.3584 25.1299 76.7222 25.1647 76.0511 25.5482C75.6975 25.7922 75.2378 26.106 74.7425 26.6634L74.4596 26.5937L72.1971 28.1617L72.3037 27.2905H69.9699L68.5919 35.6538H70.8195L71.6322 31.1589C71.6322 31.1589 71.9508 30.531 72.0919 30.3227C72.5163 29.7997 72.8695 29.7997 73.3288 29.7997H73.5061C73.4319 30.3309 73.3963 30.8666 73.3995 31.4027C73.3995 34.1207 74.9547 35.8285 77.3588 35.8285C77.9601 35.8285 78.4909 35.7588 79.3034 35.5495L79.6929 33.1802C78.986 33.5633 78.3494 33.7376 77.819 33.7376C76.5113 33.7376 75.7329 32.7619 75.7329 31.2287C75.732 28.9635 76.8991 27.3607 78.5608 27.3607ZM97.3315 25.3743L96.8371 28.3016C96.3066 27.5001 95.67 27.1166 94.8218 27.1166C93.6546 27.1166 92.5592 27.7786 91.8873 29.0332V28.9988L90.4734 28.1621L90.6149 27.2909H88.2463L86.9028 35.6542H89.0946L89.8373 31.1594C89.8373 31.1594 90.4027 30.5315 90.5442 30.3231C90.8978 29.9048 91.2511 29.8347 91.534 29.8001C91.2869 30.497 91.1453 31.3333 91.1453 32.2746C91.1453 34.3655 92.2409 35.7592 93.8668 35.7592C94.6803 35.7592 95.3164 35.4803 95.9171 34.818L95.8115 35.6542H97.8976L99.5944 25.3743H97.3315ZM94.61 33.6683C93.8672 33.6683 93.4787 33.1109 93.4787 32.0301C93.4787 30.3921 94.1856 29.2075 95.2103 29.2075C95.988 29.2075 96.3773 29.8001 96.3773 30.8457C96.3773 32.5183 95.6704 33.6683 94.61 33.6683ZM84.394 31.9259C84.1818 31.8907 84.1111 31.8907 83.9696 31.8907C82.696 31.8907 82.0599 32.3784 82.0599 33.1454C82.0599 33.6683 82.3786 34.0168 82.8732 34.0168C83.9338 34.0168 84.3582 33.1453 84.394 31.9259ZM86.1615 35.6542H84.2167L84.2874 34.7834C83.7927 35.445 83.1204 35.7937 81.9546 35.7937C80.8582 35.7937 79.9042 34.8876 79.9042 33.494C79.9042 31.508 81.4237 30.2883 83.8277 30.2883C84.0756 30.2883 84.4639 30.2883 84.7825 30.3235C84.8533 30.0447 84.8891 29.9396 84.8891 29.7657C84.8891 29.2079 84.4293 29.0336 83.3688 29.0336C82.7676 29.0336 82.0253 29.1382 81.5306 29.3126L81.2477 29.3822L81.1062 29.4167L81.4242 27.535C82.4497 27.2212 83.1923 27.0822 84.0049 27.0822C85.9138 27.0822 86.9037 27.9534 86.9037 29.5561C86.9037 29.9745 86.9744 30.2883 86.7979 31.1943L86.3382 34.1912L86.2675 34.7141L86.1968 35.1325L86.1619 35.4114L86.1615 35.6542ZM55.7943 29.0681C56.2187 29.0681 56.8195 29.103 57.456 29.2075L57.7744 27.2561C57.1378 27.1864 56.2894 27.0817 55.7943 27.0817C53.32 27.0817 52.5071 28.4061 52.5071 29.9392C52.5071 30.9502 52.9664 31.6815 54.1683 32.2389C55.0521 32.6572 55.1936 32.7266 55.1936 33.1105C55.1936 33.6325 54.7343 33.9467 53.8855 33.9467C53.2139 33.9467 52.5773 33.8418 51.8704 33.5981L51.6229 35.5143L51.6578 35.5495L52.0822 35.6193C52.2237 35.6538 52.4005 35.689 52.648 35.7234C53.1782 35.7588 53.6379 35.7933 53.9208 35.7933C56.3956 35.7933 57.4207 34.8528 57.4207 33.0054C57.4207 31.8558 56.8549 31.1591 55.7589 30.6714C54.8045 30.2526 54.6984 30.1836 54.6984 29.7997C54.6984 29.4167 55.1228 29.0681 55.7943 29.0681Z" fill="#1B3771"/>
<path fill-rule="evenodd" clip-rule="evenodd" d="M81.5302 25.0265L81.1407 27.2567C80.3631 26.8733 79.7972 26.6993 79.161 26.6993C77.4993 26.6993 76.3331 28.3023 76.3331 30.5674C76.3331 32.1359 77.1107 33.0764 78.4192 33.0764C78.9488 33.0764 79.5854 32.9024 80.2923 32.5542L79.9038 34.8883C79.0904 35.0975 78.5603 35.2025 77.9591 35.2025C75.5556 35.2025 74.0706 33.4947 74.0706 30.7421C74.0706 27.0828 76.1209 24.5039 79.055 24.5039C79.4437 24.5039 79.7968 24.5387 80.0797 24.6084L80.9638 24.8176C81.2472 24.9222 81.318 24.9571 81.5302 25.0265ZM74.3888 26.56H74.1766C73.4348 26.56 73.0104 26.9085 72.3385 27.9188L72.5507 26.6293H70.5354L69.1573 34.993H71.3849C72.1975 29.8702 72.4097 28.999 73.4702 28.999H73.6117C73.8239 27.9885 74.1063 27.2563 74.4601 26.5944L74.3888 26.56ZM61.592 34.8883C60.9913 35.0975 60.4961 35.1673 60.0014 35.1673C58.8702 35.1673 58.2336 34.5401 58.2336 33.3208C58.2336 33.1116 58.269 32.833 58.3044 32.5886L58.4458 31.7524L58.5519 31.0908L59.5063 25.375H61.6982L61.4507 26.6297H62.5819L62.2989 28.6858H61.1676L60.5669 32.1707C60.5316 32.3102 60.5316 32.4151 60.5316 32.5194C60.5316 32.9377 60.7437 33.112 61.2738 33.112C61.5214 33.112 61.7331 33.112 61.8745 33.0422L61.592 34.8883ZM53.0724 29.278C53.0724 30.3238 53.5671 31.0551 54.7337 31.6129C55.6528 32.0312 55.7943 32.1703 55.7943 32.519C55.7943 33.0418 55.4052 33.2855 54.5215 33.2855C53.85 33.2855 53.2488 33.1813 52.5418 32.9721L52.2236 34.8883L52.3298 34.9236L52.7187 34.9934C52.8598 35.0278 53.0371 35.063 53.3195 35.063C53.8142 35.1327 54.2386 35.1327 54.5215 35.1327C56.8543 35.1327 57.9507 34.2612 57.9507 32.345C57.9507 31.1946 57.4913 30.5321 56.3954 30.0101C55.441 29.5917 55.335 29.4876 55.335 29.1041C55.335 28.6512 55.7239 28.442 56.4309 28.442C56.8552 28.442 57.456 28.477 58.0218 28.5467L58.3397 26.6301C57.7742 26.5254 56.8906 26.4558 56.3954 26.4558C53.9208 26.4553 53.0371 27.7449 53.0724 29.278ZM98.4634 34.9934H96.3773L96.4838 34.1914C95.8826 34.8186 95.246 35.0975 94.4326 35.0975C92.8066 35.0975 91.7462 33.7391 91.7462 31.6482C91.7462 28.8601 93.4079 26.4902 95.3518 26.4902C96.2358 26.4902 96.872 26.8737 97.4737 27.6402L97.9683 24.7131H100.16L98.4634 34.9934ZM95.2107 33.0418C96.2362 33.0418 96.9431 31.8569 96.9431 30.2189C96.9431 29.1385 96.5537 28.5807 95.776 28.5807C94.7863 28.5807 94.0445 29.7307 94.0445 31.3689C94.0445 32.4844 94.433 33.0418 95.2107 33.0418ZM68.3793 34.8186C67.6013 35.063 66.8943 35.1673 66.0814 35.1673C63.6066 35.1673 62.3338 33.8782 62.3338 31.4038C62.3338 28.5463 63.9603 26.4205 66.1874 26.4205C68.0256 26.4205 69.1919 27.6054 69.1919 29.4523C69.1919 30.0798 69.1211 30.6724 68.9089 31.5432H64.5261C64.4908 31.6482 64.4908 31.7178 64.4908 31.7877C64.4908 32.7634 65.1627 33.251 66.435 33.251C67.248 33.251 67.9549 33.1116 68.733 32.7281L68.3793 34.8186ZM67.142 29.8354V29.4173C67.142 28.7206 66.7529 28.3371 66.0814 28.3371C65.3745 28.3371 64.8794 28.8601 64.6672 29.8354H67.142ZM44.6234 34.9934H42.4316L43.7043 27.0824L40.841 34.9934H39.3207L39.1439 27.1522L37.8008 34.9934H35.7505L37.4826 24.7131H40.6642L40.7703 31.0904L42.8909 24.7131H46.3555L44.6234 34.9934ZM50.103 31.2643C49.8908 31.2643 49.7846 31.2298 49.6079 31.2298C48.3704 31.2298 47.7343 31.6826 47.7343 32.519C47.7343 33.0418 48.0173 33.3552 48.512 33.3552C49.431 33.3552 50.0676 32.519 50.103 31.2643ZM51.7289 34.9934H49.8904L49.9257 34.1217C49.3599 34.8186 48.6176 35.1327 47.5925 35.1327C46.3904 35.1327 45.5774 34.2268 45.5774 32.8675C45.5774 30.8119 46.9912 29.6271 49.466 29.6271C49.7135 29.6271 50.0317 29.6619 50.385 29.6963C50.4557 29.4178 50.4557 29.3132 50.4557 29.1738C50.4557 28.6164 50.0668 28.4072 49.0416 28.4072C48.4054 28.4072 47.6981 28.477 47.2034 28.6164L46.8851 28.721L46.6729 28.7558L46.9912 26.8741C48.0871 26.5604 48.8294 26.4558 49.6428 26.4558C51.5517 26.4558 52.5769 27.292 52.5769 28.8949C52.5769 29.3132 52.5414 29.6271 52.4 30.5678L51.9049 33.5303L51.8341 34.0525L51.7988 34.4708L51.7634 34.7849L51.7289 34.9934ZM85.1007 31.2643C84.8528 31.2643 84.7472 31.2298 84.6061 31.2298C83.3334 31.2298 82.6964 31.6826 82.6964 32.519C82.6964 33.0418 83.015 33.3552 83.5097 33.3552C84.3939 33.3552 85.065 32.519 85.1007 31.2643ZM86.7268 34.9934H84.8887L84.9236 34.1217C84.3581 34.8186 83.6159 35.1327 82.5906 35.1327C81.3887 35.1327 80.5753 34.2268 80.5753 32.8675C80.5753 30.8119 81.9891 29.6271 84.4638 29.6271C84.7118 29.6271 85.03 29.6619 85.348 29.6963C85.4187 29.4178 85.4544 29.3132 85.4544 29.1738C85.4544 28.6164 85.065 28.4072 84.0407 28.4072C83.4037 28.4072 82.6619 28.477 82.1668 28.6164L81.8838 28.721L81.6716 28.7558L81.9895 26.8741C83.0859 26.5604 83.8277 26.4558 84.641 26.4558C86.55 26.4558 87.5397 27.292 87.5397 28.8949C87.5397 29.3132 87.5397 29.6271 87.3633 30.5678L86.9035 33.5303L86.8328 34.0525L86.7622 34.4708L86.7272 34.7849L86.7268 34.9934ZM92.6657 26.56H92.4535C91.7115 26.56 91.2873 26.9085 90.6153 27.9188L90.8275 26.6293H88.8121L87.4686 34.993H89.6603C90.4738 29.8702 90.686 28.999 91.7466 28.999H91.888C92.1002 27.9885 92.3826 27.2563 92.7364 26.5944L92.6657 26.56Z" fill="white"/>
</g>
<defs>
<clipPath id="clip0_1378_11009">
<rect width="69.8491" height="41.4729" fill="white" transform="translate(33.2876 8.73145)"/>
</clipPath>
</defs>
</svg>
