<svg width="137" height="59" viewBox="0 0 137 59" fill="none" xmlns="http://www.w3.org/2000/svg">
<rect x="0.545696" y="0.545696" width="135.333" height="57.8438" rx="3.81987" stroke="#D2D6DB" stroke-width="1.09139"/>
<g clip-path="url(#clip0_1378_11017)">
<path d="M61.9383 44.8547H53.8112L58.8906 13.9638H67.0185L61.9383 44.8547ZM46.9743 13.9638L39.2263 35.2108L38.3094 30.6355L38.3103 30.6372L35.5757 16.7452C35.5757 16.7452 35.245 13.9638 31.7204 13.9638H18.9115L18.7612 14.4869C18.7612 14.4869 22.6782 15.2934 27.2624 18.0177L34.3231 44.8555H42.7909L55.7209 13.9638H46.9743ZM110.898 44.8547H118.36L111.854 13.963H105.321C102.304 13.963 101.569 16.2651 101.569 16.2651L89.4483 44.8547H97.9202L99.6144 40.2662H109.946L110.898 44.8547ZM101.955 33.9275L106.225 22.3674L108.627 33.9275H101.955ZM90.0838 21.3924L91.2435 14.7587C91.2435 14.7587 87.6647 13.4119 83.9339 13.4119C79.9009 13.4119 70.3235 15.1562 70.3235 23.6383C70.3235 31.6188 81.5642 31.7179 81.5642 35.9099C81.5642 40.1017 71.4815 39.3506 68.1541 36.7073L66.9458 43.6433C66.9458 43.6433 70.5747 45.3876 76.1192 45.3876C81.6652 45.3876 90.0319 42.546 90.0319 34.8116C90.0319 26.78 78.6901 26.0322 78.6901 22.5401C78.6909 19.0473 86.606 19.496 90.0838 21.3924Z" fill="black"/>
</g>
<defs>
<clipPath id="clip0_1378_11017">
<rect width="101.499" height="32.7418" fill="white" transform="translate(17.4624 13.0969)"/>
</clipPath>
</defs>
</svg>
